G04 MADE WITH FRITZING*
G04 WWW.FRITZING.ORG*
G04 DOUBLE SIDED*
G04 HOLES PLATED*
G04 CONTOUR ON CENTER OF CONTOUR VECTOR*
%ASAXBY*%
%FSLAX23Y23*%
%MOIN*%
%OFA0B0*%
%SFA1.0B1.0*%
%ADD10C,0.088000*%
%LNMASK0*%
G90*
G70*
G54D10*
X650Y1686D03*
X750Y1686D03*
X850Y1686D03*
X950Y1686D03*
X1050Y1686D03*
X1150Y1686D03*
X1250Y1686D03*
X1350Y1686D03*
X1450Y1686D03*
X1550Y1686D03*
X1650Y1686D03*
X1750Y1686D03*
X1850Y1686D03*
X1950Y1686D03*
X2050Y1686D03*
X2150Y1686D03*
X2250Y1686D03*
X2350Y1686D03*
X2450Y1686D03*
X2550Y1686D03*
X649Y1499D03*
X749Y1499D03*
X849Y1499D03*
X949Y1499D03*
X1049Y1499D03*
X1149Y1499D03*
X1249Y1499D03*
X1349Y1499D03*
X1449Y1499D03*
X1549Y1499D03*
X1649Y1499D03*
X1749Y1499D03*
X1849Y1499D03*
X1949Y1499D03*
X2049Y1499D03*
X2149Y1499D03*
X2249Y1499D03*
X2349Y1499D03*
X2449Y1499D03*
X2549Y1499D03*
X651Y1862D03*
X751Y1862D03*
X851Y1862D03*
X951Y1862D03*
X1051Y1862D03*
X1151Y1862D03*
X1251Y1862D03*
X1351Y1862D03*
X1451Y1862D03*
X1551Y1862D03*
X1651Y1862D03*
X1751Y1862D03*
X1851Y1862D03*
X1951Y1862D03*
X2051Y1862D03*
X2151Y1862D03*
X2251Y1862D03*
X2351Y1862D03*
X2451Y1862D03*
X2551Y1862D03*
X2862Y1675D03*
X2762Y1675D03*
X2864Y1861D03*
X2764Y1861D03*
X2862Y1469D03*
X2762Y1469D03*
G04 End of Mask0*
M02*