; NON-PLATED HOLES START AT T1
; THROUGH (PLATED) HOLES START AT T100
M48
INCH
T100C0.038000
%
T100
X023501Y016855
X011490Y014985
X027616Y014694
X019490Y014985
X027616Y016751
X025501Y016855
X006510Y018619
X020501Y016855
X020510Y018619
X023510Y018619
X017490Y014985
X013490Y014985
X018490Y014985
X016490Y014985
X022490Y014985
X014510Y018619
X023490Y014985
X025510Y018619
X028642Y018612
X021490Y014985
X017510Y018619
X008510Y018619
X028616Y016751
X007501Y016855
X022510Y018619
X014501Y016855
X017501Y016855
X019501Y016855
X024490Y014985
X019510Y018619
X008490Y014985
X010510Y018619
X016501Y016855
X013501Y016855
X015501Y016855
X018501Y016855
X015510Y018619
X024501Y016855
X007510Y018619
X010501Y016855
X021501Y016855
X018510Y018619
X027642Y018612
X016510Y018619
X013510Y018619
X014490Y014985
X010490Y014985
X006490Y014985
X008501Y016855
X015490Y014985
X028616Y014694
X025490Y014985
X011501Y016855
X012510Y018619
X009510Y018619
X009490Y014985
X012490Y014985
X020490Y014985
X006501Y016855
X011510Y018619
X022501Y016855
X024510Y018619
X012501Y016855
X021510Y018619
X009501Y016855
X007490Y014985
T00
M30
