G04 MADE WITH FRITZING*
G04 WWW.FRITZING.ORG*
G04 DOUBLE SIDED*
G04 HOLES PLATED*
G04 CONTOUR ON CENTER OF CONTOUR VECTOR*
%ASAXBY*%
%FSLAX23Y23*%
%MOIN*%
%OFA0B0*%
%SFA1.0B1.0*%
%ADD10C,0.010000*%
%ADD11C,0.005000*%
%ADD12R,0.001000X0.001000*%
%LNSILK1*%
G90*
G70*
G54D10*
X601Y1812D02*
X2601Y1812D01*
D02*
X2601Y1812D02*
X2601Y1912D01*
D02*
X2601Y1912D02*
X601Y1912D01*
D02*
X601Y1912D02*
X601Y1812D01*
D02*
X600Y1636D02*
X2600Y1636D01*
D02*
X2600Y1636D02*
X2600Y1736D01*
D02*
X2600Y1736D02*
X600Y1736D01*
D02*
X600Y1736D02*
X600Y1636D01*
G54D11*
D02*
X635Y1636D02*
X600Y1671D01*
G54D10*
D02*
X599Y1449D02*
X2599Y1449D01*
D02*
X2599Y1449D02*
X2599Y1549D01*
D02*
X2599Y1549D02*
X599Y1549D01*
D02*
X599Y1549D02*
X599Y1449D01*
G54D11*
D02*
X634Y1449D02*
X599Y1484D01*
G54D10*
D02*
X2914Y1911D02*
X2714Y1911D01*
D02*
X2714Y1911D02*
X2714Y1811D01*
D02*
X2714Y1811D02*
X2914Y1811D01*
D02*
X2914Y1811D02*
X2914Y1911D01*
D02*
X2912Y1725D02*
X2712Y1725D01*
D02*
X2712Y1725D02*
X2712Y1625D01*
D02*
X2712Y1625D02*
X2912Y1625D01*
D02*
X2912Y1625D02*
X2912Y1725D01*
D02*
X2912Y1519D02*
X2712Y1519D01*
D02*
X2712Y1519D02*
X2712Y1419D01*
D02*
X2712Y1419D02*
X2912Y1419D01*
D02*
X2912Y1419D02*
X2912Y1519D01*
G54D11*
D02*
X2877Y1519D02*
X2912Y1484D01*
G54D12*
X0Y2222D02*
X3332Y2222D01*
X0Y2221D02*
X3332Y2221D01*
X0Y2220D02*
X3332Y2220D01*
X0Y2219D02*
X3332Y2219D01*
X0Y2218D02*
X3332Y2218D01*
X0Y2217D02*
X3332Y2217D01*
X0Y2216D02*
X3332Y2216D01*
X0Y2215D02*
X3332Y2215D01*
X0Y2214D02*
X7Y2214D01*
X3325Y2214D02*
X3332Y2214D01*
X0Y2213D02*
X7Y2213D01*
X3325Y2213D02*
X3332Y2213D01*
X0Y2212D02*
X7Y2212D01*
X3325Y2212D02*
X3332Y2212D01*
X0Y2211D02*
X7Y2211D01*
X3325Y2211D02*
X3332Y2211D01*
X0Y2210D02*
X7Y2210D01*
X3325Y2210D02*
X3332Y2210D01*
X0Y2209D02*
X7Y2209D01*
X3325Y2209D02*
X3332Y2209D01*
X0Y2208D02*
X7Y2208D01*
X3325Y2208D02*
X3332Y2208D01*
X0Y2207D02*
X7Y2207D01*
X3325Y2207D02*
X3332Y2207D01*
X0Y2206D02*
X7Y2206D01*
X3325Y2206D02*
X3332Y2206D01*
X0Y2205D02*
X7Y2205D01*
X3325Y2205D02*
X3332Y2205D01*
X0Y2204D02*
X7Y2204D01*
X3325Y2204D02*
X3332Y2204D01*
X0Y2203D02*
X7Y2203D01*
X3325Y2203D02*
X3332Y2203D01*
X0Y2202D02*
X7Y2202D01*
X3325Y2202D02*
X3332Y2202D01*
X0Y2201D02*
X7Y2201D01*
X3325Y2201D02*
X3332Y2201D01*
X0Y2200D02*
X7Y2200D01*
X3325Y2200D02*
X3332Y2200D01*
X0Y2199D02*
X7Y2199D01*
X3325Y2199D02*
X3332Y2199D01*
X0Y2198D02*
X7Y2198D01*
X3325Y2198D02*
X3332Y2198D01*
X0Y2197D02*
X7Y2197D01*
X3325Y2197D02*
X3332Y2197D01*
X0Y2196D02*
X7Y2196D01*
X3325Y2196D02*
X3332Y2196D01*
X0Y2195D02*
X7Y2195D01*
X3325Y2195D02*
X3332Y2195D01*
X0Y2194D02*
X7Y2194D01*
X3325Y2194D02*
X3332Y2194D01*
X0Y2193D02*
X7Y2193D01*
X3325Y2193D02*
X3332Y2193D01*
X0Y2192D02*
X7Y2192D01*
X3325Y2192D02*
X3332Y2192D01*
X0Y2191D02*
X7Y2191D01*
X3325Y2191D02*
X3332Y2191D01*
X0Y2190D02*
X7Y2190D01*
X3325Y2190D02*
X3332Y2190D01*
X0Y2189D02*
X7Y2189D01*
X3325Y2189D02*
X3332Y2189D01*
X0Y2188D02*
X7Y2188D01*
X3325Y2188D02*
X3332Y2188D01*
X0Y2187D02*
X7Y2187D01*
X3325Y2187D02*
X3332Y2187D01*
X0Y2186D02*
X7Y2186D01*
X3325Y2186D02*
X3332Y2186D01*
X0Y2185D02*
X7Y2185D01*
X3325Y2185D02*
X3332Y2185D01*
X0Y2184D02*
X7Y2184D01*
X3325Y2184D02*
X3332Y2184D01*
X0Y2183D02*
X7Y2183D01*
X3325Y2183D02*
X3332Y2183D01*
X0Y2182D02*
X7Y2182D01*
X3325Y2182D02*
X3332Y2182D01*
X0Y2181D02*
X7Y2181D01*
X3325Y2181D02*
X3332Y2181D01*
X0Y2180D02*
X7Y2180D01*
X3325Y2180D02*
X3332Y2180D01*
X0Y2179D02*
X7Y2179D01*
X3325Y2179D02*
X3332Y2179D01*
X0Y2178D02*
X7Y2178D01*
X3325Y2178D02*
X3332Y2178D01*
X0Y2177D02*
X7Y2177D01*
X3325Y2177D02*
X3332Y2177D01*
X0Y2176D02*
X7Y2176D01*
X3325Y2176D02*
X3332Y2176D01*
X0Y2175D02*
X7Y2175D01*
X3325Y2175D02*
X3332Y2175D01*
X0Y2174D02*
X7Y2174D01*
X3325Y2174D02*
X3332Y2174D01*
X0Y2173D02*
X7Y2173D01*
X3325Y2173D02*
X3332Y2173D01*
X0Y2172D02*
X7Y2172D01*
X3325Y2172D02*
X3332Y2172D01*
X0Y2171D02*
X7Y2171D01*
X3325Y2171D02*
X3332Y2171D01*
X0Y2170D02*
X7Y2170D01*
X3325Y2170D02*
X3332Y2170D01*
X0Y2169D02*
X7Y2169D01*
X3325Y2169D02*
X3332Y2169D01*
X0Y2168D02*
X7Y2168D01*
X3325Y2168D02*
X3332Y2168D01*
X0Y2167D02*
X7Y2167D01*
X3325Y2167D02*
X3332Y2167D01*
X0Y2166D02*
X7Y2166D01*
X3325Y2166D02*
X3332Y2166D01*
X0Y2165D02*
X7Y2165D01*
X3325Y2165D02*
X3332Y2165D01*
X0Y2164D02*
X7Y2164D01*
X3325Y2164D02*
X3332Y2164D01*
X0Y2163D02*
X7Y2163D01*
X3325Y2163D02*
X3332Y2163D01*
X0Y2162D02*
X7Y2162D01*
X3325Y2162D02*
X3332Y2162D01*
X0Y2161D02*
X7Y2161D01*
X3325Y2161D02*
X3332Y2161D01*
X0Y2160D02*
X7Y2160D01*
X3325Y2160D02*
X3332Y2160D01*
X0Y2159D02*
X7Y2159D01*
X3325Y2159D02*
X3332Y2159D01*
X0Y2158D02*
X7Y2158D01*
X3325Y2158D02*
X3332Y2158D01*
X0Y2157D02*
X7Y2157D01*
X3325Y2157D02*
X3332Y2157D01*
X0Y2156D02*
X7Y2156D01*
X3325Y2156D02*
X3332Y2156D01*
X0Y2155D02*
X7Y2155D01*
X3325Y2155D02*
X3332Y2155D01*
X0Y2154D02*
X7Y2154D01*
X3325Y2154D02*
X3332Y2154D01*
X0Y2153D02*
X7Y2153D01*
X3325Y2153D02*
X3332Y2153D01*
X0Y2152D02*
X7Y2152D01*
X3325Y2152D02*
X3332Y2152D01*
X0Y2151D02*
X7Y2151D01*
X3325Y2151D02*
X3332Y2151D01*
X0Y2150D02*
X7Y2150D01*
X3325Y2150D02*
X3332Y2150D01*
X0Y2149D02*
X7Y2149D01*
X3325Y2149D02*
X3332Y2149D01*
X0Y2148D02*
X7Y2148D01*
X3325Y2148D02*
X3332Y2148D01*
X0Y2147D02*
X7Y2147D01*
X3325Y2147D02*
X3332Y2147D01*
X0Y2146D02*
X7Y2146D01*
X3325Y2146D02*
X3332Y2146D01*
X0Y2145D02*
X7Y2145D01*
X3325Y2145D02*
X3332Y2145D01*
X0Y2144D02*
X7Y2144D01*
X3325Y2144D02*
X3332Y2144D01*
X0Y2143D02*
X7Y2143D01*
X3325Y2143D02*
X3332Y2143D01*
X0Y2142D02*
X7Y2142D01*
X3325Y2142D02*
X3332Y2142D01*
X0Y2141D02*
X7Y2141D01*
X3325Y2141D02*
X3332Y2141D01*
X0Y2140D02*
X7Y2140D01*
X3325Y2140D02*
X3332Y2140D01*
X0Y2139D02*
X7Y2139D01*
X3325Y2139D02*
X3332Y2139D01*
X0Y2138D02*
X7Y2138D01*
X3325Y2138D02*
X3332Y2138D01*
X0Y2137D02*
X7Y2137D01*
X3325Y2137D02*
X3332Y2137D01*
X0Y2136D02*
X7Y2136D01*
X3325Y2136D02*
X3332Y2136D01*
X0Y2135D02*
X7Y2135D01*
X3325Y2135D02*
X3332Y2135D01*
X0Y2134D02*
X7Y2134D01*
X3325Y2134D02*
X3332Y2134D01*
X0Y2133D02*
X7Y2133D01*
X3325Y2133D02*
X3332Y2133D01*
X0Y2132D02*
X7Y2132D01*
X3325Y2132D02*
X3332Y2132D01*
X0Y2131D02*
X7Y2131D01*
X3325Y2131D02*
X3332Y2131D01*
X0Y2130D02*
X7Y2130D01*
X3325Y2130D02*
X3332Y2130D01*
X0Y2129D02*
X7Y2129D01*
X3325Y2129D02*
X3332Y2129D01*
X0Y2128D02*
X7Y2128D01*
X3325Y2128D02*
X3332Y2128D01*
X0Y2127D02*
X7Y2127D01*
X3325Y2127D02*
X3332Y2127D01*
X0Y2126D02*
X7Y2126D01*
X3325Y2126D02*
X3332Y2126D01*
X0Y2125D02*
X7Y2125D01*
X3325Y2125D02*
X3332Y2125D01*
X0Y2124D02*
X7Y2124D01*
X3325Y2124D02*
X3332Y2124D01*
X0Y2123D02*
X7Y2123D01*
X3325Y2123D02*
X3332Y2123D01*
X0Y2122D02*
X7Y2122D01*
X3325Y2122D02*
X3332Y2122D01*
X0Y2121D02*
X7Y2121D01*
X3325Y2121D02*
X3332Y2121D01*
X0Y2120D02*
X7Y2120D01*
X3325Y2120D02*
X3332Y2120D01*
X0Y2119D02*
X7Y2119D01*
X3325Y2119D02*
X3332Y2119D01*
X0Y2118D02*
X7Y2118D01*
X3325Y2118D02*
X3332Y2118D01*
X0Y2117D02*
X7Y2117D01*
X3325Y2117D02*
X3332Y2117D01*
X0Y2116D02*
X7Y2116D01*
X3325Y2116D02*
X3332Y2116D01*
X0Y2115D02*
X7Y2115D01*
X3325Y2115D02*
X3332Y2115D01*
X0Y2114D02*
X7Y2114D01*
X3325Y2114D02*
X3332Y2114D01*
X0Y2113D02*
X7Y2113D01*
X3325Y2113D02*
X3332Y2113D01*
X0Y2112D02*
X7Y2112D01*
X3325Y2112D02*
X3332Y2112D01*
X0Y2111D02*
X7Y2111D01*
X3325Y2111D02*
X3332Y2111D01*
X0Y2110D02*
X7Y2110D01*
X3325Y2110D02*
X3332Y2110D01*
X0Y2109D02*
X7Y2109D01*
X3325Y2109D02*
X3332Y2109D01*
X0Y2108D02*
X7Y2108D01*
X3325Y2108D02*
X3332Y2108D01*
X0Y2107D02*
X7Y2107D01*
X3325Y2107D02*
X3332Y2107D01*
X0Y2106D02*
X7Y2106D01*
X3325Y2106D02*
X3332Y2106D01*
X0Y2105D02*
X7Y2105D01*
X3325Y2105D02*
X3332Y2105D01*
X0Y2104D02*
X7Y2104D01*
X3325Y2104D02*
X3332Y2104D01*
X0Y2103D02*
X7Y2103D01*
X3325Y2103D02*
X3332Y2103D01*
X0Y2102D02*
X7Y2102D01*
X3325Y2102D02*
X3332Y2102D01*
X0Y2101D02*
X7Y2101D01*
X3325Y2101D02*
X3332Y2101D01*
X0Y2100D02*
X7Y2100D01*
X3325Y2100D02*
X3332Y2100D01*
X0Y2099D02*
X7Y2099D01*
X3325Y2099D02*
X3332Y2099D01*
X0Y2098D02*
X7Y2098D01*
X3325Y2098D02*
X3332Y2098D01*
X0Y2097D02*
X7Y2097D01*
X3325Y2097D02*
X3332Y2097D01*
X0Y2096D02*
X7Y2096D01*
X3325Y2096D02*
X3332Y2096D01*
X0Y2095D02*
X7Y2095D01*
X3325Y2095D02*
X3332Y2095D01*
X0Y2094D02*
X7Y2094D01*
X3325Y2094D02*
X3332Y2094D01*
X0Y2093D02*
X7Y2093D01*
X3325Y2093D02*
X3332Y2093D01*
X0Y2092D02*
X7Y2092D01*
X3325Y2092D02*
X3332Y2092D01*
X0Y2091D02*
X7Y2091D01*
X3325Y2091D02*
X3332Y2091D01*
X0Y2090D02*
X7Y2090D01*
X3325Y2090D02*
X3332Y2090D01*
X0Y2089D02*
X7Y2089D01*
X3325Y2089D02*
X3332Y2089D01*
X0Y2088D02*
X7Y2088D01*
X3325Y2088D02*
X3332Y2088D01*
X0Y2087D02*
X7Y2087D01*
X3325Y2087D02*
X3332Y2087D01*
X0Y2086D02*
X7Y2086D01*
X3325Y2086D02*
X3332Y2086D01*
X0Y2085D02*
X7Y2085D01*
X3325Y2085D02*
X3332Y2085D01*
X0Y2084D02*
X7Y2084D01*
X3325Y2084D02*
X3332Y2084D01*
X0Y2083D02*
X7Y2083D01*
X3325Y2083D02*
X3332Y2083D01*
X0Y2082D02*
X7Y2082D01*
X3325Y2082D02*
X3332Y2082D01*
X0Y2081D02*
X7Y2081D01*
X3325Y2081D02*
X3332Y2081D01*
X0Y2080D02*
X7Y2080D01*
X3325Y2080D02*
X3332Y2080D01*
X0Y2079D02*
X7Y2079D01*
X3325Y2079D02*
X3332Y2079D01*
X0Y2078D02*
X7Y2078D01*
X3325Y2078D02*
X3332Y2078D01*
X0Y2077D02*
X7Y2077D01*
X3325Y2077D02*
X3332Y2077D01*
X0Y2076D02*
X7Y2076D01*
X3325Y2076D02*
X3332Y2076D01*
X0Y2075D02*
X7Y2075D01*
X3325Y2075D02*
X3332Y2075D01*
X0Y2074D02*
X7Y2074D01*
X3325Y2074D02*
X3332Y2074D01*
X0Y2073D02*
X7Y2073D01*
X3325Y2073D02*
X3332Y2073D01*
X0Y2072D02*
X7Y2072D01*
X3325Y2072D02*
X3332Y2072D01*
X0Y2071D02*
X7Y2071D01*
X3325Y2071D02*
X3332Y2071D01*
X0Y2070D02*
X7Y2070D01*
X3325Y2070D02*
X3332Y2070D01*
X0Y2069D02*
X7Y2069D01*
X3325Y2069D02*
X3332Y2069D01*
X0Y2068D02*
X7Y2068D01*
X3325Y2068D02*
X3332Y2068D01*
X0Y2067D02*
X7Y2067D01*
X3325Y2067D02*
X3332Y2067D01*
X0Y2066D02*
X7Y2066D01*
X3325Y2066D02*
X3332Y2066D01*
X0Y2065D02*
X7Y2065D01*
X3325Y2065D02*
X3332Y2065D01*
X0Y2064D02*
X7Y2064D01*
X3325Y2064D02*
X3332Y2064D01*
X0Y2063D02*
X7Y2063D01*
X3325Y2063D02*
X3332Y2063D01*
X0Y2062D02*
X7Y2062D01*
X3325Y2062D02*
X3332Y2062D01*
X0Y2061D02*
X7Y2061D01*
X3325Y2061D02*
X3332Y2061D01*
X0Y2060D02*
X7Y2060D01*
X3325Y2060D02*
X3332Y2060D01*
X0Y2059D02*
X7Y2059D01*
X3325Y2059D02*
X3332Y2059D01*
X0Y2058D02*
X7Y2058D01*
X3325Y2058D02*
X3332Y2058D01*
X0Y2057D02*
X7Y2057D01*
X3325Y2057D02*
X3332Y2057D01*
X0Y2056D02*
X7Y2056D01*
X3325Y2056D02*
X3332Y2056D01*
X0Y2055D02*
X7Y2055D01*
X3325Y2055D02*
X3332Y2055D01*
X0Y2054D02*
X7Y2054D01*
X3325Y2054D02*
X3332Y2054D01*
X0Y2053D02*
X7Y2053D01*
X3325Y2053D02*
X3332Y2053D01*
X0Y2052D02*
X7Y2052D01*
X3325Y2052D02*
X3332Y2052D01*
X0Y2051D02*
X7Y2051D01*
X3325Y2051D02*
X3332Y2051D01*
X0Y2050D02*
X7Y2050D01*
X3325Y2050D02*
X3332Y2050D01*
X0Y2049D02*
X7Y2049D01*
X3325Y2049D02*
X3332Y2049D01*
X0Y2048D02*
X7Y2048D01*
X3325Y2048D02*
X3332Y2048D01*
X0Y2047D02*
X7Y2047D01*
X3325Y2047D02*
X3332Y2047D01*
X0Y2046D02*
X7Y2046D01*
X3325Y2046D02*
X3332Y2046D01*
X0Y2045D02*
X7Y2045D01*
X3325Y2045D02*
X3332Y2045D01*
X0Y2044D02*
X7Y2044D01*
X3325Y2044D02*
X3332Y2044D01*
X0Y2043D02*
X7Y2043D01*
X3325Y2043D02*
X3332Y2043D01*
X0Y2042D02*
X7Y2042D01*
X3325Y2042D02*
X3332Y2042D01*
X0Y2041D02*
X7Y2041D01*
X3325Y2041D02*
X3332Y2041D01*
X0Y2040D02*
X7Y2040D01*
X3325Y2040D02*
X3332Y2040D01*
X0Y2039D02*
X7Y2039D01*
X3325Y2039D02*
X3332Y2039D01*
X0Y2038D02*
X7Y2038D01*
X3325Y2038D02*
X3332Y2038D01*
X0Y2037D02*
X7Y2037D01*
X3325Y2037D02*
X3332Y2037D01*
X0Y2036D02*
X7Y2036D01*
X3325Y2036D02*
X3332Y2036D01*
X0Y2035D02*
X7Y2035D01*
X3325Y2035D02*
X3332Y2035D01*
X0Y2034D02*
X7Y2034D01*
X3325Y2034D02*
X3332Y2034D01*
X0Y2033D02*
X7Y2033D01*
X3325Y2033D02*
X3332Y2033D01*
X0Y2032D02*
X7Y2032D01*
X3325Y2032D02*
X3332Y2032D01*
X0Y2031D02*
X7Y2031D01*
X3325Y2031D02*
X3332Y2031D01*
X0Y2030D02*
X7Y2030D01*
X3325Y2030D02*
X3332Y2030D01*
X0Y2029D02*
X7Y2029D01*
X3325Y2029D02*
X3332Y2029D01*
X0Y2028D02*
X7Y2028D01*
X3325Y2028D02*
X3332Y2028D01*
X0Y2027D02*
X7Y2027D01*
X3325Y2027D02*
X3332Y2027D01*
X0Y2026D02*
X7Y2026D01*
X3325Y2026D02*
X3332Y2026D01*
X0Y2025D02*
X7Y2025D01*
X3325Y2025D02*
X3332Y2025D01*
X0Y2024D02*
X7Y2024D01*
X532Y2024D02*
X553Y2024D01*
X3325Y2024D02*
X3332Y2024D01*
X0Y2023D02*
X7Y2023D01*
X531Y2023D02*
X554Y2023D01*
X3325Y2023D02*
X3332Y2023D01*
X0Y2022D02*
X7Y2022D01*
X531Y2022D02*
X554Y2022D01*
X3325Y2022D02*
X3332Y2022D01*
X0Y2021D02*
X7Y2021D01*
X531Y2021D02*
X554Y2021D01*
X3325Y2021D02*
X3332Y2021D01*
X0Y2020D02*
X7Y2020D01*
X531Y2020D02*
X554Y2020D01*
X3325Y2020D02*
X3332Y2020D01*
X0Y2019D02*
X7Y2019D01*
X531Y2019D02*
X554Y2019D01*
X3325Y2019D02*
X3332Y2019D01*
X0Y2018D02*
X7Y2018D01*
X533Y2018D02*
X554Y2018D01*
X3325Y2018D02*
X3332Y2018D01*
X0Y2017D02*
X7Y2017D01*
X548Y2017D02*
X554Y2017D01*
X3325Y2017D02*
X3332Y2017D01*
X0Y2016D02*
X7Y2016D01*
X548Y2016D02*
X554Y2016D01*
X3325Y2016D02*
X3332Y2016D01*
X0Y2015D02*
X7Y2015D01*
X548Y2015D02*
X554Y2015D01*
X3325Y2015D02*
X3332Y2015D01*
X0Y2014D02*
X7Y2014D01*
X548Y2014D02*
X554Y2014D01*
X3325Y2014D02*
X3332Y2014D01*
X0Y2013D02*
X7Y2013D01*
X548Y2013D02*
X554Y2013D01*
X3325Y2013D02*
X3332Y2013D01*
X0Y2012D02*
X7Y2012D01*
X548Y2012D02*
X554Y2012D01*
X3325Y2012D02*
X3332Y2012D01*
X0Y2011D02*
X7Y2011D01*
X548Y2011D02*
X554Y2011D01*
X3325Y2011D02*
X3332Y2011D01*
X0Y2010D02*
X7Y2010D01*
X501Y2010D02*
X554Y2010D01*
X3325Y2010D02*
X3332Y2010D01*
X0Y2009D02*
X7Y2009D01*
X501Y2009D02*
X554Y2009D01*
X3325Y2009D02*
X3332Y2009D01*
X0Y2008D02*
X7Y2008D01*
X501Y2008D02*
X554Y2008D01*
X3325Y2008D02*
X3332Y2008D01*
X0Y2007D02*
X7Y2007D01*
X501Y2007D02*
X554Y2007D01*
X3325Y2007D02*
X3332Y2007D01*
X0Y2006D02*
X7Y2006D01*
X501Y2006D02*
X554Y2006D01*
X3325Y2006D02*
X3332Y2006D01*
X0Y2005D02*
X7Y2005D01*
X501Y2005D02*
X554Y2005D01*
X3325Y2005D02*
X3332Y2005D01*
X0Y2004D02*
X7Y2004D01*
X501Y2004D02*
X554Y2004D01*
X3325Y2004D02*
X3332Y2004D01*
X0Y2003D02*
X7Y2003D01*
X501Y2003D02*
X507Y2003D01*
X548Y2003D02*
X554Y2003D01*
X3325Y2003D02*
X3332Y2003D01*
X0Y2002D02*
X7Y2002D01*
X501Y2002D02*
X507Y2002D01*
X548Y2002D02*
X554Y2002D01*
X3325Y2002D02*
X3332Y2002D01*
X0Y2001D02*
X7Y2001D01*
X501Y2001D02*
X507Y2001D01*
X548Y2001D02*
X554Y2001D01*
X3325Y2001D02*
X3332Y2001D01*
X0Y2000D02*
X7Y2000D01*
X501Y2000D02*
X507Y2000D01*
X548Y2000D02*
X554Y2000D01*
X3325Y2000D02*
X3332Y2000D01*
X0Y1999D02*
X7Y1999D01*
X501Y1999D02*
X507Y1999D01*
X548Y1999D02*
X554Y1999D01*
X3325Y1999D02*
X3332Y1999D01*
X0Y1998D02*
X7Y1998D01*
X501Y1998D02*
X507Y1998D01*
X548Y1998D02*
X554Y1998D01*
X3325Y1998D02*
X3332Y1998D01*
X0Y1997D02*
X7Y1997D01*
X501Y1997D02*
X507Y1997D01*
X548Y1997D02*
X554Y1997D01*
X3325Y1997D02*
X3332Y1997D01*
X0Y1996D02*
X7Y1996D01*
X501Y1996D02*
X507Y1996D01*
X548Y1996D02*
X554Y1996D01*
X3325Y1996D02*
X3332Y1996D01*
X0Y1995D02*
X7Y1995D01*
X501Y1995D02*
X507Y1995D01*
X548Y1995D02*
X554Y1995D01*
X3325Y1995D02*
X3332Y1995D01*
X0Y1994D02*
X7Y1994D01*
X501Y1994D02*
X507Y1994D01*
X548Y1994D02*
X554Y1994D01*
X3325Y1994D02*
X3332Y1994D01*
X0Y1993D02*
X7Y1993D01*
X501Y1993D02*
X507Y1993D01*
X548Y1993D02*
X554Y1993D01*
X3325Y1993D02*
X3332Y1993D01*
X0Y1992D02*
X7Y1992D01*
X502Y1992D02*
X507Y1992D01*
X549Y1992D02*
X554Y1992D01*
X3325Y1992D02*
X3332Y1992D01*
X0Y1991D02*
X7Y1991D01*
X502Y1991D02*
X506Y1991D01*
X550Y1991D02*
X553Y1991D01*
X3325Y1991D02*
X3332Y1991D01*
X0Y1990D02*
X7Y1990D01*
X3325Y1990D02*
X3332Y1990D01*
X0Y1989D02*
X7Y1989D01*
X3325Y1989D02*
X3332Y1989D01*
X0Y1988D02*
X7Y1988D01*
X3325Y1988D02*
X3332Y1988D01*
X0Y1987D02*
X7Y1987D01*
X3325Y1987D02*
X3332Y1987D01*
X0Y1986D02*
X7Y1986D01*
X3325Y1986D02*
X3332Y1986D01*
X0Y1985D02*
X7Y1985D01*
X3325Y1985D02*
X3332Y1985D01*
X0Y1984D02*
X7Y1984D01*
X3325Y1984D02*
X3332Y1984D01*
X0Y1983D02*
X7Y1983D01*
X3325Y1983D02*
X3332Y1983D01*
X0Y1982D02*
X7Y1982D01*
X3325Y1982D02*
X3332Y1982D01*
X0Y1981D02*
X7Y1981D01*
X3325Y1981D02*
X3332Y1981D01*
X0Y1980D02*
X7Y1980D01*
X3325Y1980D02*
X3332Y1980D01*
X0Y1979D02*
X7Y1979D01*
X3325Y1979D02*
X3332Y1979D01*
X0Y1978D02*
X7Y1978D01*
X3325Y1978D02*
X3332Y1978D01*
X0Y1977D02*
X7Y1977D01*
X3325Y1977D02*
X3332Y1977D01*
X0Y1976D02*
X7Y1976D01*
X3325Y1976D02*
X3332Y1976D01*
X0Y1975D02*
X7Y1975D01*
X3325Y1975D02*
X3332Y1975D01*
X0Y1974D02*
X7Y1974D01*
X3325Y1974D02*
X3332Y1974D01*
X0Y1973D02*
X7Y1973D01*
X3325Y1973D02*
X3332Y1973D01*
X0Y1972D02*
X7Y1972D01*
X3325Y1972D02*
X3332Y1972D01*
X0Y1971D02*
X7Y1971D01*
X504Y1971D02*
X546Y1971D01*
X3325Y1971D02*
X3332Y1971D01*
X0Y1970D02*
X7Y1970D01*
X502Y1970D02*
X549Y1970D01*
X3325Y1970D02*
X3332Y1970D01*
X0Y1969D02*
X7Y1969D01*
X501Y1969D02*
X550Y1969D01*
X3325Y1969D02*
X3332Y1969D01*
X0Y1968D02*
X7Y1968D01*
X501Y1968D02*
X551Y1968D01*
X3325Y1968D02*
X3332Y1968D01*
X0Y1967D02*
X7Y1967D01*
X501Y1967D02*
X552Y1967D01*
X3325Y1967D02*
X3332Y1967D01*
X0Y1966D02*
X7Y1966D01*
X502Y1966D02*
X553Y1966D01*
X3325Y1966D02*
X3332Y1966D01*
X0Y1965D02*
X7Y1965D01*
X502Y1965D02*
X553Y1965D01*
X3325Y1965D02*
X3332Y1965D01*
X0Y1964D02*
X7Y1964D01*
X546Y1964D02*
X554Y1964D01*
X3325Y1964D02*
X3332Y1964D01*
X0Y1963D02*
X7Y1963D01*
X547Y1963D02*
X554Y1963D01*
X3325Y1963D02*
X3332Y1963D01*
X0Y1962D02*
X7Y1962D01*
X548Y1962D02*
X554Y1962D01*
X3325Y1962D02*
X3332Y1962D01*
X0Y1961D02*
X7Y1961D01*
X548Y1961D02*
X554Y1961D01*
X3325Y1961D02*
X3332Y1961D01*
X0Y1960D02*
X7Y1960D01*
X548Y1960D02*
X554Y1960D01*
X3325Y1960D02*
X3332Y1960D01*
X0Y1959D02*
X7Y1959D01*
X548Y1959D02*
X554Y1959D01*
X3325Y1959D02*
X3332Y1959D01*
X0Y1958D02*
X7Y1958D01*
X548Y1958D02*
X554Y1958D01*
X3325Y1958D02*
X3332Y1958D01*
X0Y1957D02*
X7Y1957D01*
X548Y1957D02*
X554Y1957D01*
X3325Y1957D02*
X3332Y1957D01*
X0Y1956D02*
X7Y1956D01*
X548Y1956D02*
X554Y1956D01*
X3325Y1956D02*
X3332Y1956D01*
X0Y1955D02*
X7Y1955D01*
X548Y1955D02*
X554Y1955D01*
X3325Y1955D02*
X3332Y1955D01*
X0Y1954D02*
X7Y1954D01*
X548Y1954D02*
X554Y1954D01*
X3325Y1954D02*
X3332Y1954D01*
X0Y1953D02*
X7Y1953D01*
X548Y1953D02*
X554Y1953D01*
X3325Y1953D02*
X3332Y1953D01*
X0Y1952D02*
X7Y1952D01*
X548Y1952D02*
X554Y1952D01*
X3325Y1952D02*
X3332Y1952D01*
X0Y1951D02*
X7Y1951D01*
X546Y1951D02*
X554Y1951D01*
X3325Y1951D02*
X3332Y1951D01*
X0Y1950D02*
X7Y1950D01*
X532Y1950D02*
X553Y1950D01*
X3325Y1950D02*
X3332Y1950D01*
X0Y1949D02*
X7Y1949D01*
X531Y1949D02*
X553Y1949D01*
X3325Y1949D02*
X3332Y1949D01*
X0Y1948D02*
X7Y1948D01*
X531Y1948D02*
X552Y1948D01*
X3325Y1948D02*
X3332Y1948D01*
X0Y1947D02*
X7Y1947D01*
X531Y1947D02*
X552Y1947D01*
X3325Y1947D02*
X3332Y1947D01*
X0Y1946D02*
X7Y1946D01*
X531Y1946D02*
X550Y1946D01*
X3325Y1946D02*
X3332Y1946D01*
X0Y1945D02*
X7Y1945D01*
X531Y1945D02*
X549Y1945D01*
X3325Y1945D02*
X3332Y1945D01*
X0Y1944D02*
X7Y1944D01*
X532Y1944D02*
X547Y1944D01*
X3325Y1944D02*
X3332Y1944D01*
X0Y1943D02*
X7Y1943D01*
X3325Y1943D02*
X3332Y1943D01*
X0Y1942D02*
X7Y1942D01*
X3325Y1942D02*
X3332Y1942D01*
X0Y1941D02*
X7Y1941D01*
X3325Y1941D02*
X3332Y1941D01*
X0Y1940D02*
X7Y1940D01*
X3325Y1940D02*
X3332Y1940D01*
X0Y1939D02*
X7Y1939D01*
X3325Y1939D02*
X3332Y1939D01*
X0Y1938D02*
X7Y1938D01*
X3325Y1938D02*
X3332Y1938D01*
X0Y1937D02*
X7Y1937D01*
X3325Y1937D02*
X3332Y1937D01*
X0Y1936D02*
X7Y1936D01*
X3325Y1936D02*
X3332Y1936D01*
X0Y1935D02*
X7Y1935D01*
X3325Y1935D02*
X3332Y1935D01*
X0Y1934D02*
X7Y1934D01*
X3325Y1934D02*
X3332Y1934D01*
X0Y1933D02*
X7Y1933D01*
X3325Y1933D02*
X3332Y1933D01*
X0Y1932D02*
X7Y1932D01*
X3325Y1932D02*
X3332Y1932D01*
X0Y1931D02*
X7Y1931D01*
X3325Y1931D02*
X3332Y1931D01*
X0Y1930D02*
X7Y1930D01*
X3325Y1930D02*
X3332Y1930D01*
X0Y1929D02*
X7Y1929D01*
X3325Y1929D02*
X3332Y1929D01*
X0Y1928D02*
X7Y1928D01*
X3325Y1928D02*
X3332Y1928D01*
X0Y1927D02*
X7Y1927D01*
X3325Y1927D02*
X3332Y1927D01*
X0Y1926D02*
X7Y1926D01*
X3325Y1926D02*
X3332Y1926D01*
X0Y1925D02*
X7Y1925D01*
X3325Y1925D02*
X3332Y1925D01*
X0Y1924D02*
X7Y1924D01*
X3325Y1924D02*
X3332Y1924D01*
X0Y1923D02*
X7Y1923D01*
X3325Y1923D02*
X3332Y1923D01*
X0Y1922D02*
X7Y1922D01*
X3325Y1922D02*
X3332Y1922D01*
X0Y1921D02*
X7Y1921D01*
X3325Y1921D02*
X3332Y1921D01*
X0Y1920D02*
X7Y1920D01*
X3325Y1920D02*
X3332Y1920D01*
X0Y1919D02*
X7Y1919D01*
X3325Y1919D02*
X3332Y1919D01*
X0Y1918D02*
X7Y1918D01*
X3325Y1918D02*
X3332Y1918D01*
X0Y1917D02*
X7Y1917D01*
X3325Y1917D02*
X3332Y1917D01*
X0Y1916D02*
X7Y1916D01*
X3325Y1916D02*
X3332Y1916D01*
X0Y1915D02*
X7Y1915D01*
X3325Y1915D02*
X3332Y1915D01*
X0Y1914D02*
X7Y1914D01*
X3325Y1914D02*
X3332Y1914D01*
X0Y1913D02*
X7Y1913D01*
X2880Y1913D02*
X2880Y1913D01*
X3325Y1913D02*
X3332Y1913D01*
X0Y1912D02*
X7Y1912D01*
X2879Y1912D02*
X2881Y1912D01*
X3325Y1912D02*
X3332Y1912D01*
X0Y1911D02*
X7Y1911D01*
X2878Y1911D02*
X2882Y1911D01*
X3325Y1911D02*
X3332Y1911D01*
X0Y1910D02*
X7Y1910D01*
X2878Y1910D02*
X2883Y1910D01*
X3325Y1910D02*
X3332Y1910D01*
X0Y1909D02*
X7Y1909D01*
X2878Y1909D02*
X2884Y1909D01*
X3325Y1909D02*
X3332Y1909D01*
X0Y1908D02*
X7Y1908D01*
X2879Y1908D02*
X2885Y1908D01*
X3325Y1908D02*
X3332Y1908D01*
X0Y1907D02*
X7Y1907D01*
X2880Y1907D02*
X2886Y1907D01*
X3325Y1907D02*
X3332Y1907D01*
X0Y1906D02*
X7Y1906D01*
X2881Y1906D02*
X2887Y1906D01*
X3325Y1906D02*
X3332Y1906D01*
X0Y1905D02*
X7Y1905D01*
X2882Y1905D02*
X2888Y1905D01*
X3325Y1905D02*
X3332Y1905D01*
X0Y1904D02*
X7Y1904D01*
X2883Y1904D02*
X2889Y1904D01*
X3325Y1904D02*
X3332Y1904D01*
X0Y1903D02*
X7Y1903D01*
X2884Y1903D02*
X2890Y1903D01*
X3325Y1903D02*
X3332Y1903D01*
X0Y1902D02*
X7Y1902D01*
X2885Y1902D02*
X2891Y1902D01*
X3325Y1902D02*
X3332Y1902D01*
X0Y1901D02*
X7Y1901D01*
X2886Y1901D02*
X2892Y1901D01*
X3325Y1901D02*
X3332Y1901D01*
X0Y1900D02*
X7Y1900D01*
X2887Y1900D02*
X2893Y1900D01*
X3325Y1900D02*
X3332Y1900D01*
X0Y1899D02*
X7Y1899D01*
X2888Y1899D02*
X2894Y1899D01*
X3325Y1899D02*
X3332Y1899D01*
X0Y1898D02*
X7Y1898D01*
X2889Y1898D02*
X2895Y1898D01*
X3325Y1898D02*
X3332Y1898D01*
X0Y1897D02*
X7Y1897D01*
X2890Y1897D02*
X2896Y1897D01*
X3325Y1897D02*
X3332Y1897D01*
X0Y1896D02*
X7Y1896D01*
X2891Y1896D02*
X2897Y1896D01*
X3325Y1896D02*
X3332Y1896D01*
X0Y1895D02*
X7Y1895D01*
X2893Y1895D02*
X2898Y1895D01*
X3325Y1895D02*
X3332Y1895D01*
X0Y1894D02*
X7Y1894D01*
X2894Y1894D02*
X2899Y1894D01*
X3325Y1894D02*
X3332Y1894D01*
X0Y1893D02*
X7Y1893D01*
X2895Y1893D02*
X2900Y1893D01*
X3325Y1893D02*
X3332Y1893D01*
X0Y1892D02*
X7Y1892D01*
X2896Y1892D02*
X2901Y1892D01*
X3325Y1892D02*
X3332Y1892D01*
X0Y1891D02*
X7Y1891D01*
X2897Y1891D02*
X2902Y1891D01*
X3325Y1891D02*
X3332Y1891D01*
X0Y1890D02*
X7Y1890D01*
X2898Y1890D02*
X2903Y1890D01*
X3325Y1890D02*
X3332Y1890D01*
X0Y1889D02*
X7Y1889D01*
X2898Y1889D02*
X2904Y1889D01*
X3325Y1889D02*
X3332Y1889D01*
X0Y1888D02*
X7Y1888D01*
X2899Y1888D02*
X2905Y1888D01*
X3325Y1888D02*
X3332Y1888D01*
X0Y1887D02*
X7Y1887D01*
X2900Y1887D02*
X2906Y1887D01*
X3325Y1887D02*
X3332Y1887D01*
X0Y1886D02*
X7Y1886D01*
X2901Y1886D02*
X2907Y1886D01*
X3325Y1886D02*
X3332Y1886D01*
X0Y1885D02*
X7Y1885D01*
X2902Y1885D02*
X2908Y1885D01*
X3325Y1885D02*
X3332Y1885D01*
X0Y1884D02*
X7Y1884D01*
X2903Y1884D02*
X2909Y1884D01*
X3325Y1884D02*
X3332Y1884D01*
X0Y1883D02*
X7Y1883D01*
X2904Y1883D02*
X2910Y1883D01*
X3325Y1883D02*
X3332Y1883D01*
X0Y1882D02*
X7Y1882D01*
X2905Y1882D02*
X2911Y1882D01*
X3325Y1882D02*
X3332Y1882D01*
X0Y1881D02*
X7Y1881D01*
X2906Y1881D02*
X2912Y1881D01*
X3325Y1881D02*
X3332Y1881D01*
X0Y1880D02*
X7Y1880D01*
X2907Y1880D02*
X2913Y1880D01*
X3325Y1880D02*
X3332Y1880D01*
X0Y1879D02*
X7Y1879D01*
X2908Y1879D02*
X2914Y1879D01*
X3325Y1879D02*
X3332Y1879D01*
X0Y1878D02*
X7Y1878D01*
X2909Y1878D02*
X2914Y1878D01*
X3325Y1878D02*
X3332Y1878D01*
X0Y1877D02*
X7Y1877D01*
X2910Y1877D02*
X2913Y1877D01*
X3325Y1877D02*
X3332Y1877D01*
X0Y1876D02*
X7Y1876D01*
X2911Y1876D02*
X2912Y1876D01*
X3325Y1876D02*
X3332Y1876D01*
X0Y1875D02*
X7Y1875D01*
X3325Y1875D02*
X3332Y1875D01*
X0Y1874D02*
X7Y1874D01*
X3325Y1874D02*
X3332Y1874D01*
X0Y1873D02*
X7Y1873D01*
X3325Y1873D02*
X3332Y1873D01*
X0Y1872D02*
X7Y1872D01*
X3325Y1872D02*
X3332Y1872D01*
X0Y1871D02*
X7Y1871D01*
X3325Y1871D02*
X3332Y1871D01*
X0Y1870D02*
X7Y1870D01*
X3325Y1870D02*
X3332Y1870D01*
X0Y1869D02*
X7Y1869D01*
X3325Y1869D02*
X3332Y1869D01*
X0Y1868D02*
X7Y1868D01*
X3325Y1868D02*
X3332Y1868D01*
X0Y1867D02*
X7Y1867D01*
X3325Y1867D02*
X3332Y1867D01*
X0Y1866D02*
X7Y1866D01*
X3325Y1866D02*
X3332Y1866D01*
X0Y1865D02*
X7Y1865D01*
X3325Y1865D02*
X3332Y1865D01*
X0Y1864D02*
X7Y1864D01*
X3325Y1864D02*
X3332Y1864D01*
X0Y1863D02*
X7Y1863D01*
X3325Y1863D02*
X3332Y1863D01*
X0Y1862D02*
X7Y1862D01*
X3325Y1862D02*
X3332Y1862D01*
X0Y1861D02*
X7Y1861D01*
X3325Y1861D02*
X3332Y1861D01*
X0Y1860D02*
X7Y1860D01*
X3325Y1860D02*
X3332Y1860D01*
X0Y1859D02*
X7Y1859D01*
X3325Y1859D02*
X3332Y1859D01*
X0Y1858D02*
X7Y1858D01*
X3325Y1858D02*
X3332Y1858D01*
X0Y1857D02*
X7Y1857D01*
X3325Y1857D02*
X3332Y1857D01*
X0Y1856D02*
X7Y1856D01*
X3325Y1856D02*
X3332Y1856D01*
X0Y1855D02*
X7Y1855D01*
X3325Y1855D02*
X3332Y1855D01*
X0Y1854D02*
X7Y1854D01*
X3325Y1854D02*
X3332Y1854D01*
X0Y1853D02*
X7Y1853D01*
X3325Y1853D02*
X3332Y1853D01*
X0Y1852D02*
X7Y1852D01*
X3325Y1852D02*
X3332Y1852D01*
X0Y1851D02*
X7Y1851D01*
X3325Y1851D02*
X3332Y1851D01*
X0Y1850D02*
X7Y1850D01*
X3325Y1850D02*
X3332Y1850D01*
X0Y1849D02*
X7Y1849D01*
X3325Y1849D02*
X3332Y1849D01*
X0Y1848D02*
X7Y1848D01*
X505Y1848D02*
X525Y1848D01*
X550Y1848D02*
X551Y1848D01*
X602Y1848D02*
X603Y1848D01*
X3325Y1848D02*
X3332Y1848D01*
X0Y1847D02*
X7Y1847D01*
X503Y1847D02*
X527Y1847D01*
X548Y1847D02*
X552Y1847D01*
X601Y1847D02*
X604Y1847D01*
X3325Y1847D02*
X3332Y1847D01*
X0Y1846D02*
X7Y1846D01*
X502Y1846D02*
X528Y1846D01*
X548Y1846D02*
X553Y1846D01*
X600Y1846D02*
X605Y1846D01*
X3325Y1846D02*
X3332Y1846D01*
X0Y1845D02*
X7Y1845D01*
X501Y1845D02*
X529Y1845D01*
X547Y1845D02*
X553Y1845D01*
X600Y1845D02*
X606Y1845D01*
X3325Y1845D02*
X3332Y1845D01*
X0Y1844D02*
X7Y1844D01*
X501Y1844D02*
X529Y1844D01*
X547Y1844D02*
X553Y1844D01*
X601Y1844D02*
X607Y1844D01*
X3325Y1844D02*
X3332Y1844D01*
X0Y1843D02*
X7Y1843D01*
X500Y1843D02*
X530Y1843D01*
X547Y1843D02*
X553Y1843D01*
X602Y1843D02*
X608Y1843D01*
X3325Y1843D02*
X3332Y1843D01*
X0Y1842D02*
X7Y1842D01*
X500Y1842D02*
X530Y1842D01*
X547Y1842D02*
X553Y1842D01*
X603Y1842D02*
X609Y1842D01*
X3325Y1842D02*
X3332Y1842D01*
X0Y1841D02*
X7Y1841D01*
X500Y1841D02*
X506Y1841D01*
X524Y1841D02*
X530Y1841D01*
X547Y1841D02*
X553Y1841D01*
X604Y1841D02*
X610Y1841D01*
X3325Y1841D02*
X3332Y1841D01*
X0Y1840D02*
X7Y1840D01*
X500Y1840D02*
X506Y1840D01*
X524Y1840D02*
X530Y1840D01*
X547Y1840D02*
X553Y1840D01*
X605Y1840D02*
X611Y1840D01*
X3325Y1840D02*
X3332Y1840D01*
X0Y1839D02*
X7Y1839D01*
X500Y1839D02*
X506Y1839D01*
X524Y1839D02*
X530Y1839D01*
X547Y1839D02*
X553Y1839D01*
X606Y1839D02*
X612Y1839D01*
X3325Y1839D02*
X3332Y1839D01*
X0Y1838D02*
X7Y1838D01*
X500Y1838D02*
X506Y1838D01*
X524Y1838D02*
X530Y1838D01*
X547Y1838D02*
X553Y1838D01*
X607Y1838D02*
X613Y1838D01*
X3325Y1838D02*
X3332Y1838D01*
X0Y1837D02*
X7Y1837D01*
X500Y1837D02*
X506Y1837D01*
X524Y1837D02*
X530Y1837D01*
X547Y1837D02*
X553Y1837D01*
X608Y1837D02*
X614Y1837D01*
X3325Y1837D02*
X3332Y1837D01*
X0Y1836D02*
X7Y1836D01*
X500Y1836D02*
X506Y1836D01*
X524Y1836D02*
X530Y1836D01*
X547Y1836D02*
X553Y1836D01*
X609Y1836D02*
X615Y1836D01*
X3325Y1836D02*
X3332Y1836D01*
X0Y1835D02*
X7Y1835D01*
X500Y1835D02*
X506Y1835D01*
X524Y1835D02*
X530Y1835D01*
X547Y1835D02*
X553Y1835D01*
X610Y1835D02*
X616Y1835D01*
X3325Y1835D02*
X3332Y1835D01*
X0Y1834D02*
X7Y1834D01*
X500Y1834D02*
X506Y1834D01*
X524Y1834D02*
X530Y1834D01*
X547Y1834D02*
X553Y1834D01*
X611Y1834D02*
X616Y1834D01*
X3325Y1834D02*
X3332Y1834D01*
X0Y1833D02*
X7Y1833D01*
X500Y1833D02*
X506Y1833D01*
X524Y1833D02*
X530Y1833D01*
X547Y1833D02*
X553Y1833D01*
X612Y1833D02*
X617Y1833D01*
X3325Y1833D02*
X3332Y1833D01*
X0Y1832D02*
X7Y1832D01*
X500Y1832D02*
X506Y1832D01*
X524Y1832D02*
X530Y1832D01*
X547Y1832D02*
X553Y1832D01*
X613Y1832D02*
X618Y1832D01*
X3325Y1832D02*
X3332Y1832D01*
X0Y1831D02*
X7Y1831D01*
X500Y1831D02*
X506Y1831D01*
X524Y1831D02*
X530Y1831D01*
X547Y1831D02*
X553Y1831D01*
X614Y1831D02*
X619Y1831D01*
X3325Y1831D02*
X3332Y1831D01*
X0Y1830D02*
X7Y1830D01*
X500Y1830D02*
X506Y1830D01*
X524Y1830D02*
X530Y1830D01*
X547Y1830D02*
X553Y1830D01*
X615Y1830D02*
X620Y1830D01*
X3325Y1830D02*
X3332Y1830D01*
X0Y1829D02*
X7Y1829D01*
X500Y1829D02*
X506Y1829D01*
X524Y1829D02*
X530Y1829D01*
X547Y1829D02*
X553Y1829D01*
X616Y1829D02*
X621Y1829D01*
X3325Y1829D02*
X3332Y1829D01*
X0Y1828D02*
X7Y1828D01*
X500Y1828D02*
X506Y1828D01*
X524Y1828D02*
X530Y1828D01*
X547Y1828D02*
X553Y1828D01*
X617Y1828D02*
X622Y1828D01*
X3325Y1828D02*
X3332Y1828D01*
X0Y1827D02*
X7Y1827D01*
X500Y1827D02*
X506Y1827D01*
X524Y1827D02*
X530Y1827D01*
X547Y1827D02*
X553Y1827D01*
X618Y1827D02*
X624Y1827D01*
X3325Y1827D02*
X3332Y1827D01*
X0Y1826D02*
X7Y1826D01*
X500Y1826D02*
X506Y1826D01*
X524Y1826D02*
X530Y1826D01*
X547Y1826D02*
X553Y1826D01*
X619Y1826D02*
X625Y1826D01*
X3325Y1826D02*
X3332Y1826D01*
X0Y1825D02*
X7Y1825D01*
X500Y1825D02*
X506Y1825D01*
X524Y1825D02*
X530Y1825D01*
X547Y1825D02*
X553Y1825D01*
X620Y1825D02*
X626Y1825D01*
X3325Y1825D02*
X3332Y1825D01*
X0Y1824D02*
X7Y1824D01*
X500Y1824D02*
X506Y1824D01*
X524Y1824D02*
X530Y1824D01*
X547Y1824D02*
X553Y1824D01*
X621Y1824D02*
X627Y1824D01*
X3325Y1824D02*
X3332Y1824D01*
X0Y1823D02*
X7Y1823D01*
X500Y1823D02*
X506Y1823D01*
X524Y1823D02*
X530Y1823D01*
X547Y1823D02*
X553Y1823D01*
X622Y1823D02*
X628Y1823D01*
X3325Y1823D02*
X3332Y1823D01*
X0Y1822D02*
X7Y1822D01*
X500Y1822D02*
X506Y1822D01*
X524Y1822D02*
X530Y1822D01*
X547Y1822D02*
X553Y1822D01*
X623Y1822D02*
X629Y1822D01*
X3325Y1822D02*
X3332Y1822D01*
X0Y1821D02*
X7Y1821D01*
X500Y1821D02*
X506Y1821D01*
X524Y1821D02*
X530Y1821D01*
X547Y1821D02*
X553Y1821D01*
X624Y1821D02*
X630Y1821D01*
X3325Y1821D02*
X3332Y1821D01*
X0Y1820D02*
X7Y1820D01*
X500Y1820D02*
X506Y1820D01*
X524Y1820D02*
X553Y1820D01*
X625Y1820D02*
X631Y1820D01*
X3325Y1820D02*
X3332Y1820D01*
X0Y1819D02*
X7Y1819D01*
X500Y1819D02*
X506Y1819D01*
X524Y1819D02*
X553Y1819D01*
X626Y1819D02*
X632Y1819D01*
X3325Y1819D02*
X3332Y1819D01*
X0Y1818D02*
X7Y1818D01*
X500Y1818D02*
X506Y1818D01*
X524Y1818D02*
X553Y1818D01*
X627Y1818D02*
X633Y1818D01*
X3325Y1818D02*
X3332Y1818D01*
X0Y1817D02*
X7Y1817D01*
X500Y1817D02*
X506Y1817D01*
X525Y1817D02*
X553Y1817D01*
X628Y1817D02*
X634Y1817D01*
X3325Y1817D02*
X3332Y1817D01*
X0Y1816D02*
X7Y1816D01*
X500Y1816D02*
X506Y1816D01*
X526Y1816D02*
X553Y1816D01*
X629Y1816D02*
X635Y1816D01*
X3325Y1816D02*
X3332Y1816D01*
X0Y1815D02*
X7Y1815D01*
X501Y1815D02*
X505Y1815D01*
X527Y1815D02*
X553Y1815D01*
X630Y1815D02*
X636Y1815D01*
X3325Y1815D02*
X3332Y1815D01*
X0Y1814D02*
X7Y1814D01*
X502Y1814D02*
X504Y1814D01*
X529Y1814D02*
X553Y1814D01*
X631Y1814D02*
X636Y1814D01*
X3325Y1814D02*
X3332Y1814D01*
X0Y1813D02*
X7Y1813D01*
X632Y1813D02*
X636Y1813D01*
X3325Y1813D02*
X3332Y1813D01*
X0Y1812D02*
X7Y1812D01*
X633Y1812D02*
X635Y1812D01*
X3325Y1812D02*
X3332Y1812D01*
X0Y1811D02*
X7Y1811D01*
X634Y1811D02*
X634Y1811D01*
X3325Y1811D02*
X3332Y1811D01*
X0Y1810D02*
X7Y1810D01*
X3325Y1810D02*
X3332Y1810D01*
X0Y1809D02*
X7Y1809D01*
X3325Y1809D02*
X3332Y1809D01*
X0Y1808D02*
X7Y1808D01*
X3325Y1808D02*
X3332Y1808D01*
X0Y1807D02*
X7Y1807D01*
X3325Y1807D02*
X3332Y1807D01*
X0Y1806D02*
X7Y1806D01*
X3325Y1806D02*
X3332Y1806D01*
X0Y1805D02*
X7Y1805D01*
X3325Y1805D02*
X3332Y1805D01*
X0Y1804D02*
X7Y1804D01*
X3325Y1804D02*
X3332Y1804D01*
X0Y1803D02*
X7Y1803D01*
X3325Y1803D02*
X3332Y1803D01*
X0Y1802D02*
X7Y1802D01*
X3325Y1802D02*
X3332Y1802D01*
X0Y1801D02*
X7Y1801D01*
X3325Y1801D02*
X3332Y1801D01*
X0Y1800D02*
X7Y1800D01*
X3325Y1800D02*
X3332Y1800D01*
X0Y1799D02*
X7Y1799D01*
X3325Y1799D02*
X3332Y1799D01*
X0Y1798D02*
X7Y1798D01*
X3325Y1798D02*
X3332Y1798D01*
X0Y1797D02*
X7Y1797D01*
X3325Y1797D02*
X3332Y1797D01*
X0Y1796D02*
X7Y1796D01*
X3325Y1796D02*
X3332Y1796D01*
X0Y1795D02*
X7Y1795D01*
X3325Y1795D02*
X3332Y1795D01*
X0Y1794D02*
X7Y1794D01*
X502Y1794D02*
X547Y1794D01*
X3325Y1794D02*
X3332Y1794D01*
X0Y1793D02*
X7Y1793D01*
X501Y1793D02*
X549Y1793D01*
X3325Y1793D02*
X3332Y1793D01*
X0Y1792D02*
X7Y1792D01*
X500Y1792D02*
X550Y1792D01*
X3325Y1792D02*
X3332Y1792D01*
X0Y1791D02*
X7Y1791D01*
X500Y1791D02*
X551Y1791D01*
X3325Y1791D02*
X3332Y1791D01*
X0Y1790D02*
X7Y1790D01*
X500Y1790D02*
X552Y1790D01*
X3325Y1790D02*
X3332Y1790D01*
X0Y1789D02*
X7Y1789D01*
X501Y1789D02*
X552Y1789D01*
X3325Y1789D02*
X3332Y1789D01*
X0Y1788D02*
X7Y1788D01*
X503Y1788D02*
X553Y1788D01*
X3325Y1788D02*
X3332Y1788D01*
X0Y1787D02*
X7Y1787D01*
X546Y1787D02*
X553Y1787D01*
X3325Y1787D02*
X3332Y1787D01*
X0Y1786D02*
X7Y1786D01*
X547Y1786D02*
X553Y1786D01*
X3325Y1786D02*
X3332Y1786D01*
X0Y1785D02*
X7Y1785D01*
X547Y1785D02*
X553Y1785D01*
X3325Y1785D02*
X3332Y1785D01*
X0Y1784D02*
X7Y1784D01*
X547Y1784D02*
X553Y1784D01*
X3325Y1784D02*
X3332Y1784D01*
X0Y1783D02*
X7Y1783D01*
X547Y1783D02*
X553Y1783D01*
X3325Y1783D02*
X3332Y1783D01*
X0Y1782D02*
X7Y1782D01*
X547Y1782D02*
X553Y1782D01*
X3325Y1782D02*
X3332Y1782D01*
X0Y1781D02*
X7Y1781D01*
X547Y1781D02*
X553Y1781D01*
X3325Y1781D02*
X3332Y1781D01*
X0Y1780D02*
X7Y1780D01*
X547Y1780D02*
X553Y1780D01*
X2968Y1780D02*
X2981Y1780D01*
X3325Y1780D02*
X3332Y1780D01*
X0Y1779D02*
X7Y1779D01*
X547Y1779D02*
X553Y1779D01*
X2965Y1779D02*
X2983Y1779D01*
X3325Y1779D02*
X3332Y1779D01*
X0Y1778D02*
X7Y1778D01*
X547Y1778D02*
X553Y1778D01*
X2964Y1778D02*
X2983Y1778D01*
X3325Y1778D02*
X3332Y1778D01*
X0Y1777D02*
X7Y1777D01*
X547Y1777D02*
X553Y1777D01*
X2963Y1777D02*
X2983Y1777D01*
X3325Y1777D02*
X3332Y1777D01*
X0Y1776D02*
X7Y1776D01*
X547Y1776D02*
X553Y1776D01*
X2962Y1776D02*
X2983Y1776D01*
X3325Y1776D02*
X3332Y1776D01*
X0Y1775D02*
X7Y1775D01*
X546Y1775D02*
X553Y1775D01*
X2961Y1775D02*
X2983Y1775D01*
X3325Y1775D02*
X3332Y1775D01*
X0Y1774D02*
X7Y1774D01*
X532Y1774D02*
X553Y1774D01*
X2961Y1774D02*
X2982Y1774D01*
X3325Y1774D02*
X3332Y1774D01*
X0Y1773D02*
X7Y1773D01*
X531Y1773D02*
X552Y1773D01*
X2960Y1773D02*
X2968Y1773D01*
X3325Y1773D02*
X3332Y1773D01*
X0Y1772D02*
X7Y1772D01*
X530Y1772D02*
X552Y1772D01*
X2960Y1772D02*
X2967Y1772D01*
X3325Y1772D02*
X3332Y1772D01*
X0Y1771D02*
X7Y1771D01*
X530Y1771D02*
X551Y1771D01*
X2960Y1771D02*
X2966Y1771D01*
X3325Y1771D02*
X3332Y1771D01*
X0Y1770D02*
X7Y1770D01*
X530Y1770D02*
X550Y1770D01*
X2960Y1770D02*
X2966Y1770D01*
X3325Y1770D02*
X3332Y1770D01*
X0Y1769D02*
X7Y1769D01*
X530Y1769D02*
X549Y1769D01*
X2960Y1769D02*
X2966Y1769D01*
X3325Y1769D02*
X3332Y1769D01*
X0Y1768D02*
X7Y1768D01*
X531Y1768D02*
X547Y1768D01*
X2960Y1768D02*
X2966Y1768D01*
X3325Y1768D02*
X3332Y1768D01*
X0Y1767D02*
X7Y1767D01*
X2960Y1767D02*
X2966Y1767D01*
X3325Y1767D02*
X3332Y1767D01*
X0Y1766D02*
X7Y1766D01*
X2960Y1766D02*
X2966Y1766D01*
X3325Y1766D02*
X3332Y1766D01*
X0Y1765D02*
X7Y1765D01*
X2960Y1765D02*
X2966Y1765D01*
X3325Y1765D02*
X3332Y1765D01*
X0Y1764D02*
X7Y1764D01*
X2960Y1764D02*
X2966Y1764D01*
X3325Y1764D02*
X3332Y1764D01*
X0Y1763D02*
X7Y1763D01*
X2960Y1763D02*
X2966Y1763D01*
X3325Y1763D02*
X3332Y1763D01*
X0Y1762D02*
X7Y1762D01*
X2960Y1762D02*
X2966Y1762D01*
X3325Y1762D02*
X3332Y1762D01*
X0Y1761D02*
X7Y1761D01*
X2960Y1761D02*
X2967Y1761D01*
X3325Y1761D02*
X3332Y1761D01*
X0Y1760D02*
X7Y1760D01*
X2960Y1760D02*
X2968Y1760D01*
X3325Y1760D02*
X3332Y1760D01*
X0Y1759D02*
X7Y1759D01*
X2961Y1759D02*
X3011Y1759D01*
X3325Y1759D02*
X3332Y1759D01*
X0Y1758D02*
X7Y1758D01*
X2961Y1758D02*
X3012Y1758D01*
X3325Y1758D02*
X3332Y1758D01*
X0Y1757D02*
X7Y1757D01*
X2962Y1757D02*
X3013Y1757D01*
X3325Y1757D02*
X3332Y1757D01*
X0Y1756D02*
X7Y1756D01*
X2963Y1756D02*
X3013Y1756D01*
X3325Y1756D02*
X3332Y1756D01*
X0Y1755D02*
X7Y1755D01*
X2964Y1755D02*
X3013Y1755D01*
X3325Y1755D02*
X3332Y1755D01*
X0Y1754D02*
X7Y1754D01*
X2965Y1754D02*
X3012Y1754D01*
X3325Y1754D02*
X3332Y1754D01*
X0Y1753D02*
X7Y1753D01*
X2968Y1753D02*
X3011Y1753D01*
X3325Y1753D02*
X3332Y1753D01*
X0Y1752D02*
X7Y1752D01*
X3325Y1752D02*
X3332Y1752D01*
X0Y1751D02*
X7Y1751D01*
X3325Y1751D02*
X3332Y1751D01*
X0Y1750D02*
X7Y1750D01*
X3325Y1750D02*
X3332Y1750D01*
X0Y1749D02*
X7Y1749D01*
X3325Y1749D02*
X3332Y1749D01*
X0Y1748D02*
X7Y1748D01*
X3325Y1748D02*
X3332Y1748D01*
X0Y1747D02*
X7Y1747D01*
X3325Y1747D02*
X3332Y1747D01*
X0Y1746D02*
X7Y1746D01*
X3325Y1746D02*
X3332Y1746D01*
X0Y1745D02*
X7Y1745D01*
X3325Y1745D02*
X3332Y1745D01*
X0Y1744D02*
X7Y1744D01*
X3325Y1744D02*
X3332Y1744D01*
X0Y1743D02*
X7Y1743D01*
X3325Y1743D02*
X3332Y1743D01*
X0Y1742D02*
X7Y1742D01*
X3325Y1742D02*
X3332Y1742D01*
X0Y1741D02*
X7Y1741D01*
X3325Y1741D02*
X3332Y1741D01*
X0Y1740D02*
X7Y1740D01*
X3325Y1740D02*
X3332Y1740D01*
X0Y1739D02*
X7Y1739D01*
X3325Y1739D02*
X3332Y1739D01*
X0Y1738D02*
X7Y1738D01*
X3325Y1738D02*
X3332Y1738D01*
X0Y1737D02*
X7Y1737D01*
X3325Y1737D02*
X3332Y1737D01*
X0Y1736D02*
X7Y1736D01*
X3325Y1736D02*
X3332Y1736D01*
X0Y1735D02*
X7Y1735D01*
X3325Y1735D02*
X3332Y1735D01*
X0Y1734D02*
X7Y1734D01*
X3325Y1734D02*
X3332Y1734D01*
X0Y1733D02*
X7Y1733D01*
X3325Y1733D02*
X3332Y1733D01*
X0Y1732D02*
X7Y1732D01*
X2978Y1732D02*
X3010Y1732D01*
X3325Y1732D02*
X3332Y1732D01*
X0Y1731D02*
X7Y1731D01*
X2977Y1731D02*
X3012Y1731D01*
X3325Y1731D02*
X3332Y1731D01*
X0Y1730D02*
X7Y1730D01*
X2977Y1730D02*
X3012Y1730D01*
X3325Y1730D02*
X3332Y1730D01*
X0Y1729D02*
X7Y1729D01*
X2977Y1729D02*
X3013Y1729D01*
X3325Y1729D02*
X3332Y1729D01*
X0Y1728D02*
X7Y1728D01*
X2977Y1728D02*
X3013Y1728D01*
X3325Y1728D02*
X3332Y1728D01*
X0Y1727D02*
X7Y1727D01*
X2977Y1727D02*
X3012Y1727D01*
X3325Y1727D02*
X3332Y1727D01*
X0Y1726D02*
X7Y1726D01*
X2877Y1726D02*
X2878Y1726D01*
X2977Y1726D02*
X3012Y1726D01*
X3325Y1726D02*
X3332Y1726D01*
X0Y1725D02*
X7Y1725D01*
X2876Y1725D02*
X2879Y1725D01*
X2977Y1725D02*
X2984Y1725D01*
X3325Y1725D02*
X3332Y1725D01*
X0Y1724D02*
X7Y1724D01*
X2875Y1724D02*
X2880Y1724D01*
X2977Y1724D02*
X2983Y1724D01*
X3325Y1724D02*
X3332Y1724D01*
X0Y1723D02*
X7Y1723D01*
X2875Y1723D02*
X2881Y1723D01*
X2977Y1723D02*
X2983Y1723D01*
X3325Y1723D02*
X3332Y1723D01*
X0Y1722D02*
X7Y1722D01*
X2876Y1722D02*
X2882Y1722D01*
X2977Y1722D02*
X2983Y1722D01*
X3325Y1722D02*
X3332Y1722D01*
X0Y1721D02*
X7Y1721D01*
X2877Y1721D02*
X2883Y1721D01*
X2977Y1721D02*
X2983Y1721D01*
X3325Y1721D02*
X3332Y1721D01*
X0Y1720D02*
X7Y1720D01*
X2878Y1720D02*
X2884Y1720D01*
X2977Y1720D02*
X2983Y1720D01*
X3325Y1720D02*
X3332Y1720D01*
X0Y1719D02*
X7Y1719D01*
X2879Y1719D02*
X2885Y1719D01*
X2977Y1719D02*
X2983Y1719D01*
X3325Y1719D02*
X3332Y1719D01*
X0Y1718D02*
X7Y1718D01*
X2880Y1718D02*
X2886Y1718D01*
X2977Y1718D02*
X2983Y1718D01*
X3325Y1718D02*
X3332Y1718D01*
X0Y1717D02*
X7Y1717D01*
X2881Y1717D02*
X2887Y1717D01*
X2977Y1717D02*
X2983Y1717D01*
X3325Y1717D02*
X3332Y1717D01*
X0Y1716D02*
X7Y1716D01*
X2882Y1716D02*
X2888Y1716D01*
X2977Y1716D02*
X2983Y1716D01*
X3325Y1716D02*
X3332Y1716D01*
X0Y1715D02*
X7Y1715D01*
X2883Y1715D02*
X2889Y1715D01*
X2977Y1715D02*
X2983Y1715D01*
X3325Y1715D02*
X3332Y1715D01*
X0Y1714D02*
X7Y1714D01*
X2884Y1714D02*
X2890Y1714D01*
X2977Y1714D02*
X2983Y1714D01*
X3325Y1714D02*
X3332Y1714D01*
X0Y1713D02*
X7Y1713D01*
X2885Y1713D02*
X2891Y1713D01*
X2977Y1713D02*
X2983Y1713D01*
X3325Y1713D02*
X3332Y1713D01*
X0Y1712D02*
X7Y1712D01*
X2886Y1712D02*
X2892Y1712D01*
X2977Y1712D02*
X2983Y1712D01*
X3325Y1712D02*
X3332Y1712D01*
X0Y1711D02*
X7Y1711D01*
X2887Y1711D02*
X2893Y1711D01*
X2962Y1711D02*
X3005Y1711D01*
X3325Y1711D02*
X3332Y1711D01*
X0Y1710D02*
X7Y1710D01*
X2889Y1710D02*
X2894Y1710D01*
X2960Y1710D02*
X3006Y1710D01*
X3325Y1710D02*
X3332Y1710D01*
X0Y1709D02*
X7Y1709D01*
X2890Y1709D02*
X2895Y1709D01*
X2960Y1709D02*
X3007Y1709D01*
X3325Y1709D02*
X3332Y1709D01*
X0Y1708D02*
X7Y1708D01*
X2891Y1708D02*
X2896Y1708D01*
X2960Y1708D02*
X3007Y1708D01*
X3325Y1708D02*
X3332Y1708D01*
X0Y1707D02*
X7Y1707D01*
X2892Y1707D02*
X2897Y1707D01*
X2960Y1707D02*
X3007Y1707D01*
X3325Y1707D02*
X3332Y1707D01*
X0Y1706D02*
X7Y1706D01*
X2893Y1706D02*
X2898Y1706D01*
X2960Y1706D02*
X3006Y1706D01*
X3325Y1706D02*
X3332Y1706D01*
X0Y1705D02*
X7Y1705D01*
X2894Y1705D02*
X2899Y1705D01*
X2961Y1705D02*
X3005Y1705D01*
X3325Y1705D02*
X3332Y1705D01*
X0Y1704D02*
X7Y1704D01*
X2895Y1704D02*
X2900Y1704D01*
X2977Y1704D02*
X2983Y1704D01*
X3325Y1704D02*
X3332Y1704D01*
X0Y1703D02*
X7Y1703D01*
X2896Y1703D02*
X2901Y1703D01*
X2978Y1703D02*
X2983Y1703D01*
X3325Y1703D02*
X3332Y1703D01*
X0Y1702D02*
X7Y1702D01*
X2896Y1702D02*
X2902Y1702D01*
X2978Y1702D02*
X2982Y1702D01*
X3325Y1702D02*
X3332Y1702D01*
X0Y1701D02*
X7Y1701D01*
X2897Y1701D02*
X2903Y1701D01*
X2980Y1701D02*
X2980Y1701D01*
X3325Y1701D02*
X3332Y1701D01*
X0Y1700D02*
X7Y1700D01*
X2898Y1700D02*
X2904Y1700D01*
X3325Y1700D02*
X3332Y1700D01*
X0Y1699D02*
X7Y1699D01*
X2899Y1699D02*
X2905Y1699D01*
X3325Y1699D02*
X3332Y1699D01*
X0Y1698D02*
X7Y1698D01*
X2900Y1698D02*
X2906Y1698D01*
X3325Y1698D02*
X3332Y1698D01*
X0Y1697D02*
X7Y1697D01*
X2901Y1697D02*
X2907Y1697D01*
X3325Y1697D02*
X3332Y1697D01*
X0Y1696D02*
X7Y1696D01*
X2902Y1696D02*
X2908Y1696D01*
X3325Y1696D02*
X3332Y1696D01*
X0Y1695D02*
X7Y1695D01*
X2903Y1695D02*
X2909Y1695D01*
X3325Y1695D02*
X3332Y1695D01*
X0Y1694D02*
X7Y1694D01*
X2904Y1694D02*
X2910Y1694D01*
X3325Y1694D02*
X3332Y1694D01*
X0Y1693D02*
X7Y1693D01*
X2905Y1693D02*
X2911Y1693D01*
X3325Y1693D02*
X3332Y1693D01*
X0Y1692D02*
X7Y1692D01*
X2906Y1692D02*
X2912Y1692D01*
X3325Y1692D02*
X3332Y1692D01*
X0Y1691D02*
X7Y1691D01*
X2907Y1691D02*
X2911Y1691D01*
X3325Y1691D02*
X3332Y1691D01*
X0Y1690D02*
X7Y1690D01*
X2908Y1690D02*
X2910Y1690D01*
X3325Y1690D02*
X3332Y1690D01*
X0Y1689D02*
X7Y1689D01*
X3325Y1689D02*
X3332Y1689D01*
X0Y1688D02*
X7Y1688D01*
X3325Y1688D02*
X3332Y1688D01*
X0Y1687D02*
X7Y1687D01*
X3325Y1687D02*
X3332Y1687D01*
X0Y1686D02*
X7Y1686D01*
X3325Y1686D02*
X3332Y1686D01*
X0Y1685D02*
X7Y1685D01*
X3325Y1685D02*
X3332Y1685D01*
X0Y1684D02*
X7Y1684D01*
X3325Y1684D02*
X3332Y1684D01*
X0Y1683D02*
X7Y1683D01*
X3325Y1683D02*
X3332Y1683D01*
X0Y1682D02*
X7Y1682D01*
X3325Y1682D02*
X3332Y1682D01*
X0Y1681D02*
X7Y1681D01*
X3325Y1681D02*
X3332Y1681D01*
X0Y1680D02*
X7Y1680D01*
X3325Y1680D02*
X3332Y1680D01*
X0Y1679D02*
X7Y1679D01*
X3325Y1679D02*
X3332Y1679D01*
X0Y1678D02*
X7Y1678D01*
X3325Y1678D02*
X3332Y1678D01*
X0Y1677D02*
X7Y1677D01*
X3325Y1677D02*
X3332Y1677D01*
X0Y1676D02*
X7Y1676D01*
X3325Y1676D02*
X3332Y1676D01*
X0Y1675D02*
X7Y1675D01*
X3325Y1675D02*
X3332Y1675D01*
X0Y1674D02*
X7Y1674D01*
X3325Y1674D02*
X3332Y1674D01*
X0Y1673D02*
X7Y1673D01*
X3325Y1673D02*
X3332Y1673D01*
X0Y1672D02*
X7Y1672D01*
X3325Y1672D02*
X3332Y1672D01*
X0Y1671D02*
X7Y1671D01*
X3325Y1671D02*
X3332Y1671D01*
X0Y1670D02*
X7Y1670D01*
X3325Y1670D02*
X3332Y1670D01*
X0Y1669D02*
X7Y1669D01*
X3325Y1669D02*
X3332Y1669D01*
X0Y1668D02*
X7Y1668D01*
X3325Y1668D02*
X3332Y1668D01*
X0Y1667D02*
X7Y1667D01*
X3325Y1667D02*
X3332Y1667D01*
X0Y1666D02*
X7Y1666D01*
X3325Y1666D02*
X3332Y1666D01*
X0Y1665D02*
X7Y1665D01*
X3325Y1665D02*
X3332Y1665D01*
X0Y1664D02*
X7Y1664D01*
X3325Y1664D02*
X3332Y1664D01*
X0Y1663D02*
X7Y1663D01*
X3325Y1663D02*
X3332Y1663D01*
X0Y1662D02*
X7Y1662D01*
X3325Y1662D02*
X3332Y1662D01*
X0Y1661D02*
X7Y1661D01*
X504Y1661D02*
X521Y1661D01*
X531Y1661D02*
X547Y1661D01*
X3325Y1661D02*
X3332Y1661D01*
X0Y1660D02*
X7Y1660D01*
X502Y1660D02*
X523Y1660D01*
X528Y1660D02*
X549Y1660D01*
X3325Y1660D02*
X3332Y1660D01*
X0Y1659D02*
X7Y1659D01*
X501Y1659D02*
X525Y1659D01*
X527Y1659D02*
X550Y1659D01*
X3325Y1659D02*
X3332Y1659D01*
X0Y1658D02*
X7Y1658D01*
X500Y1658D02*
X551Y1658D01*
X3325Y1658D02*
X3332Y1658D01*
X0Y1657D02*
X7Y1657D01*
X500Y1657D02*
X552Y1657D01*
X3325Y1657D02*
X3332Y1657D01*
X0Y1656D02*
X7Y1656D01*
X499Y1656D02*
X552Y1656D01*
X3325Y1656D02*
X3332Y1656D01*
X0Y1655D02*
X7Y1655D01*
X499Y1655D02*
X552Y1655D01*
X3325Y1655D02*
X3332Y1655D01*
X0Y1654D02*
X7Y1654D01*
X499Y1654D02*
X505Y1654D01*
X521Y1654D02*
X531Y1654D01*
X546Y1654D02*
X552Y1654D01*
X3325Y1654D02*
X3332Y1654D01*
X0Y1653D02*
X7Y1653D01*
X499Y1653D02*
X505Y1653D01*
X522Y1653D02*
X530Y1653D01*
X546Y1653D02*
X552Y1653D01*
X3325Y1653D02*
X3332Y1653D01*
X0Y1652D02*
X7Y1652D01*
X499Y1652D02*
X505Y1652D01*
X522Y1652D02*
X529Y1652D01*
X546Y1652D02*
X552Y1652D01*
X3325Y1652D02*
X3332Y1652D01*
X0Y1651D02*
X7Y1651D01*
X499Y1651D02*
X505Y1651D01*
X523Y1651D02*
X529Y1651D01*
X546Y1651D02*
X552Y1651D01*
X3325Y1651D02*
X3332Y1651D01*
X0Y1650D02*
X7Y1650D01*
X499Y1650D02*
X505Y1650D01*
X523Y1650D02*
X529Y1650D01*
X546Y1650D02*
X552Y1650D01*
X3325Y1650D02*
X3332Y1650D01*
X0Y1649D02*
X7Y1649D01*
X499Y1649D02*
X505Y1649D01*
X523Y1649D02*
X529Y1649D01*
X546Y1649D02*
X552Y1649D01*
X3325Y1649D02*
X3332Y1649D01*
X0Y1648D02*
X7Y1648D01*
X499Y1648D02*
X505Y1648D01*
X523Y1648D02*
X529Y1648D01*
X546Y1648D02*
X552Y1648D01*
X3325Y1648D02*
X3332Y1648D01*
X0Y1647D02*
X7Y1647D01*
X499Y1647D02*
X505Y1647D01*
X523Y1647D02*
X529Y1647D01*
X546Y1647D02*
X552Y1647D01*
X3325Y1647D02*
X3332Y1647D01*
X0Y1646D02*
X7Y1646D01*
X499Y1646D02*
X505Y1646D01*
X523Y1646D02*
X529Y1646D01*
X546Y1646D02*
X552Y1646D01*
X3325Y1646D02*
X3332Y1646D01*
X0Y1645D02*
X7Y1645D01*
X499Y1645D02*
X505Y1645D01*
X523Y1645D02*
X529Y1645D01*
X546Y1645D02*
X552Y1645D01*
X3325Y1645D02*
X3332Y1645D01*
X0Y1644D02*
X7Y1644D01*
X499Y1644D02*
X505Y1644D01*
X523Y1644D02*
X529Y1644D01*
X546Y1644D02*
X552Y1644D01*
X3325Y1644D02*
X3332Y1644D01*
X0Y1643D02*
X7Y1643D01*
X499Y1643D02*
X505Y1643D01*
X523Y1643D02*
X529Y1643D01*
X546Y1643D02*
X552Y1643D01*
X3325Y1643D02*
X3332Y1643D01*
X0Y1642D02*
X7Y1642D01*
X499Y1642D02*
X505Y1642D01*
X523Y1642D02*
X529Y1642D01*
X546Y1642D02*
X552Y1642D01*
X3325Y1642D02*
X3332Y1642D01*
X0Y1641D02*
X7Y1641D01*
X499Y1641D02*
X505Y1641D01*
X523Y1641D02*
X529Y1641D01*
X546Y1641D02*
X552Y1641D01*
X3325Y1641D02*
X3332Y1641D01*
X0Y1640D02*
X7Y1640D01*
X499Y1640D02*
X505Y1640D01*
X523Y1640D02*
X529Y1640D01*
X546Y1640D02*
X552Y1640D01*
X3325Y1640D02*
X3332Y1640D01*
X0Y1639D02*
X7Y1639D01*
X499Y1639D02*
X505Y1639D01*
X523Y1639D02*
X529Y1639D01*
X546Y1639D02*
X552Y1639D01*
X3325Y1639D02*
X3332Y1639D01*
X0Y1638D02*
X7Y1638D01*
X499Y1638D02*
X505Y1638D01*
X523Y1638D02*
X529Y1638D01*
X546Y1638D02*
X552Y1638D01*
X3325Y1638D02*
X3332Y1638D01*
X0Y1637D02*
X7Y1637D01*
X499Y1637D02*
X505Y1637D01*
X523Y1637D02*
X529Y1637D01*
X546Y1637D02*
X552Y1637D01*
X3325Y1637D02*
X3332Y1637D01*
X0Y1636D02*
X7Y1636D01*
X499Y1636D02*
X505Y1636D01*
X523Y1636D02*
X528Y1636D01*
X546Y1636D02*
X552Y1636D01*
X3325Y1636D02*
X3332Y1636D01*
X0Y1635D02*
X7Y1635D01*
X499Y1635D02*
X505Y1635D01*
X523Y1635D02*
X528Y1635D01*
X546Y1635D02*
X552Y1635D01*
X3325Y1635D02*
X3332Y1635D01*
X0Y1634D02*
X7Y1634D01*
X499Y1634D02*
X505Y1634D01*
X525Y1634D02*
X527Y1634D01*
X546Y1634D02*
X552Y1634D01*
X3325Y1634D02*
X3332Y1634D01*
X0Y1633D02*
X7Y1633D01*
X499Y1633D02*
X505Y1633D01*
X546Y1633D02*
X552Y1633D01*
X3325Y1633D02*
X3332Y1633D01*
X0Y1632D02*
X7Y1632D01*
X499Y1632D02*
X505Y1632D01*
X546Y1632D02*
X552Y1632D01*
X3325Y1632D02*
X3332Y1632D01*
X0Y1631D02*
X7Y1631D01*
X499Y1631D02*
X505Y1631D01*
X546Y1631D02*
X552Y1631D01*
X3325Y1631D02*
X3332Y1631D01*
X0Y1630D02*
X7Y1630D01*
X499Y1630D02*
X505Y1630D01*
X546Y1630D02*
X552Y1630D01*
X3325Y1630D02*
X3332Y1630D01*
X0Y1629D02*
X7Y1629D01*
X499Y1629D02*
X505Y1629D01*
X547Y1629D02*
X552Y1629D01*
X3325Y1629D02*
X3332Y1629D01*
X0Y1628D02*
X7Y1628D01*
X500Y1628D02*
X504Y1628D01*
X547Y1628D02*
X551Y1628D01*
X3325Y1628D02*
X3332Y1628D01*
X0Y1627D02*
X7Y1627D01*
X502Y1627D02*
X503Y1627D01*
X549Y1627D02*
X550Y1627D01*
X3325Y1627D02*
X3332Y1627D01*
X0Y1626D02*
X7Y1626D01*
X3325Y1626D02*
X3332Y1626D01*
X0Y1625D02*
X7Y1625D01*
X3325Y1625D02*
X3332Y1625D01*
X0Y1624D02*
X7Y1624D01*
X3325Y1624D02*
X3332Y1624D01*
X0Y1623D02*
X7Y1623D01*
X3325Y1623D02*
X3332Y1623D01*
X0Y1622D02*
X7Y1622D01*
X3325Y1622D02*
X3332Y1622D01*
X0Y1621D02*
X7Y1621D01*
X3325Y1621D02*
X3332Y1621D01*
X0Y1620D02*
X7Y1620D01*
X3325Y1620D02*
X3332Y1620D01*
X0Y1619D02*
X7Y1619D01*
X3325Y1619D02*
X3332Y1619D01*
X0Y1618D02*
X7Y1618D01*
X3325Y1618D02*
X3332Y1618D01*
X0Y1617D02*
X7Y1617D01*
X3325Y1617D02*
X3332Y1617D01*
X0Y1616D02*
X7Y1616D01*
X3325Y1616D02*
X3332Y1616D01*
X0Y1615D02*
X7Y1615D01*
X3325Y1615D02*
X3332Y1615D01*
X0Y1614D02*
X7Y1614D01*
X3325Y1614D02*
X3332Y1614D01*
X0Y1613D02*
X7Y1613D01*
X3325Y1613D02*
X3332Y1613D01*
X0Y1612D02*
X7Y1612D01*
X3325Y1612D02*
X3332Y1612D01*
X0Y1611D02*
X7Y1611D01*
X3325Y1611D02*
X3332Y1611D01*
X0Y1610D02*
X7Y1610D01*
X3325Y1610D02*
X3332Y1610D01*
X0Y1609D02*
X7Y1609D01*
X3325Y1609D02*
X3332Y1609D01*
X0Y1608D02*
X7Y1608D01*
X3325Y1608D02*
X3332Y1608D01*
X0Y1607D02*
X7Y1607D01*
X500Y1607D02*
X546Y1607D01*
X3325Y1607D02*
X3332Y1607D01*
X0Y1606D02*
X7Y1606D01*
X500Y1606D02*
X548Y1606D01*
X3325Y1606D02*
X3332Y1606D01*
X0Y1605D02*
X7Y1605D01*
X499Y1605D02*
X549Y1605D01*
X3325Y1605D02*
X3332Y1605D01*
X0Y1604D02*
X7Y1604D01*
X499Y1604D02*
X550Y1604D01*
X3325Y1604D02*
X3332Y1604D01*
X0Y1603D02*
X7Y1603D01*
X499Y1603D02*
X551Y1603D01*
X3325Y1603D02*
X3332Y1603D01*
X0Y1602D02*
X7Y1602D01*
X500Y1602D02*
X551Y1602D01*
X3325Y1602D02*
X3332Y1602D01*
X0Y1601D02*
X7Y1601D01*
X502Y1601D02*
X552Y1601D01*
X3325Y1601D02*
X3332Y1601D01*
X0Y1600D02*
X7Y1600D01*
X545Y1600D02*
X552Y1600D01*
X3325Y1600D02*
X3332Y1600D01*
X0Y1599D02*
X7Y1599D01*
X546Y1599D02*
X552Y1599D01*
X3325Y1599D02*
X3332Y1599D01*
X0Y1598D02*
X7Y1598D01*
X546Y1598D02*
X552Y1598D01*
X3325Y1598D02*
X3332Y1598D01*
X0Y1597D02*
X7Y1597D01*
X546Y1597D02*
X552Y1597D01*
X3325Y1597D02*
X3332Y1597D01*
X0Y1596D02*
X7Y1596D01*
X546Y1596D02*
X552Y1596D01*
X3325Y1596D02*
X3332Y1596D01*
X0Y1595D02*
X7Y1595D01*
X546Y1595D02*
X552Y1595D01*
X3325Y1595D02*
X3332Y1595D01*
X0Y1594D02*
X7Y1594D01*
X546Y1594D02*
X552Y1594D01*
X2965Y1594D02*
X2978Y1594D01*
X3325Y1594D02*
X3332Y1594D01*
X0Y1593D02*
X7Y1593D01*
X546Y1593D02*
X552Y1593D01*
X2963Y1593D02*
X2980Y1593D01*
X3325Y1593D02*
X3332Y1593D01*
X0Y1592D02*
X7Y1592D01*
X546Y1592D02*
X552Y1592D01*
X2961Y1592D02*
X2980Y1592D01*
X3325Y1592D02*
X3332Y1592D01*
X0Y1591D02*
X7Y1591D01*
X546Y1591D02*
X552Y1591D01*
X2960Y1591D02*
X2981Y1591D01*
X3325Y1591D02*
X3332Y1591D01*
X0Y1590D02*
X7Y1590D01*
X546Y1590D02*
X552Y1590D01*
X2959Y1590D02*
X2981Y1590D01*
X3325Y1590D02*
X3332Y1590D01*
X0Y1589D02*
X7Y1589D01*
X546Y1589D02*
X552Y1589D01*
X2958Y1589D02*
X2980Y1589D01*
X3325Y1589D02*
X3332Y1589D01*
X0Y1588D02*
X7Y1588D01*
X545Y1588D02*
X552Y1588D01*
X2958Y1588D02*
X2979Y1588D01*
X3325Y1588D02*
X3332Y1588D01*
X0Y1587D02*
X7Y1587D01*
X531Y1587D02*
X552Y1587D01*
X2958Y1587D02*
X2965Y1587D01*
X3325Y1587D02*
X3332Y1587D01*
X0Y1586D02*
X7Y1586D01*
X529Y1586D02*
X551Y1586D01*
X2957Y1586D02*
X2964Y1586D01*
X3325Y1586D02*
X3332Y1586D01*
X0Y1585D02*
X7Y1585D01*
X529Y1585D02*
X551Y1585D01*
X2957Y1585D02*
X2963Y1585D01*
X3325Y1585D02*
X3332Y1585D01*
X0Y1584D02*
X7Y1584D01*
X529Y1584D02*
X550Y1584D01*
X2957Y1584D02*
X2963Y1584D01*
X3325Y1584D02*
X3332Y1584D01*
X0Y1583D02*
X7Y1583D01*
X529Y1583D02*
X549Y1583D01*
X2957Y1583D02*
X2963Y1583D01*
X3325Y1583D02*
X3332Y1583D01*
X0Y1582D02*
X7Y1582D01*
X529Y1582D02*
X548Y1582D01*
X2957Y1582D02*
X2963Y1582D01*
X3325Y1582D02*
X3332Y1582D01*
X0Y1581D02*
X7Y1581D01*
X530Y1581D02*
X546Y1581D01*
X2957Y1581D02*
X2963Y1581D01*
X3325Y1581D02*
X3332Y1581D01*
X0Y1580D02*
X7Y1580D01*
X2957Y1580D02*
X2963Y1580D01*
X3325Y1580D02*
X3332Y1580D01*
X0Y1579D02*
X7Y1579D01*
X2957Y1579D02*
X2963Y1579D01*
X3325Y1579D02*
X3332Y1579D01*
X0Y1578D02*
X7Y1578D01*
X2957Y1578D02*
X2963Y1578D01*
X3325Y1578D02*
X3332Y1578D01*
X0Y1577D02*
X7Y1577D01*
X2957Y1577D02*
X2963Y1577D01*
X3325Y1577D02*
X3332Y1577D01*
X0Y1576D02*
X7Y1576D01*
X2957Y1576D02*
X2963Y1576D01*
X3325Y1576D02*
X3332Y1576D01*
X0Y1575D02*
X7Y1575D01*
X2957Y1575D02*
X2964Y1575D01*
X3325Y1575D02*
X3332Y1575D01*
X0Y1574D02*
X7Y1574D01*
X2958Y1574D02*
X2965Y1574D01*
X3325Y1574D02*
X3332Y1574D01*
X0Y1573D02*
X7Y1573D01*
X2958Y1573D02*
X3009Y1573D01*
X3325Y1573D02*
X3332Y1573D01*
X0Y1572D02*
X7Y1572D01*
X2958Y1572D02*
X3010Y1572D01*
X3325Y1572D02*
X3332Y1572D01*
X0Y1571D02*
X7Y1571D01*
X2959Y1571D02*
X3010Y1571D01*
X3325Y1571D02*
X3332Y1571D01*
X0Y1570D02*
X7Y1570D01*
X2960Y1570D02*
X3010Y1570D01*
X3325Y1570D02*
X3332Y1570D01*
X0Y1569D02*
X7Y1569D01*
X2961Y1569D02*
X3010Y1569D01*
X3325Y1569D02*
X3332Y1569D01*
X0Y1568D02*
X7Y1568D01*
X2962Y1568D02*
X3009Y1568D01*
X3325Y1568D02*
X3332Y1568D01*
X0Y1567D02*
X7Y1567D01*
X2965Y1567D02*
X3008Y1567D01*
X3325Y1567D02*
X3332Y1567D01*
X0Y1566D02*
X7Y1566D01*
X3325Y1566D02*
X3332Y1566D01*
X0Y1565D02*
X7Y1565D01*
X3325Y1565D02*
X3332Y1565D01*
X0Y1564D02*
X7Y1564D01*
X3325Y1564D02*
X3332Y1564D01*
X0Y1563D02*
X7Y1563D01*
X3325Y1563D02*
X3332Y1563D01*
X0Y1562D02*
X7Y1562D01*
X3325Y1562D02*
X3332Y1562D01*
X0Y1561D02*
X7Y1561D01*
X3325Y1561D02*
X3332Y1561D01*
X0Y1560D02*
X7Y1560D01*
X3325Y1560D02*
X3332Y1560D01*
X0Y1559D02*
X7Y1559D01*
X3325Y1559D02*
X3332Y1559D01*
X0Y1558D02*
X7Y1558D01*
X3325Y1558D02*
X3332Y1558D01*
X0Y1557D02*
X7Y1557D01*
X3325Y1557D02*
X3332Y1557D01*
X0Y1556D02*
X7Y1556D01*
X3325Y1556D02*
X3332Y1556D01*
X0Y1555D02*
X7Y1555D01*
X3325Y1555D02*
X3332Y1555D01*
X0Y1554D02*
X7Y1554D01*
X3325Y1554D02*
X3332Y1554D01*
X0Y1553D02*
X7Y1553D01*
X3325Y1553D02*
X3332Y1553D01*
X0Y1552D02*
X7Y1552D01*
X3325Y1552D02*
X3332Y1552D01*
X0Y1551D02*
X7Y1551D01*
X3325Y1551D02*
X3332Y1551D01*
X0Y1550D02*
X7Y1550D01*
X3325Y1550D02*
X3332Y1550D01*
X0Y1549D02*
X7Y1549D01*
X3325Y1549D02*
X3332Y1549D01*
X0Y1548D02*
X7Y1548D01*
X3325Y1548D02*
X3332Y1548D01*
X0Y1547D02*
X7Y1547D01*
X2961Y1547D02*
X2964Y1547D01*
X3325Y1547D02*
X3332Y1547D01*
X0Y1546D02*
X7Y1546D01*
X2960Y1546D02*
X2965Y1546D01*
X3325Y1546D02*
X3332Y1546D01*
X0Y1545D02*
X7Y1545D01*
X2960Y1545D02*
X2966Y1545D01*
X3325Y1545D02*
X3332Y1545D01*
X0Y1544D02*
X7Y1544D01*
X2959Y1544D02*
X2966Y1544D01*
X3325Y1544D02*
X3332Y1544D01*
X0Y1543D02*
X7Y1543D01*
X2959Y1543D02*
X2966Y1543D01*
X3325Y1543D02*
X3332Y1543D01*
X0Y1542D02*
X7Y1542D01*
X2959Y1542D02*
X2965Y1542D01*
X3325Y1542D02*
X3332Y1542D01*
X0Y1541D02*
X7Y1541D01*
X2958Y1541D02*
X2965Y1541D01*
X3325Y1541D02*
X3332Y1541D01*
X0Y1540D02*
X7Y1540D01*
X2958Y1540D02*
X2964Y1540D01*
X2981Y1540D02*
X3010Y1540D01*
X3325Y1540D02*
X3332Y1540D01*
X0Y1539D02*
X7Y1539D01*
X2957Y1539D02*
X2964Y1539D01*
X2981Y1539D02*
X3010Y1539D01*
X3325Y1539D02*
X3332Y1539D01*
X0Y1538D02*
X7Y1538D01*
X2957Y1538D02*
X2964Y1538D01*
X2981Y1538D02*
X3010Y1538D01*
X3325Y1538D02*
X3332Y1538D01*
X0Y1537D02*
X7Y1537D01*
X2957Y1537D02*
X2963Y1537D01*
X2981Y1537D02*
X3010Y1537D01*
X3325Y1537D02*
X3332Y1537D01*
X0Y1536D02*
X7Y1536D01*
X2957Y1536D02*
X2963Y1536D01*
X2981Y1536D02*
X3010Y1536D01*
X3325Y1536D02*
X3332Y1536D01*
X0Y1535D02*
X7Y1535D01*
X2957Y1535D02*
X2963Y1535D01*
X2981Y1535D02*
X3010Y1535D01*
X3325Y1535D02*
X3332Y1535D01*
X0Y1534D02*
X7Y1534D01*
X2957Y1534D02*
X2963Y1534D01*
X2981Y1534D02*
X3010Y1534D01*
X3325Y1534D02*
X3332Y1534D01*
X0Y1533D02*
X7Y1533D01*
X2957Y1533D02*
X2963Y1533D01*
X2981Y1533D02*
X2987Y1533D01*
X3004Y1533D02*
X3010Y1533D01*
X3325Y1533D02*
X3332Y1533D01*
X0Y1532D02*
X7Y1532D01*
X2957Y1532D02*
X2963Y1532D01*
X2981Y1532D02*
X2987Y1532D01*
X3004Y1532D02*
X3010Y1532D01*
X3325Y1532D02*
X3332Y1532D01*
X0Y1531D02*
X7Y1531D01*
X2957Y1531D02*
X2963Y1531D01*
X2981Y1531D02*
X2987Y1531D01*
X3004Y1531D02*
X3010Y1531D01*
X3325Y1531D02*
X3332Y1531D01*
X0Y1530D02*
X7Y1530D01*
X2957Y1530D02*
X2963Y1530D01*
X2981Y1530D02*
X2987Y1530D01*
X3004Y1530D02*
X3010Y1530D01*
X3325Y1530D02*
X3332Y1530D01*
X0Y1529D02*
X7Y1529D01*
X2957Y1529D02*
X2963Y1529D01*
X2981Y1529D02*
X2987Y1529D01*
X3004Y1529D02*
X3010Y1529D01*
X3325Y1529D02*
X3332Y1529D01*
X0Y1528D02*
X7Y1528D01*
X2957Y1528D02*
X2963Y1528D01*
X2981Y1528D02*
X2987Y1528D01*
X3004Y1528D02*
X3010Y1528D01*
X3325Y1528D02*
X3332Y1528D01*
X0Y1527D02*
X7Y1527D01*
X2957Y1527D02*
X2963Y1527D01*
X2981Y1527D02*
X2987Y1527D01*
X3004Y1527D02*
X3010Y1527D01*
X3325Y1527D02*
X3332Y1527D01*
X0Y1526D02*
X7Y1526D01*
X2957Y1526D02*
X2963Y1526D01*
X2981Y1526D02*
X2987Y1526D01*
X3004Y1526D02*
X3010Y1526D01*
X3325Y1526D02*
X3332Y1526D01*
X0Y1525D02*
X7Y1525D01*
X2957Y1525D02*
X2963Y1525D01*
X2981Y1525D02*
X2987Y1525D01*
X3004Y1525D02*
X3010Y1525D01*
X3325Y1525D02*
X3332Y1525D01*
X0Y1524D02*
X7Y1524D01*
X2957Y1524D02*
X2963Y1524D01*
X2981Y1524D02*
X2987Y1524D01*
X3004Y1524D02*
X3010Y1524D01*
X3325Y1524D02*
X3332Y1524D01*
X0Y1523D02*
X7Y1523D01*
X2957Y1523D02*
X2963Y1523D01*
X2981Y1523D02*
X2987Y1523D01*
X3004Y1523D02*
X3010Y1523D01*
X3325Y1523D02*
X3332Y1523D01*
X0Y1522D02*
X7Y1522D01*
X2957Y1522D02*
X2963Y1522D01*
X2981Y1522D02*
X2987Y1522D01*
X3004Y1522D02*
X3010Y1522D01*
X3325Y1522D02*
X3332Y1522D01*
X0Y1521D02*
X7Y1521D01*
X2957Y1521D02*
X2963Y1521D01*
X2981Y1521D02*
X2987Y1521D01*
X3004Y1521D02*
X3010Y1521D01*
X3325Y1521D02*
X3332Y1521D01*
X0Y1520D02*
X7Y1520D01*
X2957Y1520D02*
X2987Y1520D01*
X3004Y1520D02*
X3010Y1520D01*
X3325Y1520D02*
X3332Y1520D01*
X0Y1519D02*
X7Y1519D01*
X2957Y1519D02*
X2987Y1519D01*
X3004Y1519D02*
X3010Y1519D01*
X3325Y1519D02*
X3332Y1519D01*
X0Y1518D02*
X7Y1518D01*
X2957Y1518D02*
X2986Y1518D01*
X3004Y1518D02*
X3010Y1518D01*
X3325Y1518D02*
X3332Y1518D01*
X0Y1517D02*
X7Y1517D01*
X2958Y1517D02*
X2986Y1517D01*
X3004Y1517D02*
X3010Y1517D01*
X3325Y1517D02*
X3332Y1517D01*
X0Y1516D02*
X7Y1516D01*
X2958Y1516D02*
X2985Y1516D01*
X3004Y1516D02*
X3010Y1516D01*
X3325Y1516D02*
X3332Y1516D01*
X0Y1515D02*
X7Y1515D01*
X2959Y1515D02*
X2984Y1515D01*
X3005Y1515D02*
X3010Y1515D01*
X3325Y1515D02*
X3332Y1515D01*
X0Y1514D02*
X7Y1514D01*
X2961Y1514D02*
X2983Y1514D01*
X3005Y1514D02*
X3009Y1514D01*
X3325Y1514D02*
X3332Y1514D01*
X0Y1513D02*
X7Y1513D01*
X3325Y1513D02*
X3332Y1513D01*
X0Y1512D02*
X7Y1512D01*
X3325Y1512D02*
X3332Y1512D01*
X0Y1511D02*
X7Y1511D01*
X3325Y1511D02*
X3332Y1511D01*
X0Y1510D02*
X7Y1510D01*
X3325Y1510D02*
X3332Y1510D01*
X0Y1509D02*
X7Y1509D01*
X3325Y1509D02*
X3332Y1509D01*
X0Y1508D02*
X7Y1508D01*
X3325Y1508D02*
X3332Y1508D01*
X0Y1507D02*
X7Y1507D01*
X3325Y1507D02*
X3332Y1507D01*
X0Y1506D02*
X7Y1506D01*
X3325Y1506D02*
X3332Y1506D01*
X0Y1505D02*
X7Y1505D01*
X3325Y1505D02*
X3332Y1505D01*
X0Y1504D02*
X7Y1504D01*
X3325Y1504D02*
X3332Y1504D01*
X0Y1503D02*
X7Y1503D01*
X3325Y1503D02*
X3332Y1503D01*
X0Y1502D02*
X7Y1502D01*
X3325Y1502D02*
X3332Y1502D01*
X0Y1501D02*
X7Y1501D01*
X3325Y1501D02*
X3332Y1501D01*
X0Y1500D02*
X7Y1500D01*
X3325Y1500D02*
X3332Y1500D01*
X0Y1499D02*
X7Y1499D01*
X3325Y1499D02*
X3332Y1499D01*
X0Y1498D02*
X7Y1498D01*
X3325Y1498D02*
X3332Y1498D01*
X0Y1497D02*
X7Y1497D01*
X3325Y1497D02*
X3332Y1497D01*
X0Y1496D02*
X7Y1496D01*
X3325Y1496D02*
X3332Y1496D01*
X0Y1495D02*
X7Y1495D01*
X3325Y1495D02*
X3332Y1495D01*
X0Y1494D02*
X7Y1494D01*
X3325Y1494D02*
X3332Y1494D01*
X0Y1493D02*
X7Y1493D01*
X3325Y1493D02*
X3332Y1493D01*
X0Y1492D02*
X7Y1492D01*
X3325Y1492D02*
X3332Y1492D01*
X0Y1491D02*
X7Y1491D01*
X3325Y1491D02*
X3332Y1491D01*
X0Y1490D02*
X7Y1490D01*
X3325Y1490D02*
X3332Y1490D01*
X0Y1489D02*
X7Y1489D01*
X3325Y1489D02*
X3332Y1489D01*
X0Y1488D02*
X7Y1488D01*
X3325Y1488D02*
X3332Y1488D01*
X0Y1487D02*
X7Y1487D01*
X3325Y1487D02*
X3332Y1487D01*
X0Y1486D02*
X7Y1486D01*
X3325Y1486D02*
X3332Y1486D01*
X0Y1485D02*
X7Y1485D01*
X3325Y1485D02*
X3332Y1485D01*
X0Y1484D02*
X7Y1484D01*
X3325Y1484D02*
X3332Y1484D01*
X0Y1483D02*
X7Y1483D01*
X3325Y1483D02*
X3332Y1483D01*
X0Y1482D02*
X7Y1482D01*
X3325Y1482D02*
X3332Y1482D01*
X0Y1481D02*
X7Y1481D01*
X3325Y1481D02*
X3332Y1481D01*
X0Y1480D02*
X7Y1480D01*
X3325Y1480D02*
X3332Y1480D01*
X0Y1479D02*
X7Y1479D01*
X3325Y1479D02*
X3332Y1479D01*
X0Y1478D02*
X7Y1478D01*
X3325Y1478D02*
X3332Y1478D01*
X0Y1477D02*
X7Y1477D01*
X3325Y1477D02*
X3332Y1477D01*
X0Y1476D02*
X7Y1476D01*
X3325Y1476D02*
X3332Y1476D01*
X0Y1475D02*
X7Y1475D01*
X3325Y1475D02*
X3332Y1475D01*
X0Y1474D02*
X7Y1474D01*
X3325Y1474D02*
X3332Y1474D01*
X0Y1473D02*
X7Y1473D01*
X3325Y1473D02*
X3332Y1473D01*
X0Y1472D02*
X7Y1472D01*
X3325Y1472D02*
X3332Y1472D01*
X0Y1471D02*
X7Y1471D01*
X3325Y1471D02*
X3332Y1471D01*
X0Y1470D02*
X7Y1470D01*
X3325Y1470D02*
X3332Y1470D01*
X0Y1469D02*
X7Y1469D01*
X3325Y1469D02*
X3332Y1469D01*
X0Y1468D02*
X7Y1468D01*
X3325Y1468D02*
X3332Y1468D01*
X0Y1467D02*
X7Y1467D01*
X3325Y1467D02*
X3332Y1467D01*
X0Y1466D02*
X7Y1466D01*
X3325Y1466D02*
X3332Y1466D01*
X0Y1465D02*
X7Y1465D01*
X3325Y1465D02*
X3332Y1465D01*
X0Y1464D02*
X7Y1464D01*
X3325Y1464D02*
X3332Y1464D01*
X0Y1463D02*
X7Y1463D01*
X3325Y1463D02*
X3332Y1463D01*
X0Y1462D02*
X7Y1462D01*
X3325Y1462D02*
X3332Y1462D01*
X0Y1461D02*
X7Y1461D01*
X3325Y1461D02*
X3332Y1461D01*
X0Y1460D02*
X7Y1460D01*
X3325Y1460D02*
X3332Y1460D01*
X0Y1459D02*
X7Y1459D01*
X3325Y1459D02*
X3332Y1459D01*
X0Y1458D02*
X7Y1458D01*
X3325Y1458D02*
X3332Y1458D01*
X0Y1457D02*
X7Y1457D01*
X3325Y1457D02*
X3332Y1457D01*
X0Y1456D02*
X7Y1456D01*
X3325Y1456D02*
X3332Y1456D01*
X0Y1455D02*
X7Y1455D01*
X3325Y1455D02*
X3332Y1455D01*
X0Y1454D02*
X7Y1454D01*
X3325Y1454D02*
X3332Y1454D01*
X0Y1453D02*
X7Y1453D01*
X3325Y1453D02*
X3332Y1453D01*
X0Y1452D02*
X7Y1452D01*
X3325Y1452D02*
X3332Y1452D01*
X0Y1451D02*
X7Y1451D01*
X3325Y1451D02*
X3332Y1451D01*
X0Y1450D02*
X7Y1450D01*
X3325Y1450D02*
X3332Y1450D01*
X0Y1449D02*
X7Y1449D01*
X3325Y1449D02*
X3332Y1449D01*
X0Y1448D02*
X7Y1448D01*
X3325Y1448D02*
X3332Y1448D01*
X0Y1447D02*
X7Y1447D01*
X3325Y1447D02*
X3332Y1447D01*
X0Y1446D02*
X7Y1446D01*
X3325Y1446D02*
X3332Y1446D01*
X0Y1445D02*
X7Y1445D01*
X3325Y1445D02*
X3332Y1445D01*
X0Y1444D02*
X7Y1444D01*
X3325Y1444D02*
X3332Y1444D01*
X0Y1443D02*
X7Y1443D01*
X3325Y1443D02*
X3332Y1443D01*
X0Y1442D02*
X7Y1442D01*
X3325Y1442D02*
X3332Y1442D01*
X0Y1441D02*
X7Y1441D01*
X3325Y1441D02*
X3332Y1441D01*
X0Y1440D02*
X7Y1440D01*
X3325Y1440D02*
X3332Y1440D01*
X0Y1439D02*
X7Y1439D01*
X3325Y1439D02*
X3332Y1439D01*
X0Y1438D02*
X7Y1438D01*
X3325Y1438D02*
X3332Y1438D01*
X0Y1437D02*
X7Y1437D01*
X3325Y1437D02*
X3332Y1437D01*
X0Y1436D02*
X7Y1436D01*
X3325Y1436D02*
X3332Y1436D01*
X0Y1435D02*
X7Y1435D01*
X3325Y1435D02*
X3332Y1435D01*
X0Y1434D02*
X7Y1434D01*
X3325Y1434D02*
X3332Y1434D01*
X0Y1433D02*
X7Y1433D01*
X3325Y1433D02*
X3332Y1433D01*
X0Y1432D02*
X7Y1432D01*
X3325Y1432D02*
X3332Y1432D01*
X0Y1431D02*
X7Y1431D01*
X3325Y1431D02*
X3332Y1431D01*
X0Y1430D02*
X7Y1430D01*
X3325Y1430D02*
X3332Y1430D01*
X0Y1429D02*
X7Y1429D01*
X3325Y1429D02*
X3332Y1429D01*
X0Y1428D02*
X7Y1428D01*
X3325Y1428D02*
X3332Y1428D01*
X0Y1427D02*
X7Y1427D01*
X3325Y1427D02*
X3332Y1427D01*
X0Y1426D02*
X7Y1426D01*
X3325Y1426D02*
X3332Y1426D01*
X0Y1425D02*
X7Y1425D01*
X3325Y1425D02*
X3332Y1425D01*
X0Y1424D02*
X7Y1424D01*
X3325Y1424D02*
X3332Y1424D01*
X0Y1423D02*
X7Y1423D01*
X3325Y1423D02*
X3332Y1423D01*
X0Y1422D02*
X7Y1422D01*
X3325Y1422D02*
X3332Y1422D01*
X0Y1421D02*
X7Y1421D01*
X3325Y1421D02*
X3332Y1421D01*
X0Y1420D02*
X7Y1420D01*
X3325Y1420D02*
X3332Y1420D01*
X0Y1419D02*
X7Y1419D01*
X3325Y1419D02*
X3332Y1419D01*
X0Y1418D02*
X7Y1418D01*
X3325Y1418D02*
X3332Y1418D01*
X0Y1417D02*
X7Y1417D01*
X3325Y1417D02*
X3332Y1417D01*
X0Y1416D02*
X7Y1416D01*
X3325Y1416D02*
X3332Y1416D01*
X0Y1415D02*
X7Y1415D01*
X3325Y1415D02*
X3332Y1415D01*
X0Y1414D02*
X7Y1414D01*
X3325Y1414D02*
X3332Y1414D01*
X0Y1413D02*
X7Y1413D01*
X3325Y1413D02*
X3332Y1413D01*
X0Y1412D02*
X7Y1412D01*
X3325Y1412D02*
X3332Y1412D01*
X0Y1411D02*
X7Y1411D01*
X3325Y1411D02*
X3332Y1411D01*
X0Y1410D02*
X7Y1410D01*
X3325Y1410D02*
X3332Y1410D01*
X0Y1409D02*
X7Y1409D01*
X3325Y1409D02*
X3332Y1409D01*
X0Y1408D02*
X7Y1408D01*
X3325Y1408D02*
X3332Y1408D01*
X0Y1407D02*
X7Y1407D01*
X3325Y1407D02*
X3332Y1407D01*
X0Y1406D02*
X7Y1406D01*
X3325Y1406D02*
X3332Y1406D01*
X0Y1405D02*
X7Y1405D01*
X3325Y1405D02*
X3332Y1405D01*
X0Y1404D02*
X7Y1404D01*
X3325Y1404D02*
X3332Y1404D01*
X0Y1403D02*
X7Y1403D01*
X3325Y1403D02*
X3332Y1403D01*
X0Y1402D02*
X7Y1402D01*
X3325Y1402D02*
X3332Y1402D01*
X0Y1401D02*
X7Y1401D01*
X3325Y1401D02*
X3332Y1401D01*
X0Y1400D02*
X7Y1400D01*
X3325Y1400D02*
X3332Y1400D01*
X0Y1399D02*
X7Y1399D01*
X3325Y1399D02*
X3332Y1399D01*
X0Y1398D02*
X7Y1398D01*
X3325Y1398D02*
X3332Y1398D01*
X0Y1397D02*
X7Y1397D01*
X3325Y1397D02*
X3332Y1397D01*
X0Y1396D02*
X7Y1396D01*
X3325Y1396D02*
X3332Y1396D01*
X0Y1395D02*
X7Y1395D01*
X3325Y1395D02*
X3332Y1395D01*
X0Y1394D02*
X7Y1394D01*
X3325Y1394D02*
X3332Y1394D01*
X0Y1393D02*
X7Y1393D01*
X3325Y1393D02*
X3332Y1393D01*
X0Y1392D02*
X7Y1392D01*
X3325Y1392D02*
X3332Y1392D01*
X0Y1391D02*
X7Y1391D01*
X3325Y1391D02*
X3332Y1391D01*
X0Y1390D02*
X7Y1390D01*
X3325Y1390D02*
X3332Y1390D01*
X0Y1389D02*
X7Y1389D01*
X3325Y1389D02*
X3332Y1389D01*
X0Y1388D02*
X7Y1388D01*
X2964Y1388D02*
X2979Y1388D01*
X3325Y1388D02*
X3332Y1388D01*
X0Y1387D02*
X7Y1387D01*
X2962Y1387D02*
X2980Y1387D01*
X3325Y1387D02*
X3332Y1387D01*
X0Y1386D02*
X7Y1386D01*
X2961Y1386D02*
X2981Y1386D01*
X3325Y1386D02*
X3332Y1386D01*
X0Y1385D02*
X7Y1385D01*
X2960Y1385D02*
X2981Y1385D01*
X3325Y1385D02*
X3332Y1385D01*
X0Y1384D02*
X7Y1384D01*
X2959Y1384D02*
X2981Y1384D01*
X3325Y1384D02*
X3332Y1384D01*
X0Y1383D02*
X7Y1383D01*
X2958Y1383D02*
X2980Y1383D01*
X3325Y1383D02*
X3332Y1383D01*
X0Y1382D02*
X7Y1382D01*
X2958Y1382D02*
X2979Y1382D01*
X3325Y1382D02*
X3332Y1382D01*
X0Y1381D02*
X7Y1381D01*
X2957Y1381D02*
X2965Y1381D01*
X3325Y1381D02*
X3332Y1381D01*
X0Y1380D02*
X7Y1380D01*
X2957Y1380D02*
X2964Y1380D01*
X3325Y1380D02*
X3332Y1380D01*
X0Y1379D02*
X7Y1379D01*
X2957Y1379D02*
X2963Y1379D01*
X3325Y1379D02*
X3332Y1379D01*
X0Y1378D02*
X7Y1378D01*
X2957Y1378D02*
X2963Y1378D01*
X3325Y1378D02*
X3332Y1378D01*
X0Y1377D02*
X7Y1377D01*
X2957Y1377D02*
X2963Y1377D01*
X3325Y1377D02*
X3332Y1377D01*
X0Y1376D02*
X7Y1376D01*
X2957Y1376D02*
X2963Y1376D01*
X3325Y1376D02*
X3332Y1376D01*
X0Y1375D02*
X7Y1375D01*
X2957Y1375D02*
X2963Y1375D01*
X3325Y1375D02*
X3332Y1375D01*
X0Y1374D02*
X7Y1374D01*
X2957Y1374D02*
X2963Y1374D01*
X3325Y1374D02*
X3332Y1374D01*
X0Y1373D02*
X7Y1373D01*
X2957Y1373D02*
X2963Y1373D01*
X3325Y1373D02*
X3332Y1373D01*
X0Y1372D02*
X7Y1372D01*
X2957Y1372D02*
X2963Y1372D01*
X3325Y1372D02*
X3332Y1372D01*
X0Y1371D02*
X7Y1371D01*
X2957Y1371D02*
X2963Y1371D01*
X3325Y1371D02*
X3332Y1371D01*
X0Y1370D02*
X7Y1370D01*
X2957Y1370D02*
X2963Y1370D01*
X3325Y1370D02*
X3332Y1370D01*
X0Y1369D02*
X7Y1369D01*
X2957Y1369D02*
X2964Y1369D01*
X3325Y1369D02*
X3332Y1369D01*
X0Y1368D02*
X7Y1368D01*
X2958Y1368D02*
X2966Y1368D01*
X3325Y1368D02*
X3332Y1368D01*
X0Y1367D02*
X7Y1367D01*
X2958Y1367D02*
X3009Y1367D01*
X3325Y1367D02*
X3332Y1367D01*
X0Y1366D02*
X7Y1366D01*
X2959Y1366D02*
X3010Y1366D01*
X3325Y1366D02*
X3332Y1366D01*
X0Y1365D02*
X7Y1365D01*
X2959Y1365D02*
X3010Y1365D01*
X3325Y1365D02*
X3332Y1365D01*
X0Y1364D02*
X7Y1364D01*
X2960Y1364D02*
X3010Y1364D01*
X3325Y1364D02*
X3332Y1364D01*
X0Y1363D02*
X7Y1363D01*
X2961Y1363D02*
X3010Y1363D01*
X3325Y1363D02*
X3332Y1363D01*
X0Y1362D02*
X7Y1362D01*
X2963Y1362D02*
X3009Y1362D01*
X3325Y1362D02*
X3332Y1362D01*
X0Y1361D02*
X7Y1361D01*
X2966Y1361D02*
X3007Y1361D01*
X3325Y1361D02*
X3332Y1361D01*
X0Y1360D02*
X7Y1360D01*
X3325Y1360D02*
X3332Y1360D01*
X0Y1359D02*
X7Y1359D01*
X3325Y1359D02*
X3332Y1359D01*
X0Y1358D02*
X7Y1358D01*
X3325Y1358D02*
X3332Y1358D01*
X0Y1357D02*
X7Y1357D01*
X3325Y1357D02*
X3332Y1357D01*
X0Y1356D02*
X7Y1356D01*
X3325Y1356D02*
X3332Y1356D01*
X0Y1355D02*
X7Y1355D01*
X3325Y1355D02*
X3332Y1355D01*
X0Y1354D02*
X7Y1354D01*
X3325Y1354D02*
X3332Y1354D01*
X0Y1353D02*
X7Y1353D01*
X3325Y1353D02*
X3332Y1353D01*
X0Y1352D02*
X7Y1352D01*
X3325Y1352D02*
X3332Y1352D01*
X0Y1351D02*
X7Y1351D01*
X3325Y1351D02*
X3332Y1351D01*
X0Y1350D02*
X7Y1350D01*
X3325Y1350D02*
X3332Y1350D01*
X0Y1349D02*
X7Y1349D01*
X3325Y1349D02*
X3332Y1349D01*
X0Y1348D02*
X7Y1348D01*
X3325Y1348D02*
X3332Y1348D01*
X0Y1347D02*
X7Y1347D01*
X3325Y1347D02*
X3332Y1347D01*
X0Y1346D02*
X7Y1346D01*
X3325Y1346D02*
X3332Y1346D01*
X0Y1345D02*
X7Y1345D01*
X3325Y1345D02*
X3332Y1345D01*
X0Y1344D02*
X7Y1344D01*
X3325Y1344D02*
X3332Y1344D01*
X0Y1343D02*
X7Y1343D01*
X3325Y1343D02*
X3332Y1343D01*
X0Y1342D02*
X7Y1342D01*
X2961Y1342D02*
X3007Y1342D01*
X3325Y1342D02*
X3332Y1342D01*
X0Y1341D02*
X7Y1341D01*
X2958Y1341D02*
X3009Y1341D01*
X3325Y1341D02*
X3332Y1341D01*
X0Y1340D02*
X7Y1340D01*
X2957Y1340D02*
X3010Y1340D01*
X3325Y1340D02*
X3332Y1340D01*
X0Y1339D02*
X7Y1339D01*
X2957Y1339D02*
X3010Y1339D01*
X3325Y1339D02*
X3332Y1339D01*
X0Y1338D02*
X7Y1338D01*
X2957Y1338D02*
X3010Y1338D01*
X3325Y1338D02*
X3332Y1338D01*
X0Y1337D02*
X7Y1337D01*
X2957Y1337D02*
X3010Y1337D01*
X3325Y1337D02*
X3332Y1337D01*
X0Y1336D02*
X7Y1336D01*
X2957Y1336D02*
X3010Y1336D01*
X3325Y1336D02*
X3332Y1336D01*
X0Y1335D02*
X7Y1335D01*
X2957Y1335D02*
X2963Y1335D01*
X2974Y1335D02*
X2981Y1335D01*
X3004Y1335D02*
X3010Y1335D01*
X3325Y1335D02*
X3332Y1335D01*
X0Y1334D02*
X7Y1334D01*
X2957Y1334D02*
X2963Y1334D01*
X2975Y1334D02*
X2981Y1334D01*
X3004Y1334D02*
X3010Y1334D01*
X3325Y1334D02*
X3332Y1334D01*
X0Y1333D02*
X7Y1333D01*
X2957Y1333D02*
X2963Y1333D01*
X2975Y1333D02*
X2981Y1333D01*
X3005Y1333D02*
X3009Y1333D01*
X3325Y1333D02*
X3332Y1333D01*
X0Y1332D02*
X7Y1332D01*
X2957Y1332D02*
X2963Y1332D01*
X2975Y1332D02*
X2981Y1332D01*
X3006Y1332D02*
X3008Y1332D01*
X3325Y1332D02*
X3332Y1332D01*
X0Y1331D02*
X7Y1331D01*
X2957Y1331D02*
X2963Y1331D01*
X2975Y1331D02*
X2981Y1331D01*
X3325Y1331D02*
X3332Y1331D01*
X0Y1330D02*
X7Y1330D01*
X2957Y1330D02*
X2963Y1330D01*
X2975Y1330D02*
X2981Y1330D01*
X3325Y1330D02*
X3332Y1330D01*
X0Y1329D02*
X7Y1329D01*
X2957Y1329D02*
X2963Y1329D01*
X2975Y1329D02*
X2981Y1329D01*
X3325Y1329D02*
X3332Y1329D01*
X0Y1328D02*
X7Y1328D01*
X2957Y1328D02*
X2963Y1328D01*
X2975Y1328D02*
X2981Y1328D01*
X3325Y1328D02*
X3332Y1328D01*
X0Y1327D02*
X7Y1327D01*
X2957Y1327D02*
X2963Y1327D01*
X2975Y1327D02*
X2981Y1327D01*
X3325Y1327D02*
X3332Y1327D01*
X0Y1326D02*
X7Y1326D01*
X2957Y1326D02*
X2963Y1326D01*
X2975Y1326D02*
X2981Y1326D01*
X3325Y1326D02*
X3332Y1326D01*
X0Y1325D02*
X7Y1325D01*
X2957Y1325D02*
X2963Y1325D01*
X2975Y1325D02*
X2981Y1325D01*
X3325Y1325D02*
X3332Y1325D01*
X0Y1324D02*
X7Y1324D01*
X2957Y1324D02*
X2963Y1324D01*
X2975Y1324D02*
X2981Y1324D01*
X3325Y1324D02*
X3332Y1324D01*
X0Y1323D02*
X7Y1323D01*
X2957Y1323D02*
X2963Y1323D01*
X2975Y1323D02*
X2981Y1323D01*
X3325Y1323D02*
X3332Y1323D01*
X0Y1322D02*
X7Y1322D01*
X2957Y1322D02*
X2963Y1322D01*
X2975Y1322D02*
X2981Y1322D01*
X3325Y1322D02*
X3332Y1322D01*
X0Y1321D02*
X7Y1321D01*
X2957Y1321D02*
X2963Y1321D01*
X2975Y1321D02*
X2981Y1321D01*
X3325Y1321D02*
X3332Y1321D01*
X0Y1320D02*
X7Y1320D01*
X2957Y1320D02*
X2963Y1320D01*
X2975Y1320D02*
X2981Y1320D01*
X3325Y1320D02*
X3332Y1320D01*
X0Y1319D02*
X7Y1319D01*
X2957Y1319D02*
X2963Y1319D01*
X2975Y1319D02*
X2981Y1319D01*
X3325Y1319D02*
X3332Y1319D01*
X0Y1318D02*
X7Y1318D01*
X2957Y1318D02*
X2963Y1318D01*
X2975Y1318D02*
X2981Y1318D01*
X3325Y1318D02*
X3332Y1318D01*
X0Y1317D02*
X7Y1317D01*
X2957Y1317D02*
X2963Y1317D01*
X2975Y1317D02*
X2981Y1317D01*
X3325Y1317D02*
X3332Y1317D01*
X0Y1316D02*
X7Y1316D01*
X2957Y1316D02*
X2963Y1316D01*
X2975Y1316D02*
X2981Y1316D01*
X3325Y1316D02*
X3332Y1316D01*
X0Y1315D02*
X7Y1315D01*
X2957Y1315D02*
X2963Y1315D01*
X2975Y1315D02*
X2981Y1315D01*
X3325Y1315D02*
X3332Y1315D01*
X0Y1314D02*
X7Y1314D01*
X2957Y1314D02*
X2981Y1314D01*
X3325Y1314D02*
X3332Y1314D01*
X0Y1313D02*
X7Y1313D01*
X2957Y1313D02*
X2981Y1313D01*
X3325Y1313D02*
X3332Y1313D01*
X0Y1312D02*
X7Y1312D01*
X2957Y1312D02*
X2981Y1312D01*
X3325Y1312D02*
X3332Y1312D01*
X0Y1311D02*
X7Y1311D01*
X2957Y1311D02*
X2981Y1311D01*
X3325Y1311D02*
X3332Y1311D01*
X0Y1310D02*
X7Y1310D01*
X2957Y1310D02*
X2981Y1310D01*
X3325Y1310D02*
X3332Y1310D01*
X0Y1309D02*
X7Y1309D01*
X2958Y1309D02*
X2980Y1309D01*
X3325Y1309D02*
X3332Y1309D01*
X0Y1308D02*
X7Y1308D01*
X2959Y1308D02*
X2979Y1308D01*
X3325Y1308D02*
X3332Y1308D01*
X0Y1307D02*
X7Y1307D01*
X3325Y1307D02*
X3332Y1307D01*
X0Y1306D02*
X7Y1306D01*
X3325Y1306D02*
X3332Y1306D01*
X0Y1305D02*
X7Y1305D01*
X3325Y1305D02*
X3332Y1305D01*
X0Y1304D02*
X7Y1304D01*
X3325Y1304D02*
X3332Y1304D01*
X0Y1303D02*
X7Y1303D01*
X3325Y1303D02*
X3332Y1303D01*
X0Y1302D02*
X7Y1302D01*
X3325Y1302D02*
X3332Y1302D01*
X0Y1301D02*
X7Y1301D01*
X3325Y1301D02*
X3332Y1301D01*
X0Y1300D02*
X7Y1300D01*
X3325Y1300D02*
X3332Y1300D01*
X0Y1299D02*
X7Y1299D01*
X3325Y1299D02*
X3332Y1299D01*
X0Y1298D02*
X7Y1298D01*
X3325Y1298D02*
X3332Y1298D01*
X0Y1297D02*
X7Y1297D01*
X3325Y1297D02*
X3332Y1297D01*
X0Y1296D02*
X7Y1296D01*
X3325Y1296D02*
X3332Y1296D01*
X0Y1295D02*
X7Y1295D01*
X3325Y1295D02*
X3332Y1295D01*
X0Y1294D02*
X7Y1294D01*
X3325Y1294D02*
X3332Y1294D01*
X0Y1293D02*
X7Y1293D01*
X3325Y1293D02*
X3332Y1293D01*
X0Y1292D02*
X7Y1292D01*
X3325Y1292D02*
X3332Y1292D01*
X0Y1291D02*
X7Y1291D01*
X3325Y1291D02*
X3332Y1291D01*
X0Y1290D02*
X7Y1290D01*
X3325Y1290D02*
X3332Y1290D01*
X0Y1289D02*
X7Y1289D01*
X3325Y1289D02*
X3332Y1289D01*
X0Y1288D02*
X7Y1288D01*
X3325Y1288D02*
X3332Y1288D01*
X0Y1287D02*
X7Y1287D01*
X3325Y1287D02*
X3332Y1287D01*
X0Y1286D02*
X7Y1286D01*
X3325Y1286D02*
X3332Y1286D01*
X0Y1285D02*
X7Y1285D01*
X3325Y1285D02*
X3332Y1285D01*
X0Y1284D02*
X7Y1284D01*
X3325Y1284D02*
X3332Y1284D01*
X0Y1283D02*
X7Y1283D01*
X3325Y1283D02*
X3332Y1283D01*
X0Y1282D02*
X7Y1282D01*
X3325Y1282D02*
X3332Y1282D01*
X0Y1281D02*
X7Y1281D01*
X3325Y1281D02*
X3332Y1281D01*
X0Y1280D02*
X7Y1280D01*
X3325Y1280D02*
X3332Y1280D01*
X0Y1279D02*
X7Y1279D01*
X3325Y1279D02*
X3332Y1279D01*
X0Y1278D02*
X7Y1278D01*
X3325Y1278D02*
X3332Y1278D01*
X0Y1277D02*
X7Y1277D01*
X3325Y1277D02*
X3332Y1277D01*
X0Y1276D02*
X7Y1276D01*
X3325Y1276D02*
X3332Y1276D01*
X0Y1275D02*
X7Y1275D01*
X3325Y1275D02*
X3332Y1275D01*
X0Y1274D02*
X7Y1274D01*
X3325Y1274D02*
X3332Y1274D01*
X0Y1273D02*
X7Y1273D01*
X3325Y1273D02*
X3332Y1273D01*
X0Y1272D02*
X7Y1272D01*
X3325Y1272D02*
X3332Y1272D01*
X0Y1271D02*
X7Y1271D01*
X3325Y1271D02*
X3332Y1271D01*
X0Y1270D02*
X7Y1270D01*
X3325Y1270D02*
X3332Y1270D01*
X0Y1269D02*
X7Y1269D01*
X3325Y1269D02*
X3332Y1269D01*
X0Y1268D02*
X7Y1268D01*
X3325Y1268D02*
X3332Y1268D01*
X0Y1267D02*
X7Y1267D01*
X3325Y1267D02*
X3332Y1267D01*
X0Y1266D02*
X7Y1266D01*
X3325Y1266D02*
X3332Y1266D01*
X0Y1265D02*
X7Y1265D01*
X3325Y1265D02*
X3332Y1265D01*
X0Y1264D02*
X7Y1264D01*
X3325Y1264D02*
X3332Y1264D01*
X0Y1263D02*
X7Y1263D01*
X3325Y1263D02*
X3332Y1263D01*
X0Y1262D02*
X7Y1262D01*
X3325Y1262D02*
X3332Y1262D01*
X0Y1261D02*
X7Y1261D01*
X3325Y1261D02*
X3332Y1261D01*
X0Y1260D02*
X7Y1260D01*
X3325Y1260D02*
X3332Y1260D01*
X0Y1259D02*
X7Y1259D01*
X3325Y1259D02*
X3332Y1259D01*
X0Y1258D02*
X7Y1258D01*
X3325Y1258D02*
X3332Y1258D01*
X0Y1257D02*
X7Y1257D01*
X3325Y1257D02*
X3332Y1257D01*
X0Y1256D02*
X7Y1256D01*
X3325Y1256D02*
X3332Y1256D01*
X0Y1255D02*
X7Y1255D01*
X3325Y1255D02*
X3332Y1255D01*
X0Y1254D02*
X7Y1254D01*
X3325Y1254D02*
X3332Y1254D01*
X0Y1253D02*
X7Y1253D01*
X3325Y1253D02*
X3332Y1253D01*
X0Y1252D02*
X7Y1252D01*
X3325Y1252D02*
X3332Y1252D01*
X0Y1251D02*
X7Y1251D01*
X3325Y1251D02*
X3332Y1251D01*
X0Y1250D02*
X7Y1250D01*
X3325Y1250D02*
X3332Y1250D01*
X0Y1249D02*
X7Y1249D01*
X3325Y1249D02*
X3332Y1249D01*
X0Y1248D02*
X7Y1248D01*
X3325Y1248D02*
X3332Y1248D01*
X0Y1247D02*
X7Y1247D01*
X3325Y1247D02*
X3332Y1247D01*
X0Y1246D02*
X7Y1246D01*
X3325Y1246D02*
X3332Y1246D01*
X0Y1245D02*
X7Y1245D01*
X3325Y1245D02*
X3332Y1245D01*
X0Y1244D02*
X7Y1244D01*
X3325Y1244D02*
X3332Y1244D01*
X0Y1243D02*
X7Y1243D01*
X3325Y1243D02*
X3332Y1243D01*
X0Y1242D02*
X7Y1242D01*
X3325Y1242D02*
X3332Y1242D01*
X0Y1241D02*
X7Y1241D01*
X3325Y1241D02*
X3332Y1241D01*
X0Y1240D02*
X7Y1240D01*
X3325Y1240D02*
X3332Y1240D01*
X0Y1239D02*
X7Y1239D01*
X3325Y1239D02*
X3332Y1239D01*
X0Y1238D02*
X7Y1238D01*
X3325Y1238D02*
X3332Y1238D01*
X0Y1237D02*
X7Y1237D01*
X3325Y1237D02*
X3332Y1237D01*
X0Y1236D02*
X7Y1236D01*
X3325Y1236D02*
X3332Y1236D01*
X0Y1235D02*
X7Y1235D01*
X3325Y1235D02*
X3332Y1235D01*
X0Y1234D02*
X7Y1234D01*
X3325Y1234D02*
X3332Y1234D01*
X0Y1233D02*
X7Y1233D01*
X3325Y1233D02*
X3332Y1233D01*
X0Y1232D02*
X7Y1232D01*
X3325Y1232D02*
X3332Y1232D01*
X0Y1231D02*
X7Y1231D01*
X3325Y1231D02*
X3332Y1231D01*
X0Y1230D02*
X7Y1230D01*
X3325Y1230D02*
X3332Y1230D01*
X0Y1229D02*
X7Y1229D01*
X3325Y1229D02*
X3332Y1229D01*
X0Y1228D02*
X7Y1228D01*
X3325Y1228D02*
X3332Y1228D01*
X0Y1227D02*
X7Y1227D01*
X3325Y1227D02*
X3332Y1227D01*
X0Y1226D02*
X7Y1226D01*
X3325Y1226D02*
X3332Y1226D01*
X0Y1225D02*
X7Y1225D01*
X3325Y1225D02*
X3332Y1225D01*
X0Y1224D02*
X7Y1224D01*
X3325Y1224D02*
X3332Y1224D01*
X0Y1223D02*
X7Y1223D01*
X3325Y1223D02*
X3332Y1223D01*
X0Y1222D02*
X7Y1222D01*
X3325Y1222D02*
X3332Y1222D01*
X0Y1221D02*
X7Y1221D01*
X3325Y1221D02*
X3332Y1221D01*
X0Y1220D02*
X7Y1220D01*
X3325Y1220D02*
X3332Y1220D01*
X0Y1219D02*
X7Y1219D01*
X3325Y1219D02*
X3332Y1219D01*
X0Y1218D02*
X7Y1218D01*
X3325Y1218D02*
X3332Y1218D01*
X0Y1217D02*
X7Y1217D01*
X3325Y1217D02*
X3332Y1217D01*
X0Y1216D02*
X7Y1216D01*
X3325Y1216D02*
X3332Y1216D01*
X0Y1215D02*
X7Y1215D01*
X3325Y1215D02*
X3332Y1215D01*
X0Y1214D02*
X7Y1214D01*
X3325Y1214D02*
X3332Y1214D01*
X0Y1213D02*
X7Y1213D01*
X3325Y1213D02*
X3332Y1213D01*
X0Y1212D02*
X7Y1212D01*
X3325Y1212D02*
X3332Y1212D01*
X0Y1211D02*
X7Y1211D01*
X3325Y1211D02*
X3332Y1211D01*
X0Y1210D02*
X7Y1210D01*
X3325Y1210D02*
X3332Y1210D01*
X0Y1209D02*
X7Y1209D01*
X3325Y1209D02*
X3332Y1209D01*
X0Y1208D02*
X7Y1208D01*
X3325Y1208D02*
X3332Y1208D01*
X0Y1207D02*
X7Y1207D01*
X3325Y1207D02*
X3332Y1207D01*
X0Y1206D02*
X7Y1206D01*
X3325Y1206D02*
X3332Y1206D01*
X0Y1205D02*
X7Y1205D01*
X3325Y1205D02*
X3332Y1205D01*
X0Y1204D02*
X7Y1204D01*
X3325Y1204D02*
X3332Y1204D01*
X0Y1203D02*
X7Y1203D01*
X3325Y1203D02*
X3332Y1203D01*
X0Y1202D02*
X7Y1202D01*
X3325Y1202D02*
X3332Y1202D01*
X0Y1201D02*
X7Y1201D01*
X3325Y1201D02*
X3332Y1201D01*
X0Y1200D02*
X7Y1200D01*
X3325Y1200D02*
X3332Y1200D01*
X0Y1199D02*
X7Y1199D01*
X3325Y1199D02*
X3332Y1199D01*
X0Y1198D02*
X7Y1198D01*
X3325Y1198D02*
X3332Y1198D01*
X0Y1197D02*
X7Y1197D01*
X3325Y1197D02*
X3332Y1197D01*
X0Y1196D02*
X7Y1196D01*
X3325Y1196D02*
X3332Y1196D01*
X0Y1195D02*
X7Y1195D01*
X3325Y1195D02*
X3332Y1195D01*
X0Y1194D02*
X7Y1194D01*
X3325Y1194D02*
X3332Y1194D01*
X0Y1193D02*
X7Y1193D01*
X3325Y1193D02*
X3332Y1193D01*
X0Y1192D02*
X7Y1192D01*
X3325Y1192D02*
X3332Y1192D01*
X0Y1191D02*
X7Y1191D01*
X3325Y1191D02*
X3332Y1191D01*
X0Y1190D02*
X7Y1190D01*
X3325Y1190D02*
X3332Y1190D01*
X0Y1189D02*
X7Y1189D01*
X3325Y1189D02*
X3332Y1189D01*
X0Y1188D02*
X7Y1188D01*
X3325Y1188D02*
X3332Y1188D01*
X0Y1187D02*
X7Y1187D01*
X3325Y1187D02*
X3332Y1187D01*
X0Y1186D02*
X7Y1186D01*
X3325Y1186D02*
X3332Y1186D01*
X0Y1185D02*
X7Y1185D01*
X3325Y1185D02*
X3332Y1185D01*
X0Y1184D02*
X7Y1184D01*
X3325Y1184D02*
X3332Y1184D01*
X0Y1183D02*
X7Y1183D01*
X3325Y1183D02*
X3332Y1183D01*
X0Y1182D02*
X7Y1182D01*
X3325Y1182D02*
X3332Y1182D01*
X0Y1181D02*
X7Y1181D01*
X3325Y1181D02*
X3332Y1181D01*
X0Y1180D02*
X7Y1180D01*
X3325Y1180D02*
X3332Y1180D01*
X0Y1179D02*
X7Y1179D01*
X3325Y1179D02*
X3332Y1179D01*
X0Y1178D02*
X7Y1178D01*
X3325Y1178D02*
X3332Y1178D01*
X0Y1177D02*
X7Y1177D01*
X3325Y1177D02*
X3332Y1177D01*
X0Y1176D02*
X7Y1176D01*
X3325Y1176D02*
X3332Y1176D01*
X0Y1175D02*
X7Y1175D01*
X3325Y1175D02*
X3332Y1175D01*
X0Y1174D02*
X7Y1174D01*
X3325Y1174D02*
X3332Y1174D01*
X0Y1173D02*
X7Y1173D01*
X3325Y1173D02*
X3332Y1173D01*
X0Y1172D02*
X7Y1172D01*
X3325Y1172D02*
X3332Y1172D01*
X0Y1171D02*
X7Y1171D01*
X3325Y1171D02*
X3332Y1171D01*
X0Y1170D02*
X7Y1170D01*
X3325Y1170D02*
X3332Y1170D01*
X0Y1169D02*
X7Y1169D01*
X3325Y1169D02*
X3332Y1169D01*
X0Y1168D02*
X7Y1168D01*
X3325Y1168D02*
X3332Y1168D01*
X0Y1167D02*
X7Y1167D01*
X3325Y1167D02*
X3332Y1167D01*
X0Y1166D02*
X7Y1166D01*
X3325Y1166D02*
X3332Y1166D01*
X0Y1165D02*
X7Y1165D01*
X3325Y1165D02*
X3332Y1165D01*
X0Y1164D02*
X7Y1164D01*
X3325Y1164D02*
X3332Y1164D01*
X0Y1163D02*
X7Y1163D01*
X3325Y1163D02*
X3332Y1163D01*
X0Y1162D02*
X7Y1162D01*
X3325Y1162D02*
X3332Y1162D01*
X0Y1161D02*
X7Y1161D01*
X3325Y1161D02*
X3332Y1161D01*
X0Y1160D02*
X7Y1160D01*
X3325Y1160D02*
X3332Y1160D01*
X0Y1159D02*
X7Y1159D01*
X3325Y1159D02*
X3332Y1159D01*
X0Y1158D02*
X7Y1158D01*
X3325Y1158D02*
X3332Y1158D01*
X0Y1157D02*
X7Y1157D01*
X3325Y1157D02*
X3332Y1157D01*
X0Y1156D02*
X7Y1156D01*
X3325Y1156D02*
X3332Y1156D01*
X0Y1155D02*
X7Y1155D01*
X3325Y1155D02*
X3332Y1155D01*
X0Y1154D02*
X7Y1154D01*
X3325Y1154D02*
X3332Y1154D01*
X0Y1153D02*
X7Y1153D01*
X3325Y1153D02*
X3332Y1153D01*
X0Y1152D02*
X7Y1152D01*
X3325Y1152D02*
X3332Y1152D01*
X0Y1151D02*
X7Y1151D01*
X3325Y1151D02*
X3332Y1151D01*
X0Y1150D02*
X7Y1150D01*
X3325Y1150D02*
X3332Y1150D01*
X0Y1149D02*
X7Y1149D01*
X3325Y1149D02*
X3332Y1149D01*
X0Y1148D02*
X7Y1148D01*
X3325Y1148D02*
X3332Y1148D01*
X0Y1147D02*
X7Y1147D01*
X3325Y1147D02*
X3332Y1147D01*
X0Y1146D02*
X7Y1146D01*
X3325Y1146D02*
X3332Y1146D01*
X0Y1145D02*
X7Y1145D01*
X3325Y1145D02*
X3332Y1145D01*
X0Y1144D02*
X7Y1144D01*
X3325Y1144D02*
X3332Y1144D01*
X0Y1143D02*
X7Y1143D01*
X3325Y1143D02*
X3332Y1143D01*
X0Y1142D02*
X7Y1142D01*
X3325Y1142D02*
X3332Y1142D01*
X0Y1141D02*
X7Y1141D01*
X3325Y1141D02*
X3332Y1141D01*
X0Y1140D02*
X7Y1140D01*
X3325Y1140D02*
X3332Y1140D01*
X0Y1139D02*
X7Y1139D01*
X3325Y1139D02*
X3332Y1139D01*
X0Y1138D02*
X7Y1138D01*
X3325Y1138D02*
X3332Y1138D01*
X0Y1137D02*
X7Y1137D01*
X3325Y1137D02*
X3332Y1137D01*
X0Y1136D02*
X7Y1136D01*
X3325Y1136D02*
X3332Y1136D01*
X0Y1135D02*
X7Y1135D01*
X3325Y1135D02*
X3332Y1135D01*
X0Y1134D02*
X7Y1134D01*
X3325Y1134D02*
X3332Y1134D01*
X0Y1133D02*
X7Y1133D01*
X3325Y1133D02*
X3332Y1133D01*
X0Y1132D02*
X7Y1132D01*
X3325Y1132D02*
X3332Y1132D01*
X0Y1131D02*
X7Y1131D01*
X3325Y1131D02*
X3332Y1131D01*
X0Y1130D02*
X7Y1130D01*
X3325Y1130D02*
X3332Y1130D01*
X0Y1129D02*
X7Y1129D01*
X3325Y1129D02*
X3332Y1129D01*
X0Y1128D02*
X7Y1128D01*
X3325Y1128D02*
X3332Y1128D01*
X0Y1127D02*
X7Y1127D01*
X3325Y1127D02*
X3332Y1127D01*
X0Y1126D02*
X7Y1126D01*
X3325Y1126D02*
X3332Y1126D01*
X0Y1125D02*
X7Y1125D01*
X3325Y1125D02*
X3332Y1125D01*
X0Y1124D02*
X7Y1124D01*
X3325Y1124D02*
X3332Y1124D01*
X0Y1123D02*
X7Y1123D01*
X3325Y1123D02*
X3332Y1123D01*
X0Y1122D02*
X7Y1122D01*
X3325Y1122D02*
X3332Y1122D01*
X0Y1121D02*
X7Y1121D01*
X3325Y1121D02*
X3332Y1121D01*
X0Y1120D02*
X7Y1120D01*
X3325Y1120D02*
X3332Y1120D01*
X0Y1119D02*
X7Y1119D01*
X3325Y1119D02*
X3332Y1119D01*
X0Y1118D02*
X7Y1118D01*
X3325Y1118D02*
X3332Y1118D01*
X0Y1117D02*
X7Y1117D01*
X3325Y1117D02*
X3332Y1117D01*
X0Y1116D02*
X7Y1116D01*
X3325Y1116D02*
X3332Y1116D01*
X0Y1115D02*
X7Y1115D01*
X3325Y1115D02*
X3332Y1115D01*
X0Y1114D02*
X7Y1114D01*
X3325Y1114D02*
X3332Y1114D01*
X0Y1113D02*
X7Y1113D01*
X3325Y1113D02*
X3332Y1113D01*
X0Y1112D02*
X7Y1112D01*
X3325Y1112D02*
X3332Y1112D01*
X0Y1111D02*
X7Y1111D01*
X3325Y1111D02*
X3332Y1111D01*
X0Y1110D02*
X7Y1110D01*
X3325Y1110D02*
X3332Y1110D01*
X0Y1109D02*
X7Y1109D01*
X3325Y1109D02*
X3332Y1109D01*
X0Y1108D02*
X7Y1108D01*
X3325Y1108D02*
X3332Y1108D01*
X0Y1107D02*
X7Y1107D01*
X3325Y1107D02*
X3332Y1107D01*
X0Y1106D02*
X7Y1106D01*
X3325Y1106D02*
X3332Y1106D01*
X0Y1105D02*
X7Y1105D01*
X3325Y1105D02*
X3332Y1105D01*
X0Y1104D02*
X7Y1104D01*
X3325Y1104D02*
X3332Y1104D01*
X0Y1103D02*
X7Y1103D01*
X3325Y1103D02*
X3332Y1103D01*
X0Y1102D02*
X7Y1102D01*
X3325Y1102D02*
X3332Y1102D01*
X0Y1101D02*
X7Y1101D01*
X3325Y1101D02*
X3332Y1101D01*
X0Y1100D02*
X7Y1100D01*
X3325Y1100D02*
X3332Y1100D01*
X0Y1099D02*
X7Y1099D01*
X3325Y1099D02*
X3332Y1099D01*
X0Y1098D02*
X7Y1098D01*
X3325Y1098D02*
X3332Y1098D01*
X0Y1097D02*
X7Y1097D01*
X3325Y1097D02*
X3332Y1097D01*
X0Y1096D02*
X7Y1096D01*
X3325Y1096D02*
X3332Y1096D01*
X0Y1095D02*
X7Y1095D01*
X3325Y1095D02*
X3332Y1095D01*
X0Y1094D02*
X7Y1094D01*
X3325Y1094D02*
X3332Y1094D01*
X0Y1093D02*
X7Y1093D01*
X3325Y1093D02*
X3332Y1093D01*
X0Y1092D02*
X7Y1092D01*
X3325Y1092D02*
X3332Y1092D01*
X0Y1091D02*
X7Y1091D01*
X3325Y1091D02*
X3332Y1091D01*
X0Y1090D02*
X7Y1090D01*
X3325Y1090D02*
X3332Y1090D01*
X0Y1089D02*
X7Y1089D01*
X3325Y1089D02*
X3332Y1089D01*
X0Y1088D02*
X7Y1088D01*
X3325Y1088D02*
X3332Y1088D01*
X0Y1087D02*
X7Y1087D01*
X3325Y1087D02*
X3332Y1087D01*
X0Y1086D02*
X7Y1086D01*
X3325Y1086D02*
X3332Y1086D01*
X0Y1085D02*
X7Y1085D01*
X3325Y1085D02*
X3332Y1085D01*
X0Y1084D02*
X7Y1084D01*
X3325Y1084D02*
X3332Y1084D01*
X0Y1083D02*
X7Y1083D01*
X3325Y1083D02*
X3332Y1083D01*
X0Y1082D02*
X7Y1082D01*
X3325Y1082D02*
X3332Y1082D01*
X0Y1081D02*
X7Y1081D01*
X3325Y1081D02*
X3332Y1081D01*
X0Y1080D02*
X7Y1080D01*
X3325Y1080D02*
X3332Y1080D01*
X0Y1079D02*
X7Y1079D01*
X3325Y1079D02*
X3332Y1079D01*
X0Y1078D02*
X7Y1078D01*
X3325Y1078D02*
X3332Y1078D01*
X0Y1077D02*
X7Y1077D01*
X3325Y1077D02*
X3332Y1077D01*
X0Y1076D02*
X7Y1076D01*
X3325Y1076D02*
X3332Y1076D01*
X0Y1075D02*
X7Y1075D01*
X3325Y1075D02*
X3332Y1075D01*
X0Y1074D02*
X7Y1074D01*
X3325Y1074D02*
X3332Y1074D01*
X0Y1073D02*
X7Y1073D01*
X3325Y1073D02*
X3332Y1073D01*
X0Y1072D02*
X7Y1072D01*
X3325Y1072D02*
X3332Y1072D01*
X0Y1071D02*
X7Y1071D01*
X3325Y1071D02*
X3332Y1071D01*
X0Y1070D02*
X7Y1070D01*
X3325Y1070D02*
X3332Y1070D01*
X0Y1069D02*
X7Y1069D01*
X3325Y1069D02*
X3332Y1069D01*
X0Y1068D02*
X7Y1068D01*
X3325Y1068D02*
X3332Y1068D01*
X0Y1067D02*
X7Y1067D01*
X3325Y1067D02*
X3332Y1067D01*
X0Y1066D02*
X7Y1066D01*
X3325Y1066D02*
X3332Y1066D01*
X0Y1065D02*
X7Y1065D01*
X3325Y1065D02*
X3332Y1065D01*
X0Y1064D02*
X7Y1064D01*
X3325Y1064D02*
X3332Y1064D01*
X0Y1063D02*
X7Y1063D01*
X3325Y1063D02*
X3332Y1063D01*
X0Y1062D02*
X7Y1062D01*
X3325Y1062D02*
X3332Y1062D01*
X0Y1061D02*
X7Y1061D01*
X3325Y1061D02*
X3332Y1061D01*
X0Y1060D02*
X7Y1060D01*
X3325Y1060D02*
X3332Y1060D01*
X0Y1059D02*
X7Y1059D01*
X3325Y1059D02*
X3332Y1059D01*
X0Y1058D02*
X7Y1058D01*
X3325Y1058D02*
X3332Y1058D01*
X0Y1057D02*
X7Y1057D01*
X3325Y1057D02*
X3332Y1057D01*
X0Y1056D02*
X7Y1056D01*
X3325Y1056D02*
X3332Y1056D01*
X0Y1055D02*
X7Y1055D01*
X3325Y1055D02*
X3332Y1055D01*
X0Y1054D02*
X7Y1054D01*
X3325Y1054D02*
X3332Y1054D01*
X0Y1053D02*
X7Y1053D01*
X3325Y1053D02*
X3332Y1053D01*
X0Y1052D02*
X7Y1052D01*
X3325Y1052D02*
X3332Y1052D01*
X0Y1051D02*
X7Y1051D01*
X3325Y1051D02*
X3332Y1051D01*
X0Y1050D02*
X7Y1050D01*
X3325Y1050D02*
X3332Y1050D01*
X0Y1049D02*
X7Y1049D01*
X3325Y1049D02*
X3332Y1049D01*
X0Y1048D02*
X7Y1048D01*
X3325Y1048D02*
X3332Y1048D01*
X0Y1047D02*
X7Y1047D01*
X3325Y1047D02*
X3332Y1047D01*
X0Y1046D02*
X7Y1046D01*
X3325Y1046D02*
X3332Y1046D01*
X0Y1045D02*
X7Y1045D01*
X3325Y1045D02*
X3332Y1045D01*
X0Y1044D02*
X7Y1044D01*
X3325Y1044D02*
X3332Y1044D01*
X0Y1043D02*
X7Y1043D01*
X3325Y1043D02*
X3332Y1043D01*
X0Y1042D02*
X7Y1042D01*
X3325Y1042D02*
X3332Y1042D01*
X0Y1041D02*
X7Y1041D01*
X3325Y1041D02*
X3332Y1041D01*
X0Y1040D02*
X7Y1040D01*
X3325Y1040D02*
X3332Y1040D01*
X0Y1039D02*
X7Y1039D01*
X3325Y1039D02*
X3332Y1039D01*
X0Y1038D02*
X7Y1038D01*
X3325Y1038D02*
X3332Y1038D01*
X0Y1037D02*
X7Y1037D01*
X3325Y1037D02*
X3332Y1037D01*
X0Y1036D02*
X7Y1036D01*
X3325Y1036D02*
X3332Y1036D01*
X0Y1035D02*
X7Y1035D01*
X3325Y1035D02*
X3332Y1035D01*
X0Y1034D02*
X7Y1034D01*
X3325Y1034D02*
X3332Y1034D01*
X0Y1033D02*
X7Y1033D01*
X3325Y1033D02*
X3332Y1033D01*
X0Y1032D02*
X7Y1032D01*
X3325Y1032D02*
X3332Y1032D01*
X0Y1031D02*
X7Y1031D01*
X3325Y1031D02*
X3332Y1031D01*
X0Y1030D02*
X7Y1030D01*
X3325Y1030D02*
X3332Y1030D01*
X0Y1029D02*
X7Y1029D01*
X3325Y1029D02*
X3332Y1029D01*
X0Y1028D02*
X7Y1028D01*
X3325Y1028D02*
X3332Y1028D01*
X0Y1027D02*
X7Y1027D01*
X3325Y1027D02*
X3332Y1027D01*
X0Y1026D02*
X7Y1026D01*
X3325Y1026D02*
X3332Y1026D01*
X0Y1025D02*
X7Y1025D01*
X3325Y1025D02*
X3332Y1025D01*
X0Y1024D02*
X7Y1024D01*
X3325Y1024D02*
X3332Y1024D01*
X0Y1023D02*
X7Y1023D01*
X3325Y1023D02*
X3332Y1023D01*
X0Y1022D02*
X7Y1022D01*
X3325Y1022D02*
X3332Y1022D01*
X0Y1021D02*
X7Y1021D01*
X3325Y1021D02*
X3332Y1021D01*
X0Y1020D02*
X7Y1020D01*
X3325Y1020D02*
X3332Y1020D01*
X0Y1019D02*
X7Y1019D01*
X3325Y1019D02*
X3332Y1019D01*
X0Y1018D02*
X7Y1018D01*
X3325Y1018D02*
X3332Y1018D01*
X0Y1017D02*
X7Y1017D01*
X3325Y1017D02*
X3332Y1017D01*
X0Y1016D02*
X7Y1016D01*
X3325Y1016D02*
X3332Y1016D01*
X0Y1015D02*
X7Y1015D01*
X3325Y1015D02*
X3332Y1015D01*
X0Y1014D02*
X7Y1014D01*
X3325Y1014D02*
X3332Y1014D01*
X0Y1013D02*
X7Y1013D01*
X3325Y1013D02*
X3332Y1013D01*
X0Y1012D02*
X7Y1012D01*
X3325Y1012D02*
X3332Y1012D01*
X0Y1011D02*
X7Y1011D01*
X3325Y1011D02*
X3332Y1011D01*
X0Y1010D02*
X7Y1010D01*
X3325Y1010D02*
X3332Y1010D01*
X0Y1009D02*
X7Y1009D01*
X3325Y1009D02*
X3332Y1009D01*
X0Y1008D02*
X7Y1008D01*
X3325Y1008D02*
X3332Y1008D01*
X0Y1007D02*
X7Y1007D01*
X3325Y1007D02*
X3332Y1007D01*
X0Y1006D02*
X7Y1006D01*
X3325Y1006D02*
X3332Y1006D01*
X0Y1005D02*
X7Y1005D01*
X3325Y1005D02*
X3332Y1005D01*
X0Y1004D02*
X7Y1004D01*
X3325Y1004D02*
X3332Y1004D01*
X0Y1003D02*
X7Y1003D01*
X3325Y1003D02*
X3332Y1003D01*
X0Y1002D02*
X7Y1002D01*
X3325Y1002D02*
X3332Y1002D01*
X0Y1001D02*
X7Y1001D01*
X3325Y1001D02*
X3332Y1001D01*
X0Y1000D02*
X7Y1000D01*
X3325Y1000D02*
X3332Y1000D01*
X0Y999D02*
X7Y999D01*
X3325Y999D02*
X3332Y999D01*
X0Y998D02*
X7Y998D01*
X3325Y998D02*
X3332Y998D01*
X0Y997D02*
X7Y997D01*
X3325Y997D02*
X3332Y997D01*
X0Y996D02*
X7Y996D01*
X3325Y996D02*
X3332Y996D01*
X0Y995D02*
X7Y995D01*
X3325Y995D02*
X3332Y995D01*
X0Y994D02*
X7Y994D01*
X3325Y994D02*
X3332Y994D01*
X0Y993D02*
X7Y993D01*
X3325Y993D02*
X3332Y993D01*
X0Y992D02*
X7Y992D01*
X3325Y992D02*
X3332Y992D01*
X0Y991D02*
X7Y991D01*
X3325Y991D02*
X3332Y991D01*
X0Y990D02*
X7Y990D01*
X3325Y990D02*
X3332Y990D01*
X0Y989D02*
X7Y989D01*
X3325Y989D02*
X3332Y989D01*
X0Y988D02*
X7Y988D01*
X3325Y988D02*
X3332Y988D01*
X0Y987D02*
X7Y987D01*
X3325Y987D02*
X3332Y987D01*
X0Y986D02*
X7Y986D01*
X3325Y986D02*
X3332Y986D01*
X0Y985D02*
X7Y985D01*
X3325Y985D02*
X3332Y985D01*
X0Y984D02*
X7Y984D01*
X3325Y984D02*
X3332Y984D01*
X0Y983D02*
X7Y983D01*
X3325Y983D02*
X3332Y983D01*
X0Y982D02*
X7Y982D01*
X3325Y982D02*
X3332Y982D01*
X0Y981D02*
X7Y981D01*
X3325Y981D02*
X3332Y981D01*
X0Y980D02*
X7Y980D01*
X3325Y980D02*
X3332Y980D01*
X0Y979D02*
X7Y979D01*
X3325Y979D02*
X3332Y979D01*
X0Y978D02*
X7Y978D01*
X3325Y978D02*
X3332Y978D01*
X0Y977D02*
X7Y977D01*
X3325Y977D02*
X3332Y977D01*
X0Y976D02*
X7Y976D01*
X3325Y976D02*
X3332Y976D01*
X0Y975D02*
X7Y975D01*
X3325Y975D02*
X3332Y975D01*
X0Y974D02*
X7Y974D01*
X3325Y974D02*
X3332Y974D01*
X0Y973D02*
X7Y973D01*
X3325Y973D02*
X3332Y973D01*
X0Y972D02*
X7Y972D01*
X3325Y972D02*
X3332Y972D01*
X0Y971D02*
X7Y971D01*
X3325Y971D02*
X3332Y971D01*
X0Y970D02*
X7Y970D01*
X3325Y970D02*
X3332Y970D01*
X0Y969D02*
X7Y969D01*
X3325Y969D02*
X3332Y969D01*
X0Y968D02*
X7Y968D01*
X3325Y968D02*
X3332Y968D01*
X0Y967D02*
X7Y967D01*
X3325Y967D02*
X3332Y967D01*
X0Y966D02*
X7Y966D01*
X3325Y966D02*
X3332Y966D01*
X0Y965D02*
X7Y965D01*
X3325Y965D02*
X3332Y965D01*
X0Y964D02*
X7Y964D01*
X3325Y964D02*
X3332Y964D01*
X0Y963D02*
X7Y963D01*
X3325Y963D02*
X3332Y963D01*
X0Y962D02*
X7Y962D01*
X3325Y962D02*
X3332Y962D01*
X0Y961D02*
X7Y961D01*
X3325Y961D02*
X3332Y961D01*
X0Y960D02*
X7Y960D01*
X3325Y960D02*
X3332Y960D01*
X0Y959D02*
X7Y959D01*
X3325Y959D02*
X3332Y959D01*
X0Y958D02*
X7Y958D01*
X3325Y958D02*
X3332Y958D01*
X0Y957D02*
X7Y957D01*
X3325Y957D02*
X3332Y957D01*
X0Y956D02*
X7Y956D01*
X3325Y956D02*
X3332Y956D01*
X0Y955D02*
X7Y955D01*
X3325Y955D02*
X3332Y955D01*
X0Y954D02*
X7Y954D01*
X3325Y954D02*
X3332Y954D01*
X0Y953D02*
X7Y953D01*
X3325Y953D02*
X3332Y953D01*
X0Y952D02*
X7Y952D01*
X3325Y952D02*
X3332Y952D01*
X0Y951D02*
X7Y951D01*
X3325Y951D02*
X3332Y951D01*
X0Y950D02*
X7Y950D01*
X3325Y950D02*
X3332Y950D01*
X0Y949D02*
X7Y949D01*
X3325Y949D02*
X3332Y949D01*
X0Y948D02*
X7Y948D01*
X3325Y948D02*
X3332Y948D01*
X0Y947D02*
X7Y947D01*
X3325Y947D02*
X3332Y947D01*
X0Y946D02*
X7Y946D01*
X3325Y946D02*
X3332Y946D01*
X0Y945D02*
X7Y945D01*
X3325Y945D02*
X3332Y945D01*
X0Y944D02*
X7Y944D01*
X3325Y944D02*
X3332Y944D01*
X0Y943D02*
X7Y943D01*
X3325Y943D02*
X3332Y943D01*
X0Y942D02*
X7Y942D01*
X3325Y942D02*
X3332Y942D01*
X0Y941D02*
X7Y941D01*
X3325Y941D02*
X3332Y941D01*
X0Y940D02*
X7Y940D01*
X3325Y940D02*
X3332Y940D01*
X0Y939D02*
X7Y939D01*
X3325Y939D02*
X3332Y939D01*
X0Y938D02*
X7Y938D01*
X3325Y938D02*
X3332Y938D01*
X0Y937D02*
X7Y937D01*
X3325Y937D02*
X3332Y937D01*
X0Y936D02*
X7Y936D01*
X3325Y936D02*
X3332Y936D01*
X0Y935D02*
X7Y935D01*
X3325Y935D02*
X3332Y935D01*
X0Y934D02*
X7Y934D01*
X3325Y934D02*
X3332Y934D01*
X0Y933D02*
X7Y933D01*
X3325Y933D02*
X3332Y933D01*
X0Y932D02*
X7Y932D01*
X3325Y932D02*
X3332Y932D01*
X0Y931D02*
X7Y931D01*
X3325Y931D02*
X3332Y931D01*
X0Y930D02*
X7Y930D01*
X3325Y930D02*
X3332Y930D01*
X0Y929D02*
X7Y929D01*
X3325Y929D02*
X3332Y929D01*
X0Y928D02*
X7Y928D01*
X3325Y928D02*
X3332Y928D01*
X0Y927D02*
X7Y927D01*
X3325Y927D02*
X3332Y927D01*
X0Y926D02*
X7Y926D01*
X3325Y926D02*
X3332Y926D01*
X0Y925D02*
X7Y925D01*
X3325Y925D02*
X3332Y925D01*
X0Y924D02*
X7Y924D01*
X3325Y924D02*
X3332Y924D01*
X0Y923D02*
X7Y923D01*
X3325Y923D02*
X3332Y923D01*
X0Y922D02*
X7Y922D01*
X3325Y922D02*
X3332Y922D01*
X0Y921D02*
X7Y921D01*
X3325Y921D02*
X3332Y921D01*
X0Y920D02*
X7Y920D01*
X3325Y920D02*
X3332Y920D01*
X0Y919D02*
X7Y919D01*
X3325Y919D02*
X3332Y919D01*
X0Y918D02*
X7Y918D01*
X3325Y918D02*
X3332Y918D01*
X0Y917D02*
X7Y917D01*
X3325Y917D02*
X3332Y917D01*
X0Y916D02*
X7Y916D01*
X3325Y916D02*
X3332Y916D01*
X0Y915D02*
X7Y915D01*
X3325Y915D02*
X3332Y915D01*
X0Y914D02*
X7Y914D01*
X3325Y914D02*
X3332Y914D01*
X0Y913D02*
X7Y913D01*
X3325Y913D02*
X3332Y913D01*
X0Y912D02*
X7Y912D01*
X3325Y912D02*
X3332Y912D01*
X0Y911D02*
X7Y911D01*
X3325Y911D02*
X3332Y911D01*
X0Y910D02*
X7Y910D01*
X3325Y910D02*
X3332Y910D01*
X0Y909D02*
X7Y909D01*
X3325Y909D02*
X3332Y909D01*
X0Y908D02*
X7Y908D01*
X3325Y908D02*
X3332Y908D01*
X0Y907D02*
X7Y907D01*
X3325Y907D02*
X3332Y907D01*
X0Y906D02*
X7Y906D01*
X3325Y906D02*
X3332Y906D01*
X0Y905D02*
X7Y905D01*
X3325Y905D02*
X3332Y905D01*
X0Y904D02*
X7Y904D01*
X3325Y904D02*
X3332Y904D01*
X0Y903D02*
X7Y903D01*
X3325Y903D02*
X3332Y903D01*
X0Y902D02*
X7Y902D01*
X3325Y902D02*
X3332Y902D01*
X0Y901D02*
X7Y901D01*
X3325Y901D02*
X3332Y901D01*
X0Y900D02*
X7Y900D01*
X3325Y900D02*
X3332Y900D01*
X0Y899D02*
X7Y899D01*
X3325Y899D02*
X3332Y899D01*
X0Y898D02*
X7Y898D01*
X3325Y898D02*
X3332Y898D01*
X0Y897D02*
X7Y897D01*
X3325Y897D02*
X3332Y897D01*
X0Y896D02*
X7Y896D01*
X3325Y896D02*
X3332Y896D01*
X0Y895D02*
X7Y895D01*
X3325Y895D02*
X3332Y895D01*
X0Y894D02*
X7Y894D01*
X3325Y894D02*
X3332Y894D01*
X0Y893D02*
X7Y893D01*
X3325Y893D02*
X3332Y893D01*
X0Y892D02*
X7Y892D01*
X3325Y892D02*
X3332Y892D01*
X0Y891D02*
X7Y891D01*
X3325Y891D02*
X3332Y891D01*
X0Y890D02*
X7Y890D01*
X3325Y890D02*
X3332Y890D01*
X0Y889D02*
X7Y889D01*
X3325Y889D02*
X3332Y889D01*
X0Y888D02*
X7Y888D01*
X3325Y888D02*
X3332Y888D01*
X0Y887D02*
X7Y887D01*
X3325Y887D02*
X3332Y887D01*
X0Y886D02*
X7Y886D01*
X3325Y886D02*
X3332Y886D01*
X0Y885D02*
X7Y885D01*
X3325Y885D02*
X3332Y885D01*
X0Y884D02*
X7Y884D01*
X3325Y884D02*
X3332Y884D01*
X0Y883D02*
X7Y883D01*
X3325Y883D02*
X3332Y883D01*
X0Y882D02*
X7Y882D01*
X3325Y882D02*
X3332Y882D01*
X0Y881D02*
X7Y881D01*
X3325Y881D02*
X3332Y881D01*
X0Y880D02*
X7Y880D01*
X3325Y880D02*
X3332Y880D01*
X0Y879D02*
X7Y879D01*
X3325Y879D02*
X3332Y879D01*
X0Y878D02*
X7Y878D01*
X3325Y878D02*
X3332Y878D01*
X0Y877D02*
X7Y877D01*
X3325Y877D02*
X3332Y877D01*
X0Y876D02*
X7Y876D01*
X3325Y876D02*
X3332Y876D01*
X0Y875D02*
X7Y875D01*
X3325Y875D02*
X3332Y875D01*
X0Y874D02*
X7Y874D01*
X3325Y874D02*
X3332Y874D01*
X0Y873D02*
X7Y873D01*
X3325Y873D02*
X3332Y873D01*
X0Y872D02*
X7Y872D01*
X3325Y872D02*
X3332Y872D01*
X0Y871D02*
X7Y871D01*
X3325Y871D02*
X3332Y871D01*
X0Y870D02*
X7Y870D01*
X3325Y870D02*
X3332Y870D01*
X0Y869D02*
X7Y869D01*
X3325Y869D02*
X3332Y869D01*
X0Y868D02*
X7Y868D01*
X3325Y868D02*
X3332Y868D01*
X0Y867D02*
X7Y867D01*
X3325Y867D02*
X3332Y867D01*
X0Y866D02*
X7Y866D01*
X3325Y866D02*
X3332Y866D01*
X0Y865D02*
X7Y865D01*
X3325Y865D02*
X3332Y865D01*
X0Y864D02*
X7Y864D01*
X3325Y864D02*
X3332Y864D01*
X0Y863D02*
X7Y863D01*
X3325Y863D02*
X3332Y863D01*
X0Y862D02*
X7Y862D01*
X3325Y862D02*
X3332Y862D01*
X0Y861D02*
X7Y861D01*
X3325Y861D02*
X3332Y861D01*
X0Y860D02*
X7Y860D01*
X3325Y860D02*
X3332Y860D01*
X0Y859D02*
X7Y859D01*
X3325Y859D02*
X3332Y859D01*
X0Y858D02*
X7Y858D01*
X3325Y858D02*
X3332Y858D01*
X0Y857D02*
X7Y857D01*
X3325Y857D02*
X3332Y857D01*
X0Y856D02*
X7Y856D01*
X3325Y856D02*
X3332Y856D01*
X0Y855D02*
X7Y855D01*
X3325Y855D02*
X3332Y855D01*
X0Y854D02*
X7Y854D01*
X3325Y854D02*
X3332Y854D01*
X0Y853D02*
X7Y853D01*
X3325Y853D02*
X3332Y853D01*
X0Y852D02*
X7Y852D01*
X3325Y852D02*
X3332Y852D01*
X0Y851D02*
X7Y851D01*
X3325Y851D02*
X3332Y851D01*
X0Y850D02*
X7Y850D01*
X3325Y850D02*
X3332Y850D01*
X0Y849D02*
X7Y849D01*
X3325Y849D02*
X3332Y849D01*
X0Y848D02*
X7Y848D01*
X3325Y848D02*
X3332Y848D01*
X0Y847D02*
X7Y847D01*
X3325Y847D02*
X3332Y847D01*
X0Y846D02*
X7Y846D01*
X3325Y846D02*
X3332Y846D01*
X0Y845D02*
X7Y845D01*
X3325Y845D02*
X3332Y845D01*
X0Y844D02*
X7Y844D01*
X3325Y844D02*
X3332Y844D01*
X0Y843D02*
X7Y843D01*
X3325Y843D02*
X3332Y843D01*
X0Y842D02*
X7Y842D01*
X3325Y842D02*
X3332Y842D01*
X0Y841D02*
X7Y841D01*
X3325Y841D02*
X3332Y841D01*
X0Y840D02*
X7Y840D01*
X3325Y840D02*
X3332Y840D01*
X0Y839D02*
X7Y839D01*
X3325Y839D02*
X3332Y839D01*
X0Y838D02*
X7Y838D01*
X3325Y838D02*
X3332Y838D01*
X0Y837D02*
X7Y837D01*
X3325Y837D02*
X3332Y837D01*
X0Y836D02*
X7Y836D01*
X3325Y836D02*
X3332Y836D01*
X0Y835D02*
X7Y835D01*
X3325Y835D02*
X3332Y835D01*
X0Y834D02*
X7Y834D01*
X3325Y834D02*
X3332Y834D01*
X0Y833D02*
X7Y833D01*
X3325Y833D02*
X3332Y833D01*
X0Y832D02*
X7Y832D01*
X3325Y832D02*
X3332Y832D01*
X0Y831D02*
X7Y831D01*
X3325Y831D02*
X3332Y831D01*
X0Y830D02*
X7Y830D01*
X3325Y830D02*
X3332Y830D01*
X0Y829D02*
X7Y829D01*
X3325Y829D02*
X3332Y829D01*
X0Y828D02*
X7Y828D01*
X3325Y828D02*
X3332Y828D01*
X0Y827D02*
X7Y827D01*
X3325Y827D02*
X3332Y827D01*
X0Y826D02*
X7Y826D01*
X3325Y826D02*
X3332Y826D01*
X0Y825D02*
X7Y825D01*
X3325Y825D02*
X3332Y825D01*
X0Y824D02*
X7Y824D01*
X3325Y824D02*
X3332Y824D01*
X0Y823D02*
X7Y823D01*
X3325Y823D02*
X3332Y823D01*
X0Y822D02*
X7Y822D01*
X3325Y822D02*
X3332Y822D01*
X0Y821D02*
X7Y821D01*
X3325Y821D02*
X3332Y821D01*
X0Y820D02*
X7Y820D01*
X3325Y820D02*
X3332Y820D01*
X0Y819D02*
X7Y819D01*
X3325Y819D02*
X3332Y819D01*
X0Y818D02*
X7Y818D01*
X3325Y818D02*
X3332Y818D01*
X0Y817D02*
X7Y817D01*
X3325Y817D02*
X3332Y817D01*
X0Y816D02*
X7Y816D01*
X3325Y816D02*
X3332Y816D01*
X0Y815D02*
X7Y815D01*
X3325Y815D02*
X3332Y815D01*
X0Y814D02*
X7Y814D01*
X3325Y814D02*
X3332Y814D01*
X0Y813D02*
X7Y813D01*
X3325Y813D02*
X3332Y813D01*
X0Y812D02*
X7Y812D01*
X3325Y812D02*
X3332Y812D01*
X0Y811D02*
X7Y811D01*
X3325Y811D02*
X3332Y811D01*
X0Y810D02*
X7Y810D01*
X3325Y810D02*
X3332Y810D01*
X0Y809D02*
X7Y809D01*
X3325Y809D02*
X3332Y809D01*
X0Y808D02*
X7Y808D01*
X3325Y808D02*
X3332Y808D01*
X0Y807D02*
X7Y807D01*
X3325Y807D02*
X3332Y807D01*
X0Y806D02*
X7Y806D01*
X3325Y806D02*
X3332Y806D01*
X0Y805D02*
X7Y805D01*
X3325Y805D02*
X3332Y805D01*
X0Y804D02*
X7Y804D01*
X3325Y804D02*
X3332Y804D01*
X0Y803D02*
X7Y803D01*
X3325Y803D02*
X3332Y803D01*
X0Y802D02*
X7Y802D01*
X3325Y802D02*
X3332Y802D01*
X0Y801D02*
X7Y801D01*
X3325Y801D02*
X3332Y801D01*
X0Y800D02*
X7Y800D01*
X3325Y800D02*
X3332Y800D01*
X0Y799D02*
X7Y799D01*
X3325Y799D02*
X3332Y799D01*
X0Y798D02*
X7Y798D01*
X3325Y798D02*
X3332Y798D01*
X0Y797D02*
X7Y797D01*
X3325Y797D02*
X3332Y797D01*
X0Y796D02*
X7Y796D01*
X3325Y796D02*
X3332Y796D01*
X0Y795D02*
X7Y795D01*
X3325Y795D02*
X3332Y795D01*
X0Y794D02*
X7Y794D01*
X3325Y794D02*
X3332Y794D01*
X0Y793D02*
X7Y793D01*
X3325Y793D02*
X3332Y793D01*
X0Y792D02*
X7Y792D01*
X3325Y792D02*
X3332Y792D01*
X0Y791D02*
X7Y791D01*
X3325Y791D02*
X3332Y791D01*
X0Y790D02*
X7Y790D01*
X3325Y790D02*
X3332Y790D01*
X0Y789D02*
X7Y789D01*
X3325Y789D02*
X3332Y789D01*
X0Y788D02*
X7Y788D01*
X3325Y788D02*
X3332Y788D01*
X0Y787D02*
X7Y787D01*
X3325Y787D02*
X3332Y787D01*
X0Y786D02*
X7Y786D01*
X3325Y786D02*
X3332Y786D01*
X0Y785D02*
X7Y785D01*
X3325Y785D02*
X3332Y785D01*
X0Y784D02*
X7Y784D01*
X3325Y784D02*
X3332Y784D01*
X0Y783D02*
X7Y783D01*
X3325Y783D02*
X3332Y783D01*
X0Y782D02*
X7Y782D01*
X3325Y782D02*
X3332Y782D01*
X0Y781D02*
X7Y781D01*
X3325Y781D02*
X3332Y781D01*
X0Y780D02*
X7Y780D01*
X3325Y780D02*
X3332Y780D01*
X0Y779D02*
X7Y779D01*
X3325Y779D02*
X3332Y779D01*
X0Y778D02*
X7Y778D01*
X3325Y778D02*
X3332Y778D01*
X0Y777D02*
X7Y777D01*
X3325Y777D02*
X3332Y777D01*
X0Y776D02*
X7Y776D01*
X3325Y776D02*
X3332Y776D01*
X0Y775D02*
X7Y775D01*
X3325Y775D02*
X3332Y775D01*
X0Y774D02*
X7Y774D01*
X3325Y774D02*
X3332Y774D01*
X0Y773D02*
X7Y773D01*
X3325Y773D02*
X3332Y773D01*
X0Y772D02*
X7Y772D01*
X3325Y772D02*
X3332Y772D01*
X0Y771D02*
X7Y771D01*
X3325Y771D02*
X3332Y771D01*
X0Y770D02*
X7Y770D01*
X3325Y770D02*
X3332Y770D01*
X0Y769D02*
X7Y769D01*
X3325Y769D02*
X3332Y769D01*
X0Y768D02*
X7Y768D01*
X3325Y768D02*
X3332Y768D01*
X0Y767D02*
X7Y767D01*
X3325Y767D02*
X3332Y767D01*
X0Y766D02*
X7Y766D01*
X3325Y766D02*
X3332Y766D01*
X0Y765D02*
X7Y765D01*
X3325Y765D02*
X3332Y765D01*
X0Y764D02*
X7Y764D01*
X3325Y764D02*
X3332Y764D01*
X0Y763D02*
X7Y763D01*
X3325Y763D02*
X3332Y763D01*
X0Y762D02*
X7Y762D01*
X3325Y762D02*
X3332Y762D01*
X0Y761D02*
X7Y761D01*
X3325Y761D02*
X3332Y761D01*
X0Y760D02*
X7Y760D01*
X3325Y760D02*
X3332Y760D01*
X0Y759D02*
X7Y759D01*
X3325Y759D02*
X3332Y759D01*
X0Y758D02*
X7Y758D01*
X3325Y758D02*
X3332Y758D01*
X0Y757D02*
X7Y757D01*
X3325Y757D02*
X3332Y757D01*
X0Y756D02*
X7Y756D01*
X3325Y756D02*
X3332Y756D01*
X0Y755D02*
X7Y755D01*
X3325Y755D02*
X3332Y755D01*
X0Y754D02*
X7Y754D01*
X3325Y754D02*
X3332Y754D01*
X0Y753D02*
X7Y753D01*
X3325Y753D02*
X3332Y753D01*
X0Y752D02*
X7Y752D01*
X3325Y752D02*
X3332Y752D01*
X0Y751D02*
X7Y751D01*
X3325Y751D02*
X3332Y751D01*
X0Y750D02*
X7Y750D01*
X3325Y750D02*
X3332Y750D01*
X0Y749D02*
X7Y749D01*
X3325Y749D02*
X3332Y749D01*
X0Y748D02*
X7Y748D01*
X3325Y748D02*
X3332Y748D01*
X0Y747D02*
X7Y747D01*
X3325Y747D02*
X3332Y747D01*
X0Y746D02*
X7Y746D01*
X3325Y746D02*
X3332Y746D01*
X0Y745D02*
X7Y745D01*
X3325Y745D02*
X3332Y745D01*
X0Y744D02*
X7Y744D01*
X3325Y744D02*
X3332Y744D01*
X0Y743D02*
X7Y743D01*
X3325Y743D02*
X3332Y743D01*
X0Y742D02*
X7Y742D01*
X3325Y742D02*
X3332Y742D01*
X0Y741D02*
X7Y741D01*
X3325Y741D02*
X3332Y741D01*
X0Y740D02*
X7Y740D01*
X3325Y740D02*
X3332Y740D01*
X0Y739D02*
X7Y739D01*
X3325Y739D02*
X3332Y739D01*
X0Y738D02*
X7Y738D01*
X3325Y738D02*
X3332Y738D01*
X0Y737D02*
X7Y737D01*
X3325Y737D02*
X3332Y737D01*
X0Y736D02*
X7Y736D01*
X3325Y736D02*
X3332Y736D01*
X0Y735D02*
X7Y735D01*
X3325Y735D02*
X3332Y735D01*
X0Y734D02*
X7Y734D01*
X3325Y734D02*
X3332Y734D01*
X0Y733D02*
X7Y733D01*
X3325Y733D02*
X3332Y733D01*
X0Y732D02*
X7Y732D01*
X3325Y732D02*
X3332Y732D01*
X0Y731D02*
X7Y731D01*
X3325Y731D02*
X3332Y731D01*
X0Y730D02*
X7Y730D01*
X3325Y730D02*
X3332Y730D01*
X0Y729D02*
X7Y729D01*
X3325Y729D02*
X3332Y729D01*
X0Y728D02*
X7Y728D01*
X3325Y728D02*
X3332Y728D01*
X0Y727D02*
X7Y727D01*
X3325Y727D02*
X3332Y727D01*
X0Y726D02*
X7Y726D01*
X3325Y726D02*
X3332Y726D01*
X0Y725D02*
X7Y725D01*
X3325Y725D02*
X3332Y725D01*
X0Y724D02*
X7Y724D01*
X3325Y724D02*
X3332Y724D01*
X0Y723D02*
X7Y723D01*
X3325Y723D02*
X3332Y723D01*
X0Y722D02*
X7Y722D01*
X3325Y722D02*
X3332Y722D01*
X0Y721D02*
X7Y721D01*
X3325Y721D02*
X3332Y721D01*
X0Y720D02*
X7Y720D01*
X3325Y720D02*
X3332Y720D01*
X0Y719D02*
X7Y719D01*
X3325Y719D02*
X3332Y719D01*
X0Y718D02*
X7Y718D01*
X3325Y718D02*
X3332Y718D01*
X0Y717D02*
X7Y717D01*
X3325Y717D02*
X3332Y717D01*
X0Y716D02*
X7Y716D01*
X3325Y716D02*
X3332Y716D01*
X0Y715D02*
X7Y715D01*
X3325Y715D02*
X3332Y715D01*
X0Y714D02*
X7Y714D01*
X3325Y714D02*
X3332Y714D01*
X0Y713D02*
X7Y713D01*
X3325Y713D02*
X3332Y713D01*
X0Y712D02*
X7Y712D01*
X3325Y712D02*
X3332Y712D01*
X0Y711D02*
X7Y711D01*
X3325Y711D02*
X3332Y711D01*
X0Y710D02*
X7Y710D01*
X3325Y710D02*
X3332Y710D01*
X0Y709D02*
X7Y709D01*
X3325Y709D02*
X3332Y709D01*
X0Y708D02*
X7Y708D01*
X3325Y708D02*
X3332Y708D01*
X0Y707D02*
X7Y707D01*
X3325Y707D02*
X3332Y707D01*
X0Y706D02*
X7Y706D01*
X3325Y706D02*
X3332Y706D01*
X0Y705D02*
X7Y705D01*
X3325Y705D02*
X3332Y705D01*
X0Y704D02*
X7Y704D01*
X3325Y704D02*
X3332Y704D01*
X0Y703D02*
X7Y703D01*
X3325Y703D02*
X3332Y703D01*
X0Y702D02*
X7Y702D01*
X3325Y702D02*
X3332Y702D01*
X0Y701D02*
X7Y701D01*
X3325Y701D02*
X3332Y701D01*
X0Y700D02*
X7Y700D01*
X3325Y700D02*
X3332Y700D01*
X0Y699D02*
X7Y699D01*
X3325Y699D02*
X3332Y699D01*
X0Y698D02*
X7Y698D01*
X3325Y698D02*
X3332Y698D01*
X0Y697D02*
X7Y697D01*
X3325Y697D02*
X3332Y697D01*
X0Y696D02*
X7Y696D01*
X3325Y696D02*
X3332Y696D01*
X0Y695D02*
X7Y695D01*
X3325Y695D02*
X3332Y695D01*
X0Y694D02*
X7Y694D01*
X3325Y694D02*
X3332Y694D01*
X0Y693D02*
X7Y693D01*
X3325Y693D02*
X3332Y693D01*
X0Y692D02*
X7Y692D01*
X3325Y692D02*
X3332Y692D01*
X0Y691D02*
X7Y691D01*
X3325Y691D02*
X3332Y691D01*
X0Y690D02*
X7Y690D01*
X3325Y690D02*
X3332Y690D01*
X0Y689D02*
X7Y689D01*
X3325Y689D02*
X3332Y689D01*
X0Y688D02*
X7Y688D01*
X3325Y688D02*
X3332Y688D01*
X0Y687D02*
X7Y687D01*
X3325Y687D02*
X3332Y687D01*
X0Y686D02*
X7Y686D01*
X3325Y686D02*
X3332Y686D01*
X0Y685D02*
X7Y685D01*
X3325Y685D02*
X3332Y685D01*
X0Y684D02*
X7Y684D01*
X3325Y684D02*
X3332Y684D01*
X0Y683D02*
X7Y683D01*
X3325Y683D02*
X3332Y683D01*
X0Y682D02*
X7Y682D01*
X3325Y682D02*
X3332Y682D01*
X0Y681D02*
X7Y681D01*
X3325Y681D02*
X3332Y681D01*
X0Y680D02*
X7Y680D01*
X3325Y680D02*
X3332Y680D01*
X0Y679D02*
X7Y679D01*
X3325Y679D02*
X3332Y679D01*
X0Y678D02*
X7Y678D01*
X3325Y678D02*
X3332Y678D01*
X0Y677D02*
X7Y677D01*
X3325Y677D02*
X3332Y677D01*
X0Y676D02*
X7Y676D01*
X3325Y676D02*
X3332Y676D01*
X0Y675D02*
X7Y675D01*
X3325Y675D02*
X3332Y675D01*
X0Y674D02*
X7Y674D01*
X3325Y674D02*
X3332Y674D01*
X0Y673D02*
X7Y673D01*
X3325Y673D02*
X3332Y673D01*
X0Y672D02*
X7Y672D01*
X3325Y672D02*
X3332Y672D01*
X0Y671D02*
X7Y671D01*
X3325Y671D02*
X3332Y671D01*
X0Y670D02*
X7Y670D01*
X3325Y670D02*
X3332Y670D01*
X0Y669D02*
X7Y669D01*
X3325Y669D02*
X3332Y669D01*
X0Y668D02*
X7Y668D01*
X3325Y668D02*
X3332Y668D01*
X0Y667D02*
X7Y667D01*
X3325Y667D02*
X3332Y667D01*
X0Y666D02*
X7Y666D01*
X3325Y666D02*
X3332Y666D01*
X0Y665D02*
X7Y665D01*
X3325Y665D02*
X3332Y665D01*
X0Y664D02*
X7Y664D01*
X3325Y664D02*
X3332Y664D01*
X0Y663D02*
X7Y663D01*
X3325Y663D02*
X3332Y663D01*
X0Y662D02*
X7Y662D01*
X3325Y662D02*
X3332Y662D01*
X0Y661D02*
X7Y661D01*
X3325Y661D02*
X3332Y661D01*
X0Y660D02*
X7Y660D01*
X3325Y660D02*
X3332Y660D01*
X0Y659D02*
X7Y659D01*
X3325Y659D02*
X3332Y659D01*
X0Y658D02*
X7Y658D01*
X3325Y658D02*
X3332Y658D01*
X0Y657D02*
X7Y657D01*
X3325Y657D02*
X3332Y657D01*
X0Y656D02*
X7Y656D01*
X3325Y656D02*
X3332Y656D01*
X0Y655D02*
X7Y655D01*
X3325Y655D02*
X3332Y655D01*
X0Y654D02*
X7Y654D01*
X3325Y654D02*
X3332Y654D01*
X0Y653D02*
X7Y653D01*
X3325Y653D02*
X3332Y653D01*
X0Y652D02*
X7Y652D01*
X3325Y652D02*
X3332Y652D01*
X0Y651D02*
X7Y651D01*
X3325Y651D02*
X3332Y651D01*
X0Y650D02*
X7Y650D01*
X3325Y650D02*
X3332Y650D01*
X0Y649D02*
X7Y649D01*
X3325Y649D02*
X3332Y649D01*
X0Y648D02*
X7Y648D01*
X3325Y648D02*
X3332Y648D01*
X0Y647D02*
X7Y647D01*
X3325Y647D02*
X3332Y647D01*
X0Y646D02*
X7Y646D01*
X3325Y646D02*
X3332Y646D01*
X0Y645D02*
X7Y645D01*
X3325Y645D02*
X3332Y645D01*
X0Y644D02*
X7Y644D01*
X3325Y644D02*
X3332Y644D01*
X0Y643D02*
X7Y643D01*
X3325Y643D02*
X3332Y643D01*
X0Y642D02*
X7Y642D01*
X3325Y642D02*
X3332Y642D01*
X0Y641D02*
X7Y641D01*
X3325Y641D02*
X3332Y641D01*
X0Y640D02*
X7Y640D01*
X3325Y640D02*
X3332Y640D01*
X0Y639D02*
X7Y639D01*
X3325Y639D02*
X3332Y639D01*
X0Y638D02*
X7Y638D01*
X3325Y638D02*
X3332Y638D01*
X0Y637D02*
X7Y637D01*
X3325Y637D02*
X3332Y637D01*
X0Y636D02*
X7Y636D01*
X3325Y636D02*
X3332Y636D01*
X0Y635D02*
X7Y635D01*
X3325Y635D02*
X3332Y635D01*
X0Y634D02*
X7Y634D01*
X3325Y634D02*
X3332Y634D01*
X0Y633D02*
X7Y633D01*
X3325Y633D02*
X3332Y633D01*
X0Y632D02*
X7Y632D01*
X3325Y632D02*
X3332Y632D01*
X0Y631D02*
X7Y631D01*
X3325Y631D02*
X3332Y631D01*
X0Y630D02*
X7Y630D01*
X3325Y630D02*
X3332Y630D01*
X0Y629D02*
X7Y629D01*
X3325Y629D02*
X3332Y629D01*
X0Y628D02*
X7Y628D01*
X3325Y628D02*
X3332Y628D01*
X0Y627D02*
X7Y627D01*
X3325Y627D02*
X3332Y627D01*
X0Y626D02*
X7Y626D01*
X3325Y626D02*
X3332Y626D01*
X0Y625D02*
X7Y625D01*
X3325Y625D02*
X3332Y625D01*
X0Y624D02*
X7Y624D01*
X3325Y624D02*
X3332Y624D01*
X0Y623D02*
X7Y623D01*
X3325Y623D02*
X3332Y623D01*
X0Y622D02*
X7Y622D01*
X3325Y622D02*
X3332Y622D01*
X0Y621D02*
X7Y621D01*
X3325Y621D02*
X3332Y621D01*
X0Y620D02*
X7Y620D01*
X3325Y620D02*
X3332Y620D01*
X0Y619D02*
X7Y619D01*
X3325Y619D02*
X3332Y619D01*
X0Y618D02*
X7Y618D01*
X3325Y618D02*
X3332Y618D01*
X0Y617D02*
X7Y617D01*
X3325Y617D02*
X3332Y617D01*
X0Y616D02*
X7Y616D01*
X3325Y616D02*
X3332Y616D01*
X0Y615D02*
X7Y615D01*
X3325Y615D02*
X3332Y615D01*
X0Y614D02*
X7Y614D01*
X3325Y614D02*
X3332Y614D01*
X0Y613D02*
X7Y613D01*
X3325Y613D02*
X3332Y613D01*
X0Y612D02*
X7Y612D01*
X3325Y612D02*
X3332Y612D01*
X0Y611D02*
X7Y611D01*
X3325Y611D02*
X3332Y611D01*
X0Y610D02*
X7Y610D01*
X3325Y610D02*
X3332Y610D01*
X0Y609D02*
X7Y609D01*
X3325Y609D02*
X3332Y609D01*
X0Y608D02*
X7Y608D01*
X3325Y608D02*
X3332Y608D01*
X0Y607D02*
X7Y607D01*
X3325Y607D02*
X3332Y607D01*
X0Y606D02*
X7Y606D01*
X3325Y606D02*
X3332Y606D01*
X0Y605D02*
X7Y605D01*
X3325Y605D02*
X3332Y605D01*
X0Y604D02*
X7Y604D01*
X3325Y604D02*
X3332Y604D01*
X0Y603D02*
X7Y603D01*
X3325Y603D02*
X3332Y603D01*
X0Y602D02*
X7Y602D01*
X3325Y602D02*
X3332Y602D01*
X0Y601D02*
X7Y601D01*
X3325Y601D02*
X3332Y601D01*
X0Y600D02*
X7Y600D01*
X3325Y600D02*
X3332Y600D01*
X0Y599D02*
X7Y599D01*
X3325Y599D02*
X3332Y599D01*
X0Y598D02*
X7Y598D01*
X3325Y598D02*
X3332Y598D01*
X0Y597D02*
X7Y597D01*
X3325Y597D02*
X3332Y597D01*
X0Y596D02*
X7Y596D01*
X3325Y596D02*
X3332Y596D01*
X0Y595D02*
X7Y595D01*
X3325Y595D02*
X3332Y595D01*
X0Y594D02*
X7Y594D01*
X3325Y594D02*
X3332Y594D01*
X0Y593D02*
X7Y593D01*
X3325Y593D02*
X3332Y593D01*
X0Y592D02*
X7Y592D01*
X3325Y592D02*
X3332Y592D01*
X0Y591D02*
X7Y591D01*
X3325Y591D02*
X3332Y591D01*
X0Y590D02*
X7Y590D01*
X3325Y590D02*
X3332Y590D01*
X0Y589D02*
X7Y589D01*
X3325Y589D02*
X3332Y589D01*
X0Y588D02*
X7Y588D01*
X3325Y588D02*
X3332Y588D01*
X0Y587D02*
X7Y587D01*
X3325Y587D02*
X3332Y587D01*
X0Y586D02*
X7Y586D01*
X3325Y586D02*
X3332Y586D01*
X0Y585D02*
X7Y585D01*
X3325Y585D02*
X3332Y585D01*
X0Y584D02*
X7Y584D01*
X3325Y584D02*
X3332Y584D01*
X0Y583D02*
X7Y583D01*
X3325Y583D02*
X3332Y583D01*
X0Y582D02*
X7Y582D01*
X3325Y582D02*
X3332Y582D01*
X0Y581D02*
X7Y581D01*
X3325Y581D02*
X3332Y581D01*
X0Y580D02*
X7Y580D01*
X3325Y580D02*
X3332Y580D01*
X0Y579D02*
X7Y579D01*
X3325Y579D02*
X3332Y579D01*
X0Y578D02*
X7Y578D01*
X3325Y578D02*
X3332Y578D01*
X0Y577D02*
X7Y577D01*
X3325Y577D02*
X3332Y577D01*
X0Y576D02*
X7Y576D01*
X3325Y576D02*
X3332Y576D01*
X0Y575D02*
X7Y575D01*
X3325Y575D02*
X3332Y575D01*
X0Y574D02*
X7Y574D01*
X3325Y574D02*
X3332Y574D01*
X0Y573D02*
X7Y573D01*
X3325Y573D02*
X3332Y573D01*
X0Y572D02*
X7Y572D01*
X3325Y572D02*
X3332Y572D01*
X0Y571D02*
X7Y571D01*
X3325Y571D02*
X3332Y571D01*
X0Y570D02*
X7Y570D01*
X3325Y570D02*
X3332Y570D01*
X0Y569D02*
X7Y569D01*
X3325Y569D02*
X3332Y569D01*
X0Y568D02*
X7Y568D01*
X3325Y568D02*
X3332Y568D01*
X0Y567D02*
X7Y567D01*
X3325Y567D02*
X3332Y567D01*
X0Y566D02*
X7Y566D01*
X3325Y566D02*
X3332Y566D01*
X0Y565D02*
X7Y565D01*
X3325Y565D02*
X3332Y565D01*
X0Y564D02*
X7Y564D01*
X3325Y564D02*
X3332Y564D01*
X0Y563D02*
X7Y563D01*
X3325Y563D02*
X3332Y563D01*
X0Y562D02*
X7Y562D01*
X3325Y562D02*
X3332Y562D01*
X0Y561D02*
X7Y561D01*
X3325Y561D02*
X3332Y561D01*
X0Y560D02*
X7Y560D01*
X3325Y560D02*
X3332Y560D01*
X0Y559D02*
X7Y559D01*
X3325Y559D02*
X3332Y559D01*
X0Y558D02*
X7Y558D01*
X3325Y558D02*
X3332Y558D01*
X0Y557D02*
X7Y557D01*
X3325Y557D02*
X3332Y557D01*
X0Y556D02*
X7Y556D01*
X3325Y556D02*
X3332Y556D01*
X0Y555D02*
X7Y555D01*
X3325Y555D02*
X3332Y555D01*
X0Y554D02*
X7Y554D01*
X3325Y554D02*
X3332Y554D01*
X0Y553D02*
X7Y553D01*
X3325Y553D02*
X3332Y553D01*
X0Y552D02*
X7Y552D01*
X3325Y552D02*
X3332Y552D01*
X0Y551D02*
X7Y551D01*
X3325Y551D02*
X3332Y551D01*
X0Y550D02*
X7Y550D01*
X3325Y550D02*
X3332Y550D01*
X0Y549D02*
X7Y549D01*
X3325Y549D02*
X3332Y549D01*
X0Y548D02*
X7Y548D01*
X3325Y548D02*
X3332Y548D01*
X0Y547D02*
X7Y547D01*
X3325Y547D02*
X3332Y547D01*
X0Y546D02*
X7Y546D01*
X3325Y546D02*
X3332Y546D01*
X0Y545D02*
X7Y545D01*
X3325Y545D02*
X3332Y545D01*
X0Y544D02*
X7Y544D01*
X3325Y544D02*
X3332Y544D01*
X0Y543D02*
X7Y543D01*
X3325Y543D02*
X3332Y543D01*
X0Y542D02*
X7Y542D01*
X3325Y542D02*
X3332Y542D01*
X0Y541D02*
X7Y541D01*
X3325Y541D02*
X3332Y541D01*
X0Y540D02*
X7Y540D01*
X3325Y540D02*
X3332Y540D01*
X0Y539D02*
X7Y539D01*
X3325Y539D02*
X3332Y539D01*
X0Y538D02*
X7Y538D01*
X3325Y538D02*
X3332Y538D01*
X0Y537D02*
X7Y537D01*
X3325Y537D02*
X3332Y537D01*
X0Y536D02*
X7Y536D01*
X3325Y536D02*
X3332Y536D01*
X0Y535D02*
X7Y535D01*
X3325Y535D02*
X3332Y535D01*
X0Y534D02*
X7Y534D01*
X3325Y534D02*
X3332Y534D01*
X0Y533D02*
X7Y533D01*
X3325Y533D02*
X3332Y533D01*
X0Y532D02*
X7Y532D01*
X3325Y532D02*
X3332Y532D01*
X0Y531D02*
X7Y531D01*
X3325Y531D02*
X3332Y531D01*
X0Y530D02*
X7Y530D01*
X3325Y530D02*
X3332Y530D01*
X0Y529D02*
X7Y529D01*
X3325Y529D02*
X3332Y529D01*
X0Y528D02*
X7Y528D01*
X3325Y528D02*
X3332Y528D01*
X0Y527D02*
X7Y527D01*
X3325Y527D02*
X3332Y527D01*
X0Y526D02*
X7Y526D01*
X3325Y526D02*
X3332Y526D01*
X0Y525D02*
X7Y525D01*
X3325Y525D02*
X3332Y525D01*
X0Y524D02*
X7Y524D01*
X3325Y524D02*
X3332Y524D01*
X0Y523D02*
X7Y523D01*
X3325Y523D02*
X3332Y523D01*
X0Y522D02*
X7Y522D01*
X3325Y522D02*
X3332Y522D01*
X0Y521D02*
X7Y521D01*
X3325Y521D02*
X3332Y521D01*
X0Y520D02*
X7Y520D01*
X3325Y520D02*
X3332Y520D01*
X0Y519D02*
X7Y519D01*
X3325Y519D02*
X3332Y519D01*
X0Y518D02*
X7Y518D01*
X3325Y518D02*
X3332Y518D01*
X0Y517D02*
X7Y517D01*
X3325Y517D02*
X3332Y517D01*
X0Y516D02*
X7Y516D01*
X3325Y516D02*
X3332Y516D01*
X0Y515D02*
X7Y515D01*
X3325Y515D02*
X3332Y515D01*
X0Y514D02*
X7Y514D01*
X3325Y514D02*
X3332Y514D01*
X0Y513D02*
X7Y513D01*
X3325Y513D02*
X3332Y513D01*
X0Y512D02*
X7Y512D01*
X3325Y512D02*
X3332Y512D01*
X0Y511D02*
X7Y511D01*
X3325Y511D02*
X3332Y511D01*
X0Y510D02*
X7Y510D01*
X3325Y510D02*
X3332Y510D01*
X0Y509D02*
X7Y509D01*
X3325Y509D02*
X3332Y509D01*
X0Y508D02*
X7Y508D01*
X3325Y508D02*
X3332Y508D01*
X0Y507D02*
X7Y507D01*
X3325Y507D02*
X3332Y507D01*
X0Y506D02*
X7Y506D01*
X3325Y506D02*
X3332Y506D01*
X0Y505D02*
X7Y505D01*
X3325Y505D02*
X3332Y505D01*
X0Y504D02*
X7Y504D01*
X3325Y504D02*
X3332Y504D01*
X0Y503D02*
X7Y503D01*
X3325Y503D02*
X3332Y503D01*
X0Y502D02*
X7Y502D01*
X3325Y502D02*
X3332Y502D01*
X0Y501D02*
X7Y501D01*
X3325Y501D02*
X3332Y501D01*
X0Y500D02*
X7Y500D01*
X3325Y500D02*
X3332Y500D01*
X0Y499D02*
X7Y499D01*
X3325Y499D02*
X3332Y499D01*
X0Y498D02*
X7Y498D01*
X3325Y498D02*
X3332Y498D01*
X0Y497D02*
X7Y497D01*
X3325Y497D02*
X3332Y497D01*
X0Y496D02*
X7Y496D01*
X3325Y496D02*
X3332Y496D01*
X0Y495D02*
X7Y495D01*
X3325Y495D02*
X3332Y495D01*
X0Y494D02*
X7Y494D01*
X3325Y494D02*
X3332Y494D01*
X0Y493D02*
X7Y493D01*
X3325Y493D02*
X3332Y493D01*
X0Y492D02*
X7Y492D01*
X3325Y492D02*
X3332Y492D01*
X0Y491D02*
X7Y491D01*
X3325Y491D02*
X3332Y491D01*
X0Y490D02*
X7Y490D01*
X3325Y490D02*
X3332Y490D01*
X0Y489D02*
X7Y489D01*
X3325Y489D02*
X3332Y489D01*
X0Y488D02*
X7Y488D01*
X3325Y488D02*
X3332Y488D01*
X0Y487D02*
X7Y487D01*
X3325Y487D02*
X3332Y487D01*
X0Y486D02*
X7Y486D01*
X3325Y486D02*
X3332Y486D01*
X0Y485D02*
X7Y485D01*
X3325Y485D02*
X3332Y485D01*
X0Y484D02*
X7Y484D01*
X3325Y484D02*
X3332Y484D01*
X0Y483D02*
X7Y483D01*
X3325Y483D02*
X3332Y483D01*
X0Y482D02*
X7Y482D01*
X3325Y482D02*
X3332Y482D01*
X0Y481D02*
X7Y481D01*
X3325Y481D02*
X3332Y481D01*
X0Y480D02*
X7Y480D01*
X3325Y480D02*
X3332Y480D01*
X0Y479D02*
X7Y479D01*
X3325Y479D02*
X3332Y479D01*
X0Y478D02*
X7Y478D01*
X3325Y478D02*
X3332Y478D01*
X0Y477D02*
X7Y477D01*
X3325Y477D02*
X3332Y477D01*
X0Y476D02*
X7Y476D01*
X3325Y476D02*
X3332Y476D01*
X0Y475D02*
X7Y475D01*
X3325Y475D02*
X3332Y475D01*
X0Y474D02*
X7Y474D01*
X3325Y474D02*
X3332Y474D01*
X0Y473D02*
X7Y473D01*
X3325Y473D02*
X3332Y473D01*
X0Y472D02*
X7Y472D01*
X3325Y472D02*
X3332Y472D01*
X0Y471D02*
X7Y471D01*
X3325Y471D02*
X3332Y471D01*
X0Y470D02*
X7Y470D01*
X3325Y470D02*
X3332Y470D01*
X0Y469D02*
X7Y469D01*
X3325Y469D02*
X3332Y469D01*
X0Y468D02*
X7Y468D01*
X3325Y468D02*
X3332Y468D01*
X0Y467D02*
X7Y467D01*
X3325Y467D02*
X3332Y467D01*
X0Y466D02*
X7Y466D01*
X3325Y466D02*
X3332Y466D01*
X0Y465D02*
X7Y465D01*
X3325Y465D02*
X3332Y465D01*
X0Y464D02*
X7Y464D01*
X3325Y464D02*
X3332Y464D01*
X0Y463D02*
X7Y463D01*
X3325Y463D02*
X3332Y463D01*
X0Y462D02*
X7Y462D01*
X3325Y462D02*
X3332Y462D01*
X0Y461D02*
X7Y461D01*
X3325Y461D02*
X3332Y461D01*
X0Y460D02*
X7Y460D01*
X3325Y460D02*
X3332Y460D01*
X0Y459D02*
X7Y459D01*
X3325Y459D02*
X3332Y459D01*
X0Y458D02*
X7Y458D01*
X3325Y458D02*
X3332Y458D01*
X0Y457D02*
X7Y457D01*
X3325Y457D02*
X3332Y457D01*
X0Y456D02*
X7Y456D01*
X3325Y456D02*
X3332Y456D01*
X0Y455D02*
X7Y455D01*
X3325Y455D02*
X3332Y455D01*
X0Y454D02*
X7Y454D01*
X3325Y454D02*
X3332Y454D01*
X0Y453D02*
X7Y453D01*
X3325Y453D02*
X3332Y453D01*
X0Y452D02*
X7Y452D01*
X3325Y452D02*
X3332Y452D01*
X0Y451D02*
X7Y451D01*
X3325Y451D02*
X3332Y451D01*
X0Y450D02*
X7Y450D01*
X3325Y450D02*
X3332Y450D01*
X0Y449D02*
X7Y449D01*
X3325Y449D02*
X3332Y449D01*
X0Y448D02*
X7Y448D01*
X3325Y448D02*
X3332Y448D01*
X0Y447D02*
X7Y447D01*
X3325Y447D02*
X3332Y447D01*
X0Y446D02*
X7Y446D01*
X3325Y446D02*
X3332Y446D01*
X0Y445D02*
X7Y445D01*
X3325Y445D02*
X3332Y445D01*
X0Y444D02*
X7Y444D01*
X3325Y444D02*
X3332Y444D01*
X0Y443D02*
X7Y443D01*
X3325Y443D02*
X3332Y443D01*
X0Y442D02*
X7Y442D01*
X3325Y442D02*
X3332Y442D01*
X0Y441D02*
X7Y441D01*
X3325Y441D02*
X3332Y441D01*
X0Y440D02*
X7Y440D01*
X3325Y440D02*
X3332Y440D01*
X0Y439D02*
X7Y439D01*
X3325Y439D02*
X3332Y439D01*
X0Y438D02*
X7Y438D01*
X3325Y438D02*
X3332Y438D01*
X0Y437D02*
X7Y437D01*
X3325Y437D02*
X3332Y437D01*
X0Y436D02*
X7Y436D01*
X3325Y436D02*
X3332Y436D01*
X0Y435D02*
X7Y435D01*
X3325Y435D02*
X3332Y435D01*
X0Y434D02*
X7Y434D01*
X3325Y434D02*
X3332Y434D01*
X0Y433D02*
X7Y433D01*
X3325Y433D02*
X3332Y433D01*
X0Y432D02*
X7Y432D01*
X3325Y432D02*
X3332Y432D01*
X0Y431D02*
X7Y431D01*
X3325Y431D02*
X3332Y431D01*
X0Y430D02*
X7Y430D01*
X3325Y430D02*
X3332Y430D01*
X0Y429D02*
X7Y429D01*
X3325Y429D02*
X3332Y429D01*
X0Y428D02*
X7Y428D01*
X3325Y428D02*
X3332Y428D01*
X0Y427D02*
X7Y427D01*
X3325Y427D02*
X3332Y427D01*
X0Y426D02*
X7Y426D01*
X3325Y426D02*
X3332Y426D01*
X0Y425D02*
X7Y425D01*
X3325Y425D02*
X3332Y425D01*
X0Y424D02*
X7Y424D01*
X3325Y424D02*
X3332Y424D01*
X0Y423D02*
X7Y423D01*
X3325Y423D02*
X3332Y423D01*
X0Y422D02*
X7Y422D01*
X3325Y422D02*
X3332Y422D01*
X0Y421D02*
X7Y421D01*
X3325Y421D02*
X3332Y421D01*
X0Y420D02*
X7Y420D01*
X3325Y420D02*
X3332Y420D01*
X0Y419D02*
X7Y419D01*
X3325Y419D02*
X3332Y419D01*
X0Y418D02*
X7Y418D01*
X3325Y418D02*
X3332Y418D01*
X0Y417D02*
X7Y417D01*
X3325Y417D02*
X3332Y417D01*
X0Y416D02*
X7Y416D01*
X3325Y416D02*
X3332Y416D01*
X0Y415D02*
X7Y415D01*
X3325Y415D02*
X3332Y415D01*
X0Y414D02*
X7Y414D01*
X3325Y414D02*
X3332Y414D01*
X0Y413D02*
X7Y413D01*
X3325Y413D02*
X3332Y413D01*
X0Y412D02*
X7Y412D01*
X3325Y412D02*
X3332Y412D01*
X0Y411D02*
X7Y411D01*
X3325Y411D02*
X3332Y411D01*
X0Y410D02*
X7Y410D01*
X3325Y410D02*
X3332Y410D01*
X0Y409D02*
X7Y409D01*
X3325Y409D02*
X3332Y409D01*
X0Y408D02*
X7Y408D01*
X3325Y408D02*
X3332Y408D01*
X0Y407D02*
X7Y407D01*
X3325Y407D02*
X3332Y407D01*
X0Y406D02*
X7Y406D01*
X3325Y406D02*
X3332Y406D01*
X0Y405D02*
X7Y405D01*
X3325Y405D02*
X3332Y405D01*
X0Y404D02*
X7Y404D01*
X3325Y404D02*
X3332Y404D01*
X0Y403D02*
X7Y403D01*
X3325Y403D02*
X3332Y403D01*
X0Y402D02*
X7Y402D01*
X3325Y402D02*
X3332Y402D01*
X0Y401D02*
X7Y401D01*
X3325Y401D02*
X3332Y401D01*
X0Y400D02*
X7Y400D01*
X3325Y400D02*
X3332Y400D01*
X0Y399D02*
X7Y399D01*
X3325Y399D02*
X3332Y399D01*
X0Y398D02*
X7Y398D01*
X3325Y398D02*
X3332Y398D01*
X0Y397D02*
X7Y397D01*
X3325Y397D02*
X3332Y397D01*
X0Y396D02*
X7Y396D01*
X3325Y396D02*
X3332Y396D01*
X0Y395D02*
X7Y395D01*
X3325Y395D02*
X3332Y395D01*
X0Y394D02*
X7Y394D01*
X3325Y394D02*
X3332Y394D01*
X0Y393D02*
X7Y393D01*
X3325Y393D02*
X3332Y393D01*
X0Y392D02*
X7Y392D01*
X3325Y392D02*
X3332Y392D01*
X0Y391D02*
X7Y391D01*
X3325Y391D02*
X3332Y391D01*
X0Y390D02*
X7Y390D01*
X3325Y390D02*
X3332Y390D01*
X0Y389D02*
X7Y389D01*
X3325Y389D02*
X3332Y389D01*
X0Y388D02*
X7Y388D01*
X3325Y388D02*
X3332Y388D01*
X0Y387D02*
X7Y387D01*
X3325Y387D02*
X3332Y387D01*
X0Y386D02*
X7Y386D01*
X3325Y386D02*
X3332Y386D01*
X0Y385D02*
X7Y385D01*
X3325Y385D02*
X3332Y385D01*
X0Y384D02*
X7Y384D01*
X3325Y384D02*
X3332Y384D01*
X0Y383D02*
X7Y383D01*
X3325Y383D02*
X3332Y383D01*
X0Y382D02*
X7Y382D01*
X3325Y382D02*
X3332Y382D01*
X0Y381D02*
X7Y381D01*
X3325Y381D02*
X3332Y381D01*
X0Y380D02*
X7Y380D01*
X3325Y380D02*
X3332Y380D01*
X0Y379D02*
X7Y379D01*
X3325Y379D02*
X3332Y379D01*
X0Y378D02*
X7Y378D01*
X3325Y378D02*
X3332Y378D01*
X0Y377D02*
X7Y377D01*
X3325Y377D02*
X3332Y377D01*
X0Y376D02*
X7Y376D01*
X3325Y376D02*
X3332Y376D01*
X0Y375D02*
X7Y375D01*
X3325Y375D02*
X3332Y375D01*
X0Y374D02*
X7Y374D01*
X3325Y374D02*
X3332Y374D01*
X0Y373D02*
X7Y373D01*
X3325Y373D02*
X3332Y373D01*
X0Y372D02*
X7Y372D01*
X3325Y372D02*
X3332Y372D01*
X0Y371D02*
X7Y371D01*
X3325Y371D02*
X3332Y371D01*
X0Y370D02*
X7Y370D01*
X3325Y370D02*
X3332Y370D01*
X0Y369D02*
X7Y369D01*
X3325Y369D02*
X3332Y369D01*
X0Y368D02*
X7Y368D01*
X3325Y368D02*
X3332Y368D01*
X0Y367D02*
X7Y367D01*
X3325Y367D02*
X3332Y367D01*
X0Y366D02*
X7Y366D01*
X3325Y366D02*
X3332Y366D01*
X0Y365D02*
X7Y365D01*
X3325Y365D02*
X3332Y365D01*
X0Y364D02*
X7Y364D01*
X3325Y364D02*
X3332Y364D01*
X0Y363D02*
X7Y363D01*
X3325Y363D02*
X3332Y363D01*
X0Y362D02*
X7Y362D01*
X3325Y362D02*
X3332Y362D01*
X0Y361D02*
X7Y361D01*
X3325Y361D02*
X3332Y361D01*
X0Y360D02*
X7Y360D01*
X3325Y360D02*
X3332Y360D01*
X0Y359D02*
X7Y359D01*
X3325Y359D02*
X3332Y359D01*
X0Y358D02*
X7Y358D01*
X3325Y358D02*
X3332Y358D01*
X0Y357D02*
X7Y357D01*
X3325Y357D02*
X3332Y357D01*
X0Y356D02*
X7Y356D01*
X3325Y356D02*
X3332Y356D01*
X0Y355D02*
X7Y355D01*
X3325Y355D02*
X3332Y355D01*
X0Y354D02*
X7Y354D01*
X3325Y354D02*
X3332Y354D01*
X0Y353D02*
X7Y353D01*
X3325Y353D02*
X3332Y353D01*
X0Y352D02*
X7Y352D01*
X3325Y352D02*
X3332Y352D01*
X0Y351D02*
X7Y351D01*
X3325Y351D02*
X3332Y351D01*
X0Y350D02*
X7Y350D01*
X3325Y350D02*
X3332Y350D01*
X0Y349D02*
X7Y349D01*
X3325Y349D02*
X3332Y349D01*
X0Y348D02*
X7Y348D01*
X3325Y348D02*
X3332Y348D01*
X0Y347D02*
X7Y347D01*
X3325Y347D02*
X3332Y347D01*
X0Y346D02*
X7Y346D01*
X3325Y346D02*
X3332Y346D01*
X0Y345D02*
X7Y345D01*
X3325Y345D02*
X3332Y345D01*
X0Y344D02*
X7Y344D01*
X3325Y344D02*
X3332Y344D01*
X0Y343D02*
X7Y343D01*
X3325Y343D02*
X3332Y343D01*
X0Y342D02*
X7Y342D01*
X3325Y342D02*
X3332Y342D01*
X0Y341D02*
X7Y341D01*
X3325Y341D02*
X3332Y341D01*
X0Y340D02*
X7Y340D01*
X3325Y340D02*
X3332Y340D01*
X0Y339D02*
X7Y339D01*
X3325Y339D02*
X3332Y339D01*
X0Y338D02*
X7Y338D01*
X3325Y338D02*
X3332Y338D01*
X0Y337D02*
X7Y337D01*
X3325Y337D02*
X3332Y337D01*
X0Y336D02*
X7Y336D01*
X3325Y336D02*
X3332Y336D01*
X0Y335D02*
X7Y335D01*
X3325Y335D02*
X3332Y335D01*
X0Y334D02*
X7Y334D01*
X3325Y334D02*
X3332Y334D01*
X0Y333D02*
X7Y333D01*
X3325Y333D02*
X3332Y333D01*
X0Y332D02*
X7Y332D01*
X3325Y332D02*
X3332Y332D01*
X0Y331D02*
X7Y331D01*
X3325Y331D02*
X3332Y331D01*
X0Y330D02*
X7Y330D01*
X3325Y330D02*
X3332Y330D01*
X0Y329D02*
X7Y329D01*
X3325Y329D02*
X3332Y329D01*
X0Y328D02*
X7Y328D01*
X3325Y328D02*
X3332Y328D01*
X0Y327D02*
X7Y327D01*
X3325Y327D02*
X3332Y327D01*
X0Y326D02*
X7Y326D01*
X3325Y326D02*
X3332Y326D01*
X0Y325D02*
X7Y325D01*
X3325Y325D02*
X3332Y325D01*
X0Y324D02*
X7Y324D01*
X3325Y324D02*
X3332Y324D01*
X0Y323D02*
X7Y323D01*
X3325Y323D02*
X3332Y323D01*
X0Y322D02*
X7Y322D01*
X3325Y322D02*
X3332Y322D01*
X0Y321D02*
X7Y321D01*
X3325Y321D02*
X3332Y321D01*
X0Y320D02*
X7Y320D01*
X3325Y320D02*
X3332Y320D01*
X0Y319D02*
X7Y319D01*
X3325Y319D02*
X3332Y319D01*
X0Y318D02*
X7Y318D01*
X3325Y318D02*
X3332Y318D01*
X0Y317D02*
X7Y317D01*
X3325Y317D02*
X3332Y317D01*
X0Y316D02*
X7Y316D01*
X3325Y316D02*
X3332Y316D01*
X0Y315D02*
X7Y315D01*
X3325Y315D02*
X3332Y315D01*
X0Y314D02*
X7Y314D01*
X3325Y314D02*
X3332Y314D01*
X0Y313D02*
X7Y313D01*
X3325Y313D02*
X3332Y313D01*
X0Y312D02*
X7Y312D01*
X3325Y312D02*
X3332Y312D01*
X0Y311D02*
X7Y311D01*
X3325Y311D02*
X3332Y311D01*
X0Y310D02*
X7Y310D01*
X3325Y310D02*
X3332Y310D01*
X0Y309D02*
X7Y309D01*
X3325Y309D02*
X3332Y309D01*
X0Y308D02*
X7Y308D01*
X3325Y308D02*
X3332Y308D01*
X0Y307D02*
X7Y307D01*
X3325Y307D02*
X3332Y307D01*
X0Y306D02*
X7Y306D01*
X3325Y306D02*
X3332Y306D01*
X0Y305D02*
X7Y305D01*
X3325Y305D02*
X3332Y305D01*
X0Y304D02*
X7Y304D01*
X3325Y304D02*
X3332Y304D01*
X0Y303D02*
X7Y303D01*
X3325Y303D02*
X3332Y303D01*
X0Y302D02*
X7Y302D01*
X3325Y302D02*
X3332Y302D01*
X0Y301D02*
X7Y301D01*
X3325Y301D02*
X3332Y301D01*
X0Y300D02*
X7Y300D01*
X3325Y300D02*
X3332Y300D01*
X0Y299D02*
X7Y299D01*
X3325Y299D02*
X3332Y299D01*
X0Y298D02*
X7Y298D01*
X3325Y298D02*
X3332Y298D01*
X0Y297D02*
X7Y297D01*
X3325Y297D02*
X3332Y297D01*
X0Y296D02*
X7Y296D01*
X3325Y296D02*
X3332Y296D01*
X0Y295D02*
X7Y295D01*
X3325Y295D02*
X3332Y295D01*
X0Y294D02*
X7Y294D01*
X3325Y294D02*
X3332Y294D01*
X0Y293D02*
X7Y293D01*
X3325Y293D02*
X3332Y293D01*
X0Y292D02*
X7Y292D01*
X3325Y292D02*
X3332Y292D01*
X0Y291D02*
X7Y291D01*
X3325Y291D02*
X3332Y291D01*
X0Y290D02*
X7Y290D01*
X3325Y290D02*
X3332Y290D01*
X0Y289D02*
X7Y289D01*
X3325Y289D02*
X3332Y289D01*
X0Y288D02*
X7Y288D01*
X3325Y288D02*
X3332Y288D01*
X0Y287D02*
X7Y287D01*
X3325Y287D02*
X3332Y287D01*
X0Y286D02*
X7Y286D01*
X3325Y286D02*
X3332Y286D01*
X0Y285D02*
X7Y285D01*
X3325Y285D02*
X3332Y285D01*
X0Y284D02*
X7Y284D01*
X3325Y284D02*
X3332Y284D01*
X0Y283D02*
X7Y283D01*
X3325Y283D02*
X3332Y283D01*
X0Y282D02*
X7Y282D01*
X3325Y282D02*
X3332Y282D01*
X0Y281D02*
X7Y281D01*
X3325Y281D02*
X3332Y281D01*
X0Y280D02*
X7Y280D01*
X3325Y280D02*
X3332Y280D01*
X0Y279D02*
X7Y279D01*
X3325Y279D02*
X3332Y279D01*
X0Y278D02*
X7Y278D01*
X3325Y278D02*
X3332Y278D01*
X0Y277D02*
X7Y277D01*
X3325Y277D02*
X3332Y277D01*
X0Y276D02*
X7Y276D01*
X3325Y276D02*
X3332Y276D01*
X0Y275D02*
X7Y275D01*
X3325Y275D02*
X3332Y275D01*
X0Y274D02*
X7Y274D01*
X3325Y274D02*
X3332Y274D01*
X0Y273D02*
X7Y273D01*
X3325Y273D02*
X3332Y273D01*
X0Y272D02*
X7Y272D01*
X3325Y272D02*
X3332Y272D01*
X0Y271D02*
X7Y271D01*
X3325Y271D02*
X3332Y271D01*
X0Y270D02*
X7Y270D01*
X3325Y270D02*
X3332Y270D01*
X0Y269D02*
X7Y269D01*
X3325Y269D02*
X3332Y269D01*
X0Y268D02*
X7Y268D01*
X3325Y268D02*
X3332Y268D01*
X0Y267D02*
X7Y267D01*
X3325Y267D02*
X3332Y267D01*
X0Y266D02*
X7Y266D01*
X3325Y266D02*
X3332Y266D01*
X0Y265D02*
X7Y265D01*
X3325Y265D02*
X3332Y265D01*
X0Y264D02*
X7Y264D01*
X3325Y264D02*
X3332Y264D01*
X0Y263D02*
X7Y263D01*
X3325Y263D02*
X3332Y263D01*
X0Y262D02*
X7Y262D01*
X3325Y262D02*
X3332Y262D01*
X0Y261D02*
X7Y261D01*
X3325Y261D02*
X3332Y261D01*
X0Y260D02*
X7Y260D01*
X3325Y260D02*
X3332Y260D01*
X0Y259D02*
X7Y259D01*
X3325Y259D02*
X3332Y259D01*
X0Y258D02*
X7Y258D01*
X3325Y258D02*
X3332Y258D01*
X0Y257D02*
X7Y257D01*
X3325Y257D02*
X3332Y257D01*
X0Y256D02*
X7Y256D01*
X3325Y256D02*
X3332Y256D01*
X0Y255D02*
X7Y255D01*
X3325Y255D02*
X3332Y255D01*
X0Y254D02*
X7Y254D01*
X3325Y254D02*
X3332Y254D01*
X0Y253D02*
X7Y253D01*
X3325Y253D02*
X3332Y253D01*
X0Y252D02*
X7Y252D01*
X3325Y252D02*
X3332Y252D01*
X0Y251D02*
X7Y251D01*
X3325Y251D02*
X3332Y251D01*
X0Y250D02*
X7Y250D01*
X3325Y250D02*
X3332Y250D01*
X0Y249D02*
X7Y249D01*
X3325Y249D02*
X3332Y249D01*
X0Y248D02*
X7Y248D01*
X3325Y248D02*
X3332Y248D01*
X0Y247D02*
X7Y247D01*
X3325Y247D02*
X3332Y247D01*
X0Y246D02*
X7Y246D01*
X3325Y246D02*
X3332Y246D01*
X0Y245D02*
X7Y245D01*
X3325Y245D02*
X3332Y245D01*
X0Y244D02*
X7Y244D01*
X3325Y244D02*
X3332Y244D01*
X0Y243D02*
X7Y243D01*
X3325Y243D02*
X3332Y243D01*
X0Y242D02*
X7Y242D01*
X3325Y242D02*
X3332Y242D01*
X0Y241D02*
X7Y241D01*
X3325Y241D02*
X3332Y241D01*
X0Y240D02*
X7Y240D01*
X3325Y240D02*
X3332Y240D01*
X0Y239D02*
X7Y239D01*
X3325Y239D02*
X3332Y239D01*
X0Y238D02*
X7Y238D01*
X3325Y238D02*
X3332Y238D01*
X0Y237D02*
X7Y237D01*
X3325Y237D02*
X3332Y237D01*
X0Y236D02*
X7Y236D01*
X3325Y236D02*
X3332Y236D01*
X0Y235D02*
X7Y235D01*
X3325Y235D02*
X3332Y235D01*
X0Y234D02*
X7Y234D01*
X3325Y234D02*
X3332Y234D01*
X0Y233D02*
X7Y233D01*
X3325Y233D02*
X3332Y233D01*
X0Y232D02*
X7Y232D01*
X3325Y232D02*
X3332Y232D01*
X0Y231D02*
X7Y231D01*
X3325Y231D02*
X3332Y231D01*
X0Y230D02*
X7Y230D01*
X3325Y230D02*
X3332Y230D01*
X0Y229D02*
X7Y229D01*
X3325Y229D02*
X3332Y229D01*
X0Y228D02*
X7Y228D01*
X3325Y228D02*
X3332Y228D01*
X0Y227D02*
X7Y227D01*
X3325Y227D02*
X3332Y227D01*
X0Y226D02*
X7Y226D01*
X3325Y226D02*
X3332Y226D01*
X0Y225D02*
X7Y225D01*
X3325Y225D02*
X3332Y225D01*
X0Y224D02*
X7Y224D01*
X3325Y224D02*
X3332Y224D01*
X0Y223D02*
X7Y223D01*
X3325Y223D02*
X3332Y223D01*
X0Y222D02*
X7Y222D01*
X3325Y222D02*
X3332Y222D01*
X0Y221D02*
X7Y221D01*
X3325Y221D02*
X3332Y221D01*
X0Y220D02*
X7Y220D01*
X3325Y220D02*
X3332Y220D01*
X0Y219D02*
X7Y219D01*
X3325Y219D02*
X3332Y219D01*
X0Y218D02*
X7Y218D01*
X3325Y218D02*
X3332Y218D01*
X0Y217D02*
X7Y217D01*
X3325Y217D02*
X3332Y217D01*
X0Y216D02*
X7Y216D01*
X3325Y216D02*
X3332Y216D01*
X0Y215D02*
X7Y215D01*
X3325Y215D02*
X3332Y215D01*
X0Y214D02*
X7Y214D01*
X3325Y214D02*
X3332Y214D01*
X0Y213D02*
X7Y213D01*
X3325Y213D02*
X3332Y213D01*
X0Y212D02*
X7Y212D01*
X3325Y212D02*
X3332Y212D01*
X0Y211D02*
X7Y211D01*
X3325Y211D02*
X3332Y211D01*
X0Y210D02*
X7Y210D01*
X3325Y210D02*
X3332Y210D01*
X0Y209D02*
X7Y209D01*
X3325Y209D02*
X3332Y209D01*
X0Y208D02*
X7Y208D01*
X3325Y208D02*
X3332Y208D01*
X0Y207D02*
X7Y207D01*
X3325Y207D02*
X3332Y207D01*
X0Y206D02*
X7Y206D01*
X3325Y206D02*
X3332Y206D01*
X0Y205D02*
X7Y205D01*
X3325Y205D02*
X3332Y205D01*
X0Y204D02*
X7Y204D01*
X3325Y204D02*
X3332Y204D01*
X0Y203D02*
X7Y203D01*
X3325Y203D02*
X3332Y203D01*
X0Y202D02*
X7Y202D01*
X3325Y202D02*
X3332Y202D01*
X0Y201D02*
X7Y201D01*
X3325Y201D02*
X3332Y201D01*
X0Y200D02*
X7Y200D01*
X3325Y200D02*
X3332Y200D01*
X0Y199D02*
X7Y199D01*
X3325Y199D02*
X3332Y199D01*
X0Y198D02*
X7Y198D01*
X3325Y198D02*
X3332Y198D01*
X0Y197D02*
X7Y197D01*
X3325Y197D02*
X3332Y197D01*
X0Y196D02*
X7Y196D01*
X3325Y196D02*
X3332Y196D01*
X0Y195D02*
X7Y195D01*
X3325Y195D02*
X3332Y195D01*
X0Y194D02*
X7Y194D01*
X3325Y194D02*
X3332Y194D01*
X0Y193D02*
X7Y193D01*
X3325Y193D02*
X3332Y193D01*
X0Y192D02*
X7Y192D01*
X3325Y192D02*
X3332Y192D01*
X0Y191D02*
X7Y191D01*
X3325Y191D02*
X3332Y191D01*
X0Y190D02*
X7Y190D01*
X3325Y190D02*
X3332Y190D01*
X0Y189D02*
X7Y189D01*
X3325Y189D02*
X3332Y189D01*
X0Y188D02*
X7Y188D01*
X3325Y188D02*
X3332Y188D01*
X0Y187D02*
X7Y187D01*
X3325Y187D02*
X3332Y187D01*
X0Y186D02*
X7Y186D01*
X3325Y186D02*
X3332Y186D01*
X0Y185D02*
X7Y185D01*
X3325Y185D02*
X3332Y185D01*
X0Y184D02*
X7Y184D01*
X3325Y184D02*
X3332Y184D01*
X0Y183D02*
X7Y183D01*
X3325Y183D02*
X3332Y183D01*
X0Y182D02*
X7Y182D01*
X3325Y182D02*
X3332Y182D01*
X0Y181D02*
X7Y181D01*
X3325Y181D02*
X3332Y181D01*
X0Y180D02*
X7Y180D01*
X3325Y180D02*
X3332Y180D01*
X0Y179D02*
X7Y179D01*
X3325Y179D02*
X3332Y179D01*
X0Y178D02*
X7Y178D01*
X3325Y178D02*
X3332Y178D01*
X0Y177D02*
X7Y177D01*
X3325Y177D02*
X3332Y177D01*
X0Y176D02*
X7Y176D01*
X3325Y176D02*
X3332Y176D01*
X0Y175D02*
X7Y175D01*
X3325Y175D02*
X3332Y175D01*
X0Y174D02*
X7Y174D01*
X3325Y174D02*
X3332Y174D01*
X0Y173D02*
X7Y173D01*
X3325Y173D02*
X3332Y173D01*
X0Y172D02*
X7Y172D01*
X3325Y172D02*
X3332Y172D01*
X0Y171D02*
X7Y171D01*
X3325Y171D02*
X3332Y171D01*
X0Y170D02*
X7Y170D01*
X3325Y170D02*
X3332Y170D01*
X0Y169D02*
X7Y169D01*
X3325Y169D02*
X3332Y169D01*
X0Y168D02*
X7Y168D01*
X3325Y168D02*
X3332Y168D01*
X0Y167D02*
X7Y167D01*
X3325Y167D02*
X3332Y167D01*
X0Y166D02*
X7Y166D01*
X3325Y166D02*
X3332Y166D01*
X0Y165D02*
X7Y165D01*
X3325Y165D02*
X3332Y165D01*
X0Y164D02*
X7Y164D01*
X3325Y164D02*
X3332Y164D01*
X0Y163D02*
X7Y163D01*
X3325Y163D02*
X3332Y163D01*
X0Y162D02*
X7Y162D01*
X3325Y162D02*
X3332Y162D01*
X0Y161D02*
X7Y161D01*
X3325Y161D02*
X3332Y161D01*
X0Y160D02*
X7Y160D01*
X3325Y160D02*
X3332Y160D01*
X0Y159D02*
X7Y159D01*
X3325Y159D02*
X3332Y159D01*
X0Y158D02*
X7Y158D01*
X3325Y158D02*
X3332Y158D01*
X0Y157D02*
X7Y157D01*
X3325Y157D02*
X3332Y157D01*
X0Y156D02*
X7Y156D01*
X3325Y156D02*
X3332Y156D01*
X0Y155D02*
X7Y155D01*
X3325Y155D02*
X3332Y155D01*
X0Y154D02*
X7Y154D01*
X3325Y154D02*
X3332Y154D01*
X0Y153D02*
X7Y153D01*
X3325Y153D02*
X3332Y153D01*
X0Y152D02*
X7Y152D01*
X3325Y152D02*
X3332Y152D01*
X0Y151D02*
X7Y151D01*
X3325Y151D02*
X3332Y151D01*
X0Y150D02*
X7Y150D01*
X3325Y150D02*
X3332Y150D01*
X0Y149D02*
X7Y149D01*
X3325Y149D02*
X3332Y149D01*
X0Y148D02*
X7Y148D01*
X3325Y148D02*
X3332Y148D01*
X0Y147D02*
X7Y147D01*
X3325Y147D02*
X3332Y147D01*
X0Y146D02*
X7Y146D01*
X3325Y146D02*
X3332Y146D01*
X0Y145D02*
X7Y145D01*
X3325Y145D02*
X3332Y145D01*
X0Y144D02*
X7Y144D01*
X3325Y144D02*
X3332Y144D01*
X0Y143D02*
X7Y143D01*
X3325Y143D02*
X3332Y143D01*
X0Y142D02*
X7Y142D01*
X3325Y142D02*
X3332Y142D01*
X0Y141D02*
X7Y141D01*
X3325Y141D02*
X3332Y141D01*
X0Y140D02*
X7Y140D01*
X3325Y140D02*
X3332Y140D01*
X0Y139D02*
X7Y139D01*
X3325Y139D02*
X3332Y139D01*
X0Y138D02*
X7Y138D01*
X3325Y138D02*
X3332Y138D01*
X0Y137D02*
X7Y137D01*
X3325Y137D02*
X3332Y137D01*
X0Y136D02*
X7Y136D01*
X3325Y136D02*
X3332Y136D01*
X0Y135D02*
X7Y135D01*
X3325Y135D02*
X3332Y135D01*
X0Y134D02*
X7Y134D01*
X3325Y134D02*
X3332Y134D01*
X0Y133D02*
X7Y133D01*
X3325Y133D02*
X3332Y133D01*
X0Y132D02*
X7Y132D01*
X3325Y132D02*
X3332Y132D01*
X0Y131D02*
X7Y131D01*
X3325Y131D02*
X3332Y131D01*
X0Y130D02*
X7Y130D01*
X3325Y130D02*
X3332Y130D01*
X0Y129D02*
X7Y129D01*
X3325Y129D02*
X3332Y129D01*
X0Y128D02*
X7Y128D01*
X3325Y128D02*
X3332Y128D01*
X0Y127D02*
X7Y127D01*
X3325Y127D02*
X3332Y127D01*
X0Y126D02*
X7Y126D01*
X3325Y126D02*
X3332Y126D01*
X0Y125D02*
X7Y125D01*
X3325Y125D02*
X3332Y125D01*
X0Y124D02*
X7Y124D01*
X3325Y124D02*
X3332Y124D01*
X0Y123D02*
X7Y123D01*
X3325Y123D02*
X3332Y123D01*
X0Y122D02*
X7Y122D01*
X3325Y122D02*
X3332Y122D01*
X0Y121D02*
X7Y121D01*
X3325Y121D02*
X3332Y121D01*
X0Y120D02*
X7Y120D01*
X3325Y120D02*
X3332Y120D01*
X0Y119D02*
X7Y119D01*
X3325Y119D02*
X3332Y119D01*
X0Y118D02*
X7Y118D01*
X3325Y118D02*
X3332Y118D01*
X0Y117D02*
X7Y117D01*
X3325Y117D02*
X3332Y117D01*
X0Y116D02*
X7Y116D01*
X3325Y116D02*
X3332Y116D01*
X0Y115D02*
X7Y115D01*
X3325Y115D02*
X3332Y115D01*
X0Y114D02*
X7Y114D01*
X3325Y114D02*
X3332Y114D01*
X0Y113D02*
X7Y113D01*
X3325Y113D02*
X3332Y113D01*
X0Y112D02*
X7Y112D01*
X3325Y112D02*
X3332Y112D01*
X0Y111D02*
X7Y111D01*
X3325Y111D02*
X3332Y111D01*
X0Y110D02*
X7Y110D01*
X3325Y110D02*
X3332Y110D01*
X0Y109D02*
X7Y109D01*
X3325Y109D02*
X3332Y109D01*
X0Y108D02*
X7Y108D01*
X3325Y108D02*
X3332Y108D01*
X0Y107D02*
X7Y107D01*
X3325Y107D02*
X3332Y107D01*
X0Y106D02*
X7Y106D01*
X3325Y106D02*
X3332Y106D01*
X0Y105D02*
X7Y105D01*
X3325Y105D02*
X3332Y105D01*
X0Y104D02*
X7Y104D01*
X3325Y104D02*
X3332Y104D01*
X0Y103D02*
X7Y103D01*
X3325Y103D02*
X3332Y103D01*
X0Y102D02*
X7Y102D01*
X3325Y102D02*
X3332Y102D01*
X0Y101D02*
X7Y101D01*
X3325Y101D02*
X3332Y101D01*
X0Y100D02*
X7Y100D01*
X3325Y100D02*
X3332Y100D01*
X0Y99D02*
X7Y99D01*
X3325Y99D02*
X3332Y99D01*
X0Y98D02*
X7Y98D01*
X3325Y98D02*
X3332Y98D01*
X0Y97D02*
X7Y97D01*
X3325Y97D02*
X3332Y97D01*
X0Y96D02*
X7Y96D01*
X3325Y96D02*
X3332Y96D01*
X0Y95D02*
X7Y95D01*
X3325Y95D02*
X3332Y95D01*
X0Y94D02*
X7Y94D01*
X3325Y94D02*
X3332Y94D01*
X0Y93D02*
X7Y93D01*
X3325Y93D02*
X3332Y93D01*
X0Y92D02*
X7Y92D01*
X3325Y92D02*
X3332Y92D01*
X0Y91D02*
X7Y91D01*
X3325Y91D02*
X3332Y91D01*
X0Y90D02*
X7Y90D01*
X3325Y90D02*
X3332Y90D01*
X0Y89D02*
X7Y89D01*
X3325Y89D02*
X3332Y89D01*
X0Y88D02*
X7Y88D01*
X3325Y88D02*
X3332Y88D01*
X0Y87D02*
X7Y87D01*
X3325Y87D02*
X3332Y87D01*
X0Y86D02*
X7Y86D01*
X3325Y86D02*
X3332Y86D01*
X0Y85D02*
X7Y85D01*
X3325Y85D02*
X3332Y85D01*
X0Y84D02*
X7Y84D01*
X3325Y84D02*
X3332Y84D01*
X0Y83D02*
X7Y83D01*
X3325Y83D02*
X3332Y83D01*
X0Y82D02*
X7Y82D01*
X3325Y82D02*
X3332Y82D01*
X0Y81D02*
X7Y81D01*
X3325Y81D02*
X3332Y81D01*
X0Y80D02*
X7Y80D01*
X3325Y80D02*
X3332Y80D01*
X0Y79D02*
X7Y79D01*
X3325Y79D02*
X3332Y79D01*
X0Y78D02*
X7Y78D01*
X3325Y78D02*
X3332Y78D01*
X0Y77D02*
X7Y77D01*
X3325Y77D02*
X3332Y77D01*
X0Y76D02*
X7Y76D01*
X3325Y76D02*
X3332Y76D01*
X0Y75D02*
X7Y75D01*
X3325Y75D02*
X3332Y75D01*
X0Y74D02*
X7Y74D01*
X3325Y74D02*
X3332Y74D01*
X0Y73D02*
X7Y73D01*
X3325Y73D02*
X3332Y73D01*
X0Y72D02*
X7Y72D01*
X3325Y72D02*
X3332Y72D01*
X0Y71D02*
X7Y71D01*
X3325Y71D02*
X3332Y71D01*
X0Y70D02*
X7Y70D01*
X3325Y70D02*
X3332Y70D01*
X0Y69D02*
X7Y69D01*
X3325Y69D02*
X3332Y69D01*
X0Y68D02*
X7Y68D01*
X3325Y68D02*
X3332Y68D01*
X0Y67D02*
X7Y67D01*
X3325Y67D02*
X3332Y67D01*
X0Y66D02*
X7Y66D01*
X3325Y66D02*
X3332Y66D01*
X0Y65D02*
X7Y65D01*
X3325Y65D02*
X3332Y65D01*
X0Y64D02*
X7Y64D01*
X3325Y64D02*
X3332Y64D01*
X0Y63D02*
X7Y63D01*
X3325Y63D02*
X3332Y63D01*
X0Y62D02*
X7Y62D01*
X3325Y62D02*
X3332Y62D01*
X0Y61D02*
X7Y61D01*
X3325Y61D02*
X3332Y61D01*
X0Y60D02*
X7Y60D01*
X3325Y60D02*
X3332Y60D01*
X0Y59D02*
X7Y59D01*
X3325Y59D02*
X3332Y59D01*
X0Y58D02*
X7Y58D01*
X3325Y58D02*
X3332Y58D01*
X0Y57D02*
X7Y57D01*
X3325Y57D02*
X3332Y57D01*
X0Y56D02*
X7Y56D01*
X3325Y56D02*
X3332Y56D01*
X0Y55D02*
X7Y55D01*
X3325Y55D02*
X3332Y55D01*
X0Y54D02*
X7Y54D01*
X3325Y54D02*
X3332Y54D01*
X0Y53D02*
X7Y53D01*
X3325Y53D02*
X3332Y53D01*
X0Y52D02*
X7Y52D01*
X3325Y52D02*
X3332Y52D01*
X0Y51D02*
X7Y51D01*
X3325Y51D02*
X3332Y51D01*
X0Y50D02*
X7Y50D01*
X3325Y50D02*
X3332Y50D01*
X0Y49D02*
X7Y49D01*
X3325Y49D02*
X3332Y49D01*
X0Y48D02*
X7Y48D01*
X3325Y48D02*
X3332Y48D01*
X0Y47D02*
X7Y47D01*
X3325Y47D02*
X3332Y47D01*
X0Y46D02*
X7Y46D01*
X3325Y46D02*
X3332Y46D01*
X0Y45D02*
X7Y45D01*
X3325Y45D02*
X3332Y45D01*
X0Y44D02*
X7Y44D01*
X3325Y44D02*
X3332Y44D01*
X0Y43D02*
X7Y43D01*
X3325Y43D02*
X3332Y43D01*
X0Y42D02*
X7Y42D01*
X3325Y42D02*
X3332Y42D01*
X0Y41D02*
X7Y41D01*
X3325Y41D02*
X3332Y41D01*
X0Y40D02*
X7Y40D01*
X3325Y40D02*
X3332Y40D01*
X0Y39D02*
X7Y39D01*
X3325Y39D02*
X3332Y39D01*
X0Y38D02*
X7Y38D01*
X3325Y38D02*
X3332Y38D01*
X0Y37D02*
X7Y37D01*
X3325Y37D02*
X3332Y37D01*
X0Y36D02*
X7Y36D01*
X3325Y36D02*
X3332Y36D01*
X0Y35D02*
X7Y35D01*
X3325Y35D02*
X3332Y35D01*
X0Y34D02*
X7Y34D01*
X3325Y34D02*
X3332Y34D01*
X0Y33D02*
X7Y33D01*
X3325Y33D02*
X3332Y33D01*
X0Y32D02*
X7Y32D01*
X3325Y32D02*
X3332Y32D01*
X0Y31D02*
X7Y31D01*
X3325Y31D02*
X3332Y31D01*
X0Y30D02*
X7Y30D01*
X3325Y30D02*
X3332Y30D01*
X0Y29D02*
X7Y29D01*
X3325Y29D02*
X3332Y29D01*
X0Y28D02*
X7Y28D01*
X3325Y28D02*
X3332Y28D01*
X0Y27D02*
X7Y27D01*
X3325Y27D02*
X3332Y27D01*
X0Y26D02*
X7Y26D01*
X3325Y26D02*
X3332Y26D01*
X0Y25D02*
X7Y25D01*
X3325Y25D02*
X3332Y25D01*
X0Y24D02*
X7Y24D01*
X3325Y24D02*
X3332Y24D01*
X0Y23D02*
X7Y23D01*
X3325Y23D02*
X3332Y23D01*
X0Y22D02*
X7Y22D01*
X3325Y22D02*
X3332Y22D01*
X0Y21D02*
X7Y21D01*
X3325Y21D02*
X3332Y21D01*
X0Y20D02*
X7Y20D01*
X3325Y20D02*
X3332Y20D01*
X0Y19D02*
X7Y19D01*
X3325Y19D02*
X3332Y19D01*
X0Y18D02*
X7Y18D01*
X3325Y18D02*
X3332Y18D01*
X0Y17D02*
X7Y17D01*
X3325Y17D02*
X3332Y17D01*
X0Y16D02*
X7Y16D01*
X3325Y16D02*
X3332Y16D01*
X0Y15D02*
X7Y15D01*
X3325Y15D02*
X3332Y15D01*
X0Y14D02*
X7Y14D01*
X3325Y14D02*
X3332Y14D01*
X0Y13D02*
X7Y13D01*
X3325Y13D02*
X3332Y13D01*
X0Y12D02*
X7Y12D01*
X3325Y12D02*
X3332Y12D01*
X0Y11D02*
X7Y11D01*
X3325Y11D02*
X3332Y11D01*
X0Y10D02*
X7Y10D01*
X3325Y10D02*
X3332Y10D01*
X0Y9D02*
X7Y9D01*
X3325Y9D02*
X3332Y9D01*
X0Y8D02*
X3332Y8D01*
X0Y7D02*
X3332Y7D01*
X0Y6D02*
X3332Y6D01*
X0Y5D02*
X3332Y5D01*
X0Y4D02*
X3332Y4D01*
X0Y3D02*
X3332Y3D01*
X0Y2D02*
X3332Y2D01*
X0Y1D02*
X3332Y1D01*
D02*
G04 End of Silk1*
M02*